<svg width="12" height="12" viewBox="0 0 12 12" fill="none" xmlns="http://www.w3.org/2000/svg">
<g clip-path="url(#clip0_603_296)">
<path d="M6.94816 4.92289L2.32509 0.299752C2.136 0.110649 1.87954 0.00440552 1.61212 0.00439453C1.34469 0.00438354 1.08822 0.110606 0.899118 0.299694C0.710014 0.488782 0.603771 0.745246 0.60376 1.01267C0.603749 1.28009 0.709971 1.53656 0.899059 1.72567L5.17347 6.00008L0.899082 10.2745C0.709991 10.4636 0.603761 10.7201 0.603761 10.9875C0.603761 11.2549 0.709991 11.5113 0.899082 11.7004C1.08817 11.8895 1.34464 11.9958 1.61205 11.9958C1.87947 11.9958 2.13593 11.8895 2.32502 11.7004L6.94816 7.07732C7.23343 6.7914 7.39364 6.404 7.39364 6.00011C7.39364 5.59621 7.23343 5.20881 6.94816 4.92289ZM1.39626 1.22851C1.34 1.17108 1.30868 1.09377 1.3091 1.01338C1.30951 0.932981 1.34163 0.855999 1.39848 0.799153C1.45533 0.742307 1.53232 0.710189 1.61271 0.709778C1.6931 0.709366 1.77041 0.740694 1.82784 0.796956L6.45098 5.42005C6.52724 5.49611 6.58766 5.58653 6.62874 5.68609C6.66982 5.78566 6.69074 5.89238 6.6903 6.00008H6.02233C6.02239 5.95391 6.01332 5.90818 5.99564 5.86552C5.97797 5.82286 5.95204 5.78411 5.91935 5.7515L1.39626 1.22851ZM10.9507 4.92289L6.32756 0.299752C6.23393 0.206123 6.12278 0.131851 6.00045 0.0811773C5.87812 0.0305039 5.74701 0.00442157 5.61459 0.00441939C5.48218 0.00441721 5.35107 0.0304953 5.22874 0.0811646C5.10641 0.131834 4.99525 0.206102 4.90162 0.299729C4.71253 0.488817 4.60629 0.745278 4.60629 1.01269C4.60628 1.28011 4.71251 1.53657 4.9016 1.72567L9.17601 6.00008L4.90162 10.2745C4.80799 10.3681 4.73372 10.4793 4.68305 10.6016C4.63238 10.7239 4.6063 10.8551 4.6063 10.9875C4.6063 11.2549 4.71253 11.5113 4.90162 11.7004C5.09071 11.8895 5.34717 11.9958 5.61459 11.9958C5.88201 11.9958 6.13847 11.8895 6.32756 11.7004L10.9507 7.07732C11.2358 6.79133 11.396 6.40395 11.396 6.00011C11.396 5.59626 11.2358 5.20888 10.9507 4.92289ZM5.3988 1.22851C5.34254 1.17108 5.31122 1.09377 5.31163 1.01338C5.31205 0.932981 5.34417 0.855999 5.40102 0.799153C5.45787 0.742307 5.53485 0.710189 5.61525 0.709778C5.69564 0.709366 5.77295 0.740694 5.83038 0.796956L10.4535 5.42005C10.5298 5.49611 10.5902 5.58653 10.6313 5.68609C10.6724 5.78566 10.6933 5.89238 10.6928 6.00008H10.0249C10.0249 5.95391 10.0159 5.90818 9.9982 5.86552C9.98053 5.82286 9.9546 5.78411 9.92191 5.7515L5.3988 1.22851Z" fill="url(#paint0_linear_603_296)"/>
</g>
<defs>
<linearGradient id="paint0_linear_603_296" x1="0.60376" y1="6.00007" x2="11.396" y2="6.00007" gradientUnits="userSpaceOnUse">
<stop offset="0.1" stop-color="#7755FF"/>
<stop offset="0.44" stop-color="#40A4DB"/>
<stop offset="1" stop-color="#0CD2B3"/>
</linearGradient>
<clipPath id="clip0_603_296">
<rect width="12" height="12" fill="white"/>
</clipPath>
</defs>
</svg>
