<svg width="48" height="48" viewBox="0 0 48 48" fill="none" xmlns="http://www.w3.org/2000/svg">
<path d="M36.7387 24.7312C36.9325 24.7757 37.1361 24.7414 37.3047 24.636C37.4733 24.5305 37.5931 24.3625 37.638 24.1687C37.9342 22.8817 38.0842 21.5302 38.0842 20.1532C38.0842 15.2625 36.1785 10.6687 32.7195 7.21798C29.3928 3.87961 24.8976 1.96688 20.1855 1.88473C20.0311 1.87546 19.8765 1.87221 19.722 1.87498C19.6207 1.87648 19.5195 1.87798 19.4325 1.88398L19.4197 1.88473H19.3995L19.3845 1.88623C14.6853 1.97785 10.205 3.88893 6.88646 7.21723C3.42746 10.6687 1.52246 15.2625 1.52246 20.1525C1.52246 25.0425 3.42821 29.6445 6.87821 33.0862C7.10471 33.321 7.34696 33.54 7.59821 33.768C7.83596 33.9817 8.08196 34.1955 8.32721 34.3875C8.82897 34.7931 9.35331 35.1699 9.89771 35.5162C10.002 35.5927 10.116 35.664 10.2285 35.7337L10.347 35.8072C10.551 35.9325 10.7632 36.051 11.0017 36.183C11.2552 36.321 11.5087 36.4582 11.7885 36.5902C12.0382 36.7117 12.2887 36.8317 12.5242 36.9322C12.6877 37.0057 12.858 37.071 13.0072 37.1272C13.257 37.2322 13.5142 37.329 13.7602 37.41C14.0212 37.5045 14.274 37.584 14.5342 37.6627C14.79 37.7407 15.0465 37.8105 15.3105 37.8802C15.5027 37.931 15.7072 37.9033 15.8791 37.8033C16.051 37.7033 16.1761 37.5392 16.227 37.347C16.2662 37.1955 16.2566 37.0355 16.1993 36.8898C16.142 36.7442 16.0401 36.6204 15.9082 36.5362C15.9637 36.4995 16.023 36.4702 16.0687 36.417C16.1333 36.3426 16.1826 36.2562 16.2138 36.1627C16.245 36.0693 16.2574 35.9706 16.2505 35.8723C16.2435 35.774 16.2172 35.6781 16.1732 35.59C16.1291 35.5019 16.0681 35.4233 15.9937 35.3587C14.5702 34.1227 13.3507 32.2387 12.4395 29.895C13.4763 29.3851 14.5637 28.9855 15.684 28.7025C15.8707 28.6485 16.0293 28.5243 16.1262 28.3558C16.2232 28.1873 16.2511 27.9878 16.204 27.7992C16.1568 27.6106 16.0384 27.4477 15.8736 27.3446C15.7088 27.2416 15.5104 27.2065 15.3202 27.2467C14.1533 27.541 13.0189 27.9516 11.934 28.4722C11.2072 26.1517 10.797 23.5657 10.7317 20.901H19.0492V23.9992C19.0492 24.1981 19.1282 24.3889 19.2689 24.5296C19.4095 24.6702 19.6003 24.7492 19.7992 24.7492C19.9981 24.7492 20.1889 24.6702 20.3295 24.5296C20.4702 24.3889 20.5492 24.1981 20.5492 23.9992V20.901H28.866C28.8467 21.9052 28.7764 22.9077 28.6552 23.9047C28.6301 24.1021 28.6845 24.3014 28.8063 24.4588C28.928 24.6161 29.1073 24.7187 29.3047 24.744C29.5019 24.768 29.7007 24.7133 29.8578 24.5917C30.0149 24.4701 30.1178 24.2914 30.144 24.0945C30.276 23.0535 30.3412 21.981 30.3667 20.901H36.5647C36.5249 21.8875 36.3951 22.8683 36.177 23.8312C36.1548 23.9272 36.1519 24.0266 36.1682 24.1237C36.1845 24.2209 36.2197 24.3139 36.272 24.3974C36.3242 24.4809 36.3924 24.5533 36.4726 24.6104C36.5528 24.6676 36.6435 24.7084 36.7395 24.7305L36.7387 24.7312ZM3.05921 19.4017C3.22324 15.4612 4.78409 11.7075 7.46246 8.81248C8.41994 9.68999 9.46867 10.4624 10.5907 11.1165C9.76571 13.6485 9.30146 16.4842 9.23321 19.4017H3.05921ZM19.05 3.43573V12.0937C16.7542 11.9912 14.504 11.4184 12.4387 10.4107C14.0047 6.40423 16.4197 3.85273 19.05 3.43573ZM20.55 3.43348C23.1765 3.84298 25.599 6.39598 27.1687 10.41C25.1012 11.4191 22.8483 11.9922 20.55 12.0937V3.43348ZM32.145 8.81098C34.8236 11.7062 36.3845 15.4601 36.5482 19.401H30.375C30.3067 16.4827 29.8417 13.6477 29.0175 11.1157C30.1392 10.4615 31.1876 9.68836 32.145 8.81098ZM31.0822 7.75273C30.284 8.47893 29.4172 9.12596 28.494 9.68473C27.5715 7.38898 26.3685 5.52523 24.9862 4.19398C27.2362 4.91998 29.3047 6.13273 31.0822 7.75348V7.75273ZM11.1135 9.68473C10.1902 9.12609 9.32334 8.47905 8.52521 7.75273C10.2759 6.14688 12.3509 4.93559 14.61 4.20073C13.233 5.53123 12.0337 7.39348 11.1135 9.68473ZM14.604 36.1072C14.4907 36.0705 14.382 36.039 14.2597 35.9947C14.0252 35.9154 13.7933 35.8283 13.5645 35.7337C13.4205 35.679 13.2765 35.6242 13.125 35.5567C12.897 35.46 12.6697 35.3497 12.4087 35.2237C12.174 35.1135 11.9467 34.989 11.7037 34.8562C11.511 34.749 11.3175 34.6417 11.0992 34.5082L11.0152 34.4565C10.9372 34.4085 10.8577 34.3605 10.743 34.2787C10.2289 33.9507 9.73335 33.5944 9.25871 33.2115C9.03089 33.0308 8.80926 32.8424 8.59421 32.6467C8.56421 32.6197 8.53496 32.5897 8.50496 32.5627C9.30847 31.831 10.1811 31.179 11.1105 30.6157C12.0172 32.886 13.2097 34.761 14.6032 36.108L14.604 36.1072ZM10.59 29.187C9.46836 29.8446 8.41995 30.6197 7.46246 31.4992C4.78274 28.6015 3.22185 24.8445 3.05921 20.901H9.23246C9.30071 23.8185 9.76496 26.6542 10.59 29.187ZM10.7325 19.401C10.7977 16.7385 11.208 14.154 11.934 11.8342C14.1631 12.8943 16.5836 13.4928 19.05 13.5937V19.401H10.7325ZM20.55 13.5937C23.0191 13.4941 25.4426 12.8956 27.6742 11.8342C28.4002 14.154 28.8105 16.7385 28.8757 19.401H20.55V13.5937Z" fill="black"/>
<path d="M46.3297 36.06C46.2862 35.952 46.2517 35.8425 46.1894 35.7368L42.7387 30.111C42.5532 29.809 42.2939 29.5591 41.9851 29.385C41.6764 29.2109 41.3284 29.1182 40.9739 29.1158H36.5849V26.6348C36.5845 26.2703 36.4396 25.9208 36.1819 25.6631C35.9241 25.4054 35.5747 25.2604 35.2102 25.26H18.3562C17.9917 25.2604 17.6423 25.4054 17.3845 25.6631C17.1268 25.9208 16.9818 26.2703 16.9814 26.6348V42.3068C16.9814 43.065 17.5979 43.6815 18.3562 43.6815H20.6302C20.9699 45.0825 22.2262 46.1295 23.7299 46.1295C25.2337 46.1295 26.4899 45.0825 26.8297 43.6815H37.2682C37.6079 45.0825 38.8642 46.1295 40.3679 46.1295C41.8717 46.1295 43.1279 45.0825 43.4677 43.6815H44.4232C44.9734 43.6809 45.5009 43.4621 45.89 43.073C46.279 42.684 46.4979 42.1565 46.4984 41.6063V36.8175C46.4984 36.6008 46.4482 36.3818 46.3732 36.1643C46.3608 36.1284 46.3458 36.0936 46.3282 36.06H46.3297ZM44.3782 35.6528H39.3164V32.559H42.4799L44.3782 35.6528ZM18.4814 26.7593H35.0857V42.1808H26.8312C26.4914 40.779 25.2352 39.7313 23.7307 39.7313C22.2262 39.7313 20.9692 40.779 20.6302 42.1808H18.4822L18.4814 26.7593ZM23.7307 44.6288C23.2808 44.6282 22.8495 44.4493 22.5312 44.1313C22.2129 43.8133 22.0337 43.3822 22.0327 42.9323V42.93C22.0327 41.994 22.7947 41.232 23.7314 41.232C24.6682 41.232 25.4302 41.994 25.4302 42.9308C25.4302 43.8675 24.6682 44.6295 23.7314 44.6295L23.7307 44.6288ZM40.3694 44.6288C39.921 44.6282 39.491 44.4504 39.1731 44.1342C38.8552 43.818 38.6752 43.3889 38.6722 42.9405C38.6722 42.9375 38.6744 42.9345 38.6744 42.9308C38.6744 42.927 38.6722 42.9248 38.6722 42.921C38.6774 41.9888 39.4364 41.232 40.3694 41.232C41.3024 41.232 42.0562 41.985 42.0659 42.9128C42.0659 42.9195 42.0622 42.9248 42.0622 42.9308C42.0622 42.9368 42.0659 42.942 42.0659 42.9488C42.0608 43.3956 41.8799 43.8224 41.5624 44.1368C41.2449 44.4513 40.8163 44.628 40.3694 44.6288ZM44.4254 42.1808H43.4699C43.1302 40.779 41.8739 39.7313 40.3694 39.7313C38.8649 39.7313 37.6079 40.779 37.2689 42.1808H36.5857V30.6158H40.9747C41.0728 30.6173 41.1689 30.6437 41.2539 30.6927C41.339 30.7416 41.4101 30.8114 41.4607 30.8955L41.5612 31.059H38.8394C38.2762 31.059 37.8179 31.5173 37.8179 32.0805V35.8065C37.8179 36.549 38.4217 37.1528 39.1642 37.1528H45.0014V41.6055C45.0012 41.758 44.9406 41.9042 44.8327 42.0121C44.7249 42.1199 44.578 42.1806 44.4254 42.1808Z" fill="black"/>
</svg>
