<svg width="44" height="48" viewBox="0 0 44 48" fill="none" xmlns="http://www.w3.org/2000/svg">
<path d="M42.3997 25.0764C40.1938 22.8807 37.6435 24.9358 37.6435 24.9358V13.3764C37.645 13.2831 37.6279 13.1904 37.5933 13.1038C37.5587 13.0172 37.5071 12.9384 37.4417 12.8718C37.3762 12.8053 37.2982 12.7525 37.2122 12.7165C37.1261 12.6804 37.0338 12.6619 36.9405 12.6619C36.8472 12.6619 36.7548 12.6804 36.6687 12.7165C36.5827 12.7525 36.5047 12.8053 36.4392 12.8718C36.3738 12.9384 36.3223 13.0172 36.2876 13.1038C36.253 13.1904 36.2359 13.2831 36.2374 13.3764V25.9249C36.2374 25.9249 32.8844 28.5679 31.4432 29.2138V8.40057C31.4432 7.43306 32.2303 6.64612 33.1979 6.64612H34.4828C35.4504 6.64612 36.2374 7.43306 36.2374 8.40057V10.498C36.2374 10.8865 36.5521 11.2011 36.9406 11.2011C37.033 11.2011 37.1244 11.1829 37.2097 11.1476C37.295 11.1122 37.3725 11.0604 37.4378 10.9951C37.503 10.9298 37.5548 10.8523 37.5901 10.767C37.6254 10.6817 37.6435 10.5903 37.6435 10.498V8.40057C37.6435 6.65774 36.2258 5.24023 34.4828 5.24023H33.1979C31.4549 5.24023 30.0368 6.65774 30.0368 8.40057V29.7715C29.6157 29.8892 29.185 29.9693 28.7498 30.0109V15.1876C28.7498 13.436 27.3246 12.0111 25.5732 12.0111H24.3196C22.5681 12.0111 21.143 13.4361 21.143 15.1876V22.3515L19.8557 23.0349V20.6509C19.8557 19.074 18.5727 17.7911 16.996 17.7911H15.1089C13.5319 17.7911 12.2492 19.0739 12.2492 20.6508V27.072L9.95311 28.2904L3.50563 30.1328C2.38377 30.4532 1.44691 31.1879 0.868126 32.2008C0.289152 33.2141 0.132102 34.394 0.425762 35.5231L1.14688 38.2975C1.24439 38.6733 1.62815 38.8985 2.00432 38.8011C2.18483 38.7541 2.33929 38.6373 2.43373 38.4765C2.52817 38.3157 2.55485 38.1239 2.50791 37.9434L1.7868 35.1693C1.36853 33.5602 2.2933 31.9415 3.89239 31.4849L9.78715 29.8003L14.2178 41.6238C14.5145 42.4156 14.4676 44.6744 12.124 45.5068L7.66918 46.5186C6.11659 46.8709 4.58679 45.9403 4.18614 44.3994L3.28191 40.92C3.23494 40.7395 3.11825 40.5851 2.95748 40.4906C2.79671 40.3961 2.605 40.3693 2.42447 40.4161C2.24391 40.463 2.0894 40.5798 1.99489 40.7406C1.90039 40.9014 1.87363 41.0932 1.9205 41.2737L2.8252 44.7535C3.33357 46.7084 5.07031 48 7.00376 48C8.42452 48 12.4357 46.8779 12.4357 46.8779C13.5454 46.626 14.5115 45.9477 15.1253 44.9896C15.7391 44.0315 15.9514 42.8704 15.7162 41.7571L31.1282 37.9844C32.4028 37.672 33.6129 37.0667 34.6267 36.2335L42.1269 30.0717C44.4134 28.0438 43.0722 25.7455 42.3997 25.0764ZM24.3196 13.4173H25.5732C26.5493 13.4173 27.3434 14.2117 27.3434 15.1876V30.046L22.9062 30.0441C22.4985 30.0405 22.7806 29.7713 22.8029 29.753L24.0808 28.7181C25.2729 27.7525 26.0516 26.41 26.3948 24.7271C26.6127 23.6596 26.2054 22.591 25.3326 21.9384C24.5173 21.329 23.4687 21.2119 22.5494 21.6147V15.1876C22.5494 14.2117 23.3435 13.4173 24.3196 13.4173ZM13.6557 20.6508C13.6557 19.8496 14.3077 19.1973 15.109 19.1973H16.996C17.7973 19.1973 18.4496 19.8496 18.4496 20.6508V23.7812L13.6554 26.3256V20.6509L13.6557 20.6508ZM41.2342 28.9855L33.7337 35.1473C32.8756 35.8506 31.8712 36.3532 30.7939 36.6184L15.2683 40.4194L11.0931 29.2781L23.0146 22.9506C23.4991 22.6932 24.0511 22.736 24.4902 23.0646C24.9294 23.393 25.1264 23.9093 25.017 24.4463C24.7404 25.8009 24.1276 26.8706 23.1955 27.6253L21.9176 28.6606C21.3939 29.0847 21.2009 29.7691 21.4258 30.4045C21.6506 31.0395 22.2315 31.4504 22.9055 31.4504L28.029 31.4526H28.0327C29.8566 31.4526 31.6095 30.8982 33.1016 29.849L38.8276 25.8228C39.2132 25.5496 39.6838 25.4233 40.1544 25.4667C40.625 25.5101 41.0645 25.7203 41.3936 26.0594C41.7881 26.4623 42.5601 27.6594 41.2342 28.9854V28.9855Z" fill="#121212"/>
<path d="M11.5246 42.0743C11.5246 40.5467 10.2819 39.3038 8.75429 39.3038C7.22664 39.3038 5.98393 40.5467 5.98393 42.0743C5.98393 43.6015 7.22664 44.8444 8.75429 44.8444C10.2819 44.8444 11.5246 43.6014 11.5246 42.0743ZM7.39035 42.0743C7.39035 41.3221 8.00204 40.7101 8.75429 40.7101C9.50625 40.7101 10.1182 41.3221 10.1182 42.0742C10.1182 42.8261 9.50663 43.438 8.75429 43.438C8.00204 43.438 7.39035 42.8261 7.39035 42.0742V42.0743ZM3.69747 22.0764L13.9196 11.7767L16.2189 12.9658C16.6204 13.1736 17.077 13.2503 17.5243 13.1852C17.9717 13.1201 18.3875 12.9165 18.7131 12.6029L24.2773 7.24739C24.2773 7.24739 24.1242 9.99803 26.4407 9.99803C27.6333 9.99803 28.6038 9.02752 28.6038 7.83473V2.16283C28.6038 2.15626 28.6034 2.14933 28.6034 2.14239C28.5957 0.662441 27.5134 0 26.4407 0H20.8176C19.6248 0 18.6545 0.970506 18.6545 2.16283C18.6545 4.54034 21.0744 4.32565 21.0744 4.32565L16.8295 8.4113L14.4968 7.20501C13.6533 6.76841 12.6369 6.92845 11.9675 7.60233L0.626797 19.0292C-0.213396 19.8758 -0.208333 21.2481 0.638517 22.0881C1.04647 22.4928 2.43967 23.334 3.69747 22.0764ZM1.62479 20.0198L12.9655 8.5928C13.112 8.44561 13.3471 8.1878 13.8508 8.45405L16.631 9.89181C16.7615 9.95935 16.9099 9.9843 17.0553 9.96314C17.2008 9.94199 17.3359 9.8758 17.4418 9.77387L23.3063 4.12943C23.4073 4.03218 23.4769 3.90696 23.5062 3.76986C23.5355 3.63276 23.5231 3.49004 23.4707 3.36002C23.4182 3.23 23.3281 3.11862 23.2119 3.04019C23.0957 2.96176 22.9587 2.91986 22.8185 2.91986H20.8176C20.4004 2.91986 20.0609 2.5803 20.0609 2.16283C20.0609 1.74573 20.4004 1.40626 20.8176 1.40626H26.4407C26.6477 1.40626 27.197 1.40626 27.197 2.15842C27.197 2.1647 27.1974 2.17089 27.1974 2.17754V7.83473C27.1974 8.25192 26.858 8.5913 26.4407 8.5913C26.0232 8.5913 25.6837 8.25192 25.6837 7.83473V5.59466C25.6838 5.45669 25.6433 5.32174 25.5673 5.20663C25.4912 5.09152 25.3829 5.00134 25.256 4.94734C25.129 4.89334 24.9889 4.8779 24.8532 4.90295C24.7176 4.928 24.5922 4.99244 24.4929 5.08822L17.7378 11.5899C17.6239 11.6996 17.4785 11.7708 17.322 11.7936C17.1655 11.8164 17.0058 11.7896 16.8654 11.7169L14.1075 10.2906C13.9745 10.2219 13.8231 10.1974 13.6752 10.2207C13.5273 10.2439 13.3907 10.3137 13.2852 10.4199L2.69948 21.0859C2.23799 21.5472 1.77181 21.2316 1.62892 21.0898C1.33301 20.7957 1.33113 20.3157 1.62488 20.0198H1.62479Z" fill="#121212"/>
</svg>
