<svg width="80" height="80" viewBox="0 0 80 80" fill="none" xmlns="http://www.w3.org/2000/svg">
<g clip-path="url(#clip0_23032_519)">
<path fill-rule="evenodd" clip-rule="evenodd" d="M18.759 21.3555H58.5121L54.0955 52.0927H14.3379L18.759 21.3555Z" fill="#CD353E"/>
<path fill-rule="evenodd" clip-rule="evenodd" d="M18.7595 21.3555H58.5126L54.096 52.0927H52.0204L52.3129 50.0398L56.1443 23.4083H18.4668L18.7595 21.3555Z" fill="#B41C25"/>
<path fill-rule="evenodd" clip-rule="evenodd" d="M15.5084 43.9683H55.2615L54.0956 52.0926H14.3379L15.5084 43.9683Z" fill="#FFC06C"/>
<path fill-rule="evenodd" clip-rule="evenodd" d="M54.0952 52.0926H52.0195L52.312 50.0398L53.1853 43.9683H55.2611L54.0952 52.0926Z" fill="#EDA558"/>
<path fill-rule="evenodd" clip-rule="evenodd" d="M19.701 49.3496H75.5154C76.1921 49.3496 76.6629 49.9027 76.5669 50.5795L76.1325 53.606C76.0366 54.2827 75.4057 54.8359 74.7289 54.8359H18.91C18.238 54.8359 17.7625 54.2827 17.863 53.606L18.2974 50.5795C18.3935 49.9027 19.0244 49.3496 19.701 49.3496Z" fill="#CD353E"/>
<path fill-rule="evenodd" clip-rule="evenodd" d="M56.6289 54.8358H77.2941L80.0008 36.004L74.4778 26.8143C73.9613 25.9593 73.1108 25.4976 72.0409 25.4976H63.1577C61.8867 25.4976 60.698 26.5354 60.515 27.8065L56.6289 54.8358Z" fill="#FF4C4C"/>
<path fill-rule="evenodd" clip-rule="evenodd" d="M63.9109 28.7754C63.5634 31.1848 63.2205 33.5943 62.873 36.0037H75.8985L71.6101 28.8668C71.5598 28.7891 71.5415 28.7754 71.4455 28.7754H63.9109Z" fill="#E1EFFF"/>
<path d="M14.3605 33.6585C14.3605 33.958 14.2415 34.2452 14.0297 34.457C13.818 34.6688 13.5307 34.7877 13.2312 34.7877H1.12922C0.829731 34.7877 0.54251 34.6688 0.33074 34.457C0.118971 34.2452 0 33.958 0 33.6585C0 33.359 0.118971 33.0718 0.33074 32.86C0.54251 32.6483 0.829731 32.5293 1.12922 32.5293H13.2312C13.3795 32.5293 13.5264 32.5585 13.6634 32.6153C13.8004 32.672 13.9249 32.7552 14.0297 32.86C14.1346 32.9649 14.2178 33.0894 14.2745 33.2264C14.3313 33.3634 14.3605 33.5102 14.3605 33.6585ZM12.2575 37.0784H4.66344C4.36395 37.0784 4.07673 37.1973 3.86496 37.4091C3.65319 37.6209 3.53422 37.9081 3.53422 38.2076C3.53422 38.5071 3.65319 38.7943 3.86496 39.0061C4.07673 39.2178 4.36395 39.3368 4.66344 39.3368H12.2575C12.557 39.3368 12.8442 39.2178 13.056 39.0061C13.2677 38.7943 13.3867 38.5071 13.3867 38.2076C13.3867 37.9081 13.2677 37.6209 13.056 37.4091C12.8442 37.1973 12.557 37.0784 12.2575 37.0784ZM11.2836 41.6274H7.48437C7.18489 41.6274 6.89767 41.7464 6.6859 41.9582C6.47413 42.1699 6.35516 42.4572 6.35516 42.7566C6.35516 43.0561 6.47413 43.3434 6.6859 43.5551C6.89767 43.7669 7.18489 43.8859 7.48437 43.8859H11.2836C11.5831 43.8859 11.8703 43.7669 12.0821 43.5551C12.2938 43.3434 12.4128 43.0561 12.4128 42.7566C12.4128 42.4572 12.2938 42.1699 12.0821 41.9582C11.8703 41.7464 11.5831 41.6274 11.2836 41.6274Z" fill="#363D52"/>
<path d="M24.8446 30.0102L24.6801 31.1166H26.4176C26.7171 31.1166 27.0043 31.2356 27.2161 31.4474C27.4278 31.6591 27.5468 31.9464 27.5468 32.2458C27.5468 32.5453 27.4278 32.8325 27.2161 33.0443C27.0043 33.2561 26.7171 33.3751 26.4176 33.3751H24.3442L23.8632 36.609C23.8427 36.7568 23.793 36.899 23.7172 37.0275C23.6413 37.156 23.5408 37.2682 23.4213 37.3576C23.3019 37.447 23.1659 37.5119 23.0212 37.5484C22.8765 37.585 22.726 37.5925 22.5784 37.5705C22.4308 37.5486 22.2891 37.4976 22.1613 37.4205C22.0335 37.3434 21.9223 37.2418 21.834 37.1215C21.7457 37.0012 21.6822 36.8646 21.647 36.7196C21.6119 36.5745 21.6058 36.424 21.6292 36.2766L22.7539 28.7146C22.7937 28.4468 22.9284 28.2023 23.1334 28.0255C23.3385 27.8487 23.6002 27.7515 23.8709 27.7515H28.4154C28.7149 27.7515 29.0021 27.8704 29.2139 28.0822C29.4257 28.294 29.5446 28.5812 29.5446 28.8807C29.5446 29.1802 29.4257 29.4674 29.2139 29.6792C29.0021 29.8909 28.7149 30.0099 28.4154 30.0099H24.8446V30.0102ZM35.461 36.3437C35.4874 36.642 35.3941 36.9386 35.2017 37.1682C35.0094 37.3977 34.7338 37.5415 34.4354 37.5679C33.8142 37.624 33.2662 37.1635 33.2112 36.5422L33.1435 35.7754H31.2601L30.8449 36.8499C30.7369 37.1292 30.5224 37.3542 30.2486 37.4754C29.9748 37.5966 29.664 37.6041 29.3846 37.4963C29.2463 37.4429 29.1198 37.3627 29.0125 37.2604C28.9051 37.1581 28.8189 37.0356 28.7589 36.9C28.6989 36.7643 28.6662 36.6182 28.6626 36.47C28.6591 36.3217 28.6848 36.1742 28.7382 36.0358L31.6596 28.4738C31.7418 28.2612 31.8864 28.0784 32.0744 27.9495C32.2625 27.8206 32.4851 27.7516 32.7131 27.7516H33.6685C33.9509 27.7517 34.2229 27.8574 34.4311 28.0481C34.6394 28.2387 34.7687 28.5004 34.7935 28.7816L35.461 36.3437ZM32.9442 33.5169L32.7932 31.8071L32.1326 33.5169H32.9442ZM42.2684 27.7516H41.1437C39.539 27.7516 38.0946 29.0035 37.8548 30.6037C37.7224 31.4982 37.9017 32.2374 38.3878 32.8007C39.1451 33.6785 40.3659 33.791 41.3448 33.791C41.5134 33.791 41.6489 33.8447 41.7365 33.9465C41.8281 34.0527 41.8639 34.2094 41.8367 34.3919C41.7665 34.8741 41.2642 35.3133 40.7826 35.3133H39.6579C39.6079 35.3133 39.5409 35.3044 39.5042 35.2621C39.4718 35.2246 39.4604 35.1597 39.4721 35.0794C39.4937 34.9327 39.4861 34.7832 39.4498 34.6394C39.4136 34.4956 39.3493 34.3603 39.2608 34.2414C39.1723 34.1224 39.0611 34.0221 38.9338 33.946C38.8065 33.87 38.6654 33.8198 38.5187 33.7983C38.372 33.7767 38.2224 33.7842 38.0786 33.8204C37.9347 33.8566 37.7994 33.9209 37.6805 34.0094C37.5615 34.098 37.4611 34.2091 37.3851 34.3365C37.3091 34.4639 37.259 34.605 37.2376 34.7518C37.1307 35.4807 37.3339 36.2049 37.7951 36.7388C38.2526 37.2683 38.9317 37.5721 39.6579 37.5721H40.7826C42.3942 37.5721 43.839 36.318 44.0712 34.7212C44.1945 33.8947 43.9671 33.0751 43.4474 32.4721C42.9328 31.8751 42.1665 31.5326 41.3451 31.5326C40.289 31.5326 40.1054 31.3338 40.0981 31.3252C40.0887 31.3144 40.0496 31.2029 40.089 30.9363C40.1617 30.4516 40.6645 30.0101 41.1439 30.0101H42.2685C42.3185 30.0101 42.3857 30.019 42.4223 30.0613C42.4546 30.0988 42.4659 30.1637 42.4542 30.2438C42.4107 30.5401 42.4867 30.8416 42.6654 31.0819C42.8442 31.3222 43.1111 31.4817 43.4074 31.5252C43.5542 31.5468 43.7037 31.5393 43.8476 31.5031C43.9914 31.4668 44.1267 31.4026 44.2457 31.3141C44.3647 31.2256 44.4651 31.1145 44.5411 30.9871C44.6172 30.8598 44.6674 30.7187 44.6889 30.5719C44.7959 29.843 44.5928 29.1188 44.1314 28.5849C43.6739 28.0554 42.9948 27.7516 42.2684 27.7516ZM51.4534 27.7516H46.9089C46.6094 27.7516 46.3221 27.8706 46.1104 28.0824C45.8986 28.2941 45.7796 28.5814 45.7796 28.8808C45.7796 29.1803 45.8986 29.4675 46.1104 29.6793C46.3221 29.8911 46.6094 30.0101 46.9089 30.0101H47.8715L46.9395 36.2766C46.8985 36.5714 46.9755 36.8705 47.1539 37.1088C47.3323 37.3472 47.5975 37.5054 47.8919 37.5492C48.1863 37.593 48.4862 37.5188 48.7262 37.3427C48.9662 37.1667 49.1269 36.903 49.1735 36.609L50.1549 30.0102H51.4534C51.7529 30.0102 52.0401 29.8912 52.2519 29.6795C52.4637 29.4677 52.5827 29.1804 52.5827 28.8809C52.5827 28.5814 52.4637 28.2942 52.2519 28.0824C52.0401 27.8706 51.7529 27.7516 51.4534 27.7516Z" fill="white"/>
<path fill-rule="evenodd" clip-rule="evenodd" d="M69.9922 28.7759L74.3355 36.0042H75.8991L71.6106 28.8673C71.5603 28.7896 71.542 28.7759 71.4461 28.7759H69.9922Z" fill="#D7D7E3"/>
<path fill-rule="evenodd" clip-rule="evenodd" d="M56.6276 54.8359L57.4185 49.3496H55.9966L55.2012 54.8359H56.6276Z" fill="#B41C25"/>
<path fill-rule="evenodd" clip-rule="evenodd" d="M73.3115 27.5185L78.5829 36.2876L76.5666 50.2274L76.0271 53.9672L75.8991 54.8358H77.2935L80.0002 36.004L74.4773 26.8143C73.9607 25.9593 73.1102 25.4976 72.0404 25.4976H63.1571C62.2245 25.4976 61.3329 26.0599 60.8574 26.8601H72.0404C72.5891 26.8601 73.0235 27.043 73.3115 27.5185Z" fill="#D11E1E"/>
<path fill-rule="evenodd" clip-rule="evenodd" d="M33.9605 45.5273C37.5769 45.5273 40.0869 48.458 39.5656 52.0789C39.0491 55.6953 35.6931 58.6259 32.0767 58.6259C28.4558 58.6259 25.9458 55.6953 26.4669 52.0789C26.9836 48.458 30.3396 45.5273 33.9605 45.5273Z" fill="#363D52"/>
<path fill-rule="evenodd" clip-rule="evenodd" d="M33.9606 45.5273C37.577 45.5273 40.087 48.458 39.5658 52.0789C39.0628 55.5994 35.8717 58.4705 32.365 58.6214C35.2773 57.8763 37.7097 55.325 38.1486 52.2892C38.6652 48.6683 36.1552 45.7377 32.5388 45.7377C32.4381 45.7377 32.3422 45.7422 32.2461 45.7422C32.8064 45.5994 33.3824 45.5272 33.9606 45.5273Z" fill="#2A3146"/>
<path fill-rule="evenodd" clip-rule="evenodd" d="M33.4385 49.1348C35.0614 49.1348 36.1908 50.4515 35.9577 52.0791C35.7245 53.7021 34.2158 55.019 32.5927 55.019C30.9697 55.019 29.8403 53.7023 30.0735 52.0791C30.3067 50.4515 31.8155 49.1348 33.4385 49.1348Z" fill="#E1EFFF"/>
<path fill-rule="evenodd" clip-rule="evenodd" d="M33.4385 49.1348C35.0615 49.1348 36.1909 50.4515 35.9577 52.0791C35.7382 53.6107 34.3849 54.868 32.8671 55.0052C34.0146 54.5709 34.9337 53.5102 35.112 52.2757C35.3451 50.648 34.2159 49.3313 32.5927 49.3313C32.5013 49.3313 32.4099 49.3359 32.3184 49.3451C32.6751 49.2126 33.0545 49.1348 33.4385 49.1348Z" fill="#D7D7E3"/>
<path fill-rule="evenodd" clip-rule="evenodd" d="M68.2962 45.541C71.9126 45.541 74.4271 48.4762 73.906 52.0926C73.3848 55.709 70.029 58.6441 66.4126 58.6441C62.7962 58.6441 60.2816 55.709 60.8027 52.0926C61.324 48.4762 64.6798 45.541 68.2962 45.541Z" fill="#363D52"/>
<path fill-rule="evenodd" clip-rule="evenodd" d="M68.2966 45.541C71.913 45.541 74.4275 48.4762 73.9064 52.0926C73.3989 55.6131 70.2123 58.4841 66.7056 58.6351C69.6134 57.8945 72.0503 55.3387 72.4845 52.3029C73.0058 48.6865 70.4958 45.7513 66.8747 45.7513C66.7788 45.7513 66.6827 45.7559 66.582 45.7605C67.1398 45.6187 67.7159 45.541 68.2966 45.541Z" fill="#2A3146"/>
<path fill-rule="evenodd" clip-rule="evenodd" d="M67.7784 49.1528C69.4014 49.1528 70.5262 50.4696 70.2929 52.0925C70.0598 53.7155 68.5556 55.0324 66.9326 55.0324C65.305 55.0324 64.1803 53.7156 64.4134 52.0925C64.6465 50.4697 66.1507 49.1528 67.7784 49.1528Z" fill="#E1EFFF"/>
<path fill-rule="evenodd" clip-rule="evenodd" d="M67.7791 49.1528C69.4021 49.1528 70.527 50.4696 70.2937 52.0925C70.0741 53.6241 68.7209 54.8814 67.2076 55.0186C68.3505 54.5889 69.2695 53.5281 69.4479 52.2891C69.681 50.6661 68.5563 49.3494 66.9287 49.3494C66.8373 49.3494 66.7459 49.3539 66.6543 49.3586C67.014 49.2236 67.3949 49.154 67.7791 49.1528Z" fill="#D7D7E3"/>
</g>
<defs>
<clipPath id="clip0_23032_519">
<rect width="80" height="80" fill="white"/>
</clipPath>
</defs>
</svg>
