<svg width="60" height="60" viewBox="0 0 60 60" fill="none" xmlns="http://www.w3.org/2000/svg">
<path fill-rule="evenodd" clip-rule="evenodd" d="M45.9314 2.3524C45.9314 2.19639 45.8695 2.04676 45.7592 1.9364C45.6488 1.82613 45.4992 1.76418 45.3432 1.76416L14.6566 1.76416C14.5006 1.76418 14.351 1.82613 14.2406 1.9364C14.1303 2.04676 14.0684 2.19639 14.0684 2.3524L14.0684 23.3215L45.9314 23.3215L45.9314 2.3524Z" fill="#F4F6F8"/>
<path fill-rule="evenodd" clip-rule="evenodd" d="M58.2352 22.0749C58.2352 21.7629 58.1113 21.4637 57.8906 21.2431C57.67 21.0224 57.3708 20.8985 57.0588 20.8984L2.94112 20.8984C2.78661 20.8984 2.63361 20.9288 2.49085 20.9879C2.34809 21.047 2.21838 21.1337 2.10913 21.2429C1.99987 21.3522 1.91322 21.4819 1.85411 21.6246C1.795 21.7674 1.76461 21.9204 1.76465 22.0749L1.76465 37.0526C1.76474 37.3645 1.88872 37.6637 2.10933 37.8843C2.32995 38.105 2.62913 38.2289 2.94112 38.229L57.0588 38.229C57.3708 38.229 57.67 38.105 57.8906 37.8844C58.1113 37.6638 58.2352 37.3646 58.2352 37.0526L58.2352 22.0749Z" fill="#636C77"/>
<path fill-rule="evenodd" clip-rule="evenodd" d="M50.6099 28.3368C50.6099 28.1808 50.5479 28.0311 50.4376 27.9208C50.3273 27.8105 50.1777 27.7485 50.0217 27.7485L9.97789 27.7485C9.82188 27.7485 9.67226 27.8105 9.56194 27.9208C9.45163 28.0311 9.38965 28.1808 9.38965 28.3368L9.38965 30.7903C9.38965 30.9463 9.45163 31.0959 9.56194 31.2062C9.67226 31.3166 9.82188 31.3785 9.97789 31.3785L50.0217 31.3785C50.1777 31.3785 50.3273 31.3166 50.4376 31.2062C50.5479 31.0959 50.6099 30.9463 50.6099 30.7903L50.6099 28.3368Z" fill="#424852"/>
<path d="M26.6995 46.2694C28.0831 46.2694 29.2047 45.1391 29.2047 43.7448C29.2047 42.3505 28.0831 41.2202 26.6995 41.2202C25.3159 41.2202 24.1943 42.3505 24.1943 43.7448C24.1943 45.1391 25.3159 46.2694 26.6995 46.2694Z" fill="#FDCD56"/>
<path fill-rule="evenodd" clip-rule="evenodd" d="M45.9314 27.4917L14.0684 27.4917L14.0684 57.6262C14.0684 57.7822 14.1303 57.9318 14.2407 58.0421C14.351 58.1524 14.5006 58.2144 14.6566 58.2144L45.3432 58.2144C45.4992 58.2144 45.6488 58.1524 45.7591 58.0421C45.8694 57.9318 45.9314 57.7822 45.9314 57.6262L45.9314 27.4917Z" fill="#A4D4FF"/>
<path fill-rule="evenodd" clip-rule="evenodd" d="M14.0684 56.2723L21.3272 48.2726C21.3823 48.2118 21.4495 48.1632 21.5245 48.1299C21.5996 48.0966 21.6807 48.0794 21.7628 48.0794C21.8448 48.0794 21.926 48.0966 22.001 48.1299C22.076 48.1632 22.1433 48.2118 22.1984 48.2726L26.2588 52.7474C26.3143 52.8086 26.382 52.8575 26.4576 52.8907C26.5332 52.924 26.615 52.941 26.6976 52.9405C26.7802 52.9401 26.8618 52.9222 26.937 52.8882C27.0122 52.8541 27.0794 52.8045 27.1342 52.7427L35.9938 42.766C36.049 42.7038 36.1167 42.6541 36.1925 42.62C36.2683 42.586 36.3505 42.5684 36.4336 42.5684C36.5167 42.5684 36.5989 42.586 36.6747 42.62C36.7505 42.6541 36.8182 42.7038 36.8734 42.766L45.9314 52.9663L45.9314 57.6259C45.9314 57.7819 45.8695 57.9315 45.7592 58.0419C45.6488 58.1521 45.4992 58.2141 45.3432 58.2141L14.6566 58.2141C14.5006 58.2141 14.351 58.1521 14.2406 58.0419C14.1303 57.9315 14.0684 57.7819 14.0684 57.6259L14.0684 56.2723Z" fill="#38A8D2"/>
<path fill-rule="evenodd" clip-rule="evenodd" d="M29.3726 30.796L23.5575 27.9849L20.364 33.5156C20.3074 33.6136 20.2802 33.7259 20.2859 33.839C20.2915 33.9521 20.3297 34.0612 20.3958 34.1531C20.4619 34.245 20.5531 34.3159 20.6585 34.3573C20.7639 34.3987 20.879 34.4087 20.99 34.3863L23.414 33.8964C23.5545 33.868 23.7004 33.8919 23.8246 33.9635C23.9487 34.0352 24.0424 34.1496 24.0881 34.2855L24.8767 36.6295C24.9127 36.7368 24.979 36.8314 25.0675 36.902C25.1561 36.9726 25.2631 37.0161 25.3757 37.0274C25.4884 37.0386 25.6019 37.0171 25.7026 36.9655C25.8034 36.9138 25.8871 36.8341 25.9436 36.736L29.3726 30.796ZM30.6276 30.796L36.4442 27.9849L39.6366 33.5157C39.6931 33.6137 39.7201 33.726 39.7145 33.8391C39.7088 33.9521 39.6706 34.0611 39.6045 34.153C39.5385 34.2449 39.4473 34.3158 39.3419 34.3572C39.2366 34.3985 39.1215 34.4086 39.0106 34.3863L36.5863 33.8964C36.4458 33.868 36.2998 33.8919 36.1757 33.9636C36.0515 34.0353 35.9579 34.1498 35.9122 34.2857L35.1248 36.6291C35.0887 36.7364 35.0225 36.8311 34.9339 36.9017C34.8454 36.9722 34.7384 37.0158 34.6257 37.0271C34.5131 37.0383 34.3996 37.0168 34.2988 36.9652C34.198 36.9135 34.1143 36.8339 34.0577 36.7358L30.6276 30.796Z" fill="#F76C82"/>
<path fill-rule="evenodd" clip-rule="evenodd" d="M30.0009 11.3311C35.7375 11.3311 40.3899 15.9834 40.3899 21.7201C40.3899 27.4584 35.7375 32.1107 30.0009 32.1107C24.2627 32.1107 19.6104 27.4584 19.6104 21.7201C19.6104 15.9834 24.2627 11.3311 30.0009 11.3311Z" fill="#FDCD56"/>
<path fill-rule="evenodd" clip-rule="evenodd" d="M30.0003 28.5589C33.7663 28.5589 36.8386 25.4875 36.8386 21.7207C36.8386 17.9547 33.7663 14.8833 30.0003 14.8833C26.2343 14.8833 23.1621 17.9547 23.1621 21.7207C23.1621 25.4875 26.2343 28.5589 30.0003 28.5589Z" fill="#F5B945"/>
<path fill-rule="evenodd" clip-rule="evenodd" d="M13.2452 39.0526L2.94141 39.0526C2.41097 39.0526 1.90227 38.8418 1.52719 38.4668C1.15212 38.0917 0.941408 37.583 0.941408 37.0526L0.941408 22.0749C0.941408 21.5445 1.15212 21.0358 1.52719 20.6607C1.90227 20.2856 2.41098 20.0749 2.94141 20.0749L13.2452 20.0749L13.2452 1.76445C13.2452 1.54603 13.3319 1.33657 13.4864 1.18212C13.6408 1.02768 13.8503 0.940918 14.0687 0.940918L45.9318 0.940918C46.1502 0.940918 46.3596 1.02768 46.5141 1.18212C46.6685 1.33657 46.7553 1.54603 46.7553 1.76445L46.7553 20.0749L57.0591 20.0749C57.5895 20.0749 58.0982 20.2856 58.4733 20.6607C58.8483 21.0358 59.0591 21.5445 59.0591 22.0749L59.0591 37.0526C59.059 37.583 58.8482 38.0916 58.4732 38.4667C58.0981 38.8417 57.5895 39.0525 57.0591 39.0526L46.7553 39.0526L46.7553 58.235C46.7553 58.4534 46.6685 58.6629 46.5141 58.8174C46.3596 58.9718 46.1502 59.0586 45.9318 59.0586L14.0687 59.0586C13.8503 59.0586 13.6408 58.9718 13.4864 58.8174C13.3319 58.6629 13.2452 58.4534 13.2452 58.235L13.2452 39.0526ZM18.7869 21.722L2.94141 21.722C2.8478 21.722 2.75803 21.7592 2.69184 21.8254C2.62565 21.8915 2.58847 21.9813 2.58847 22.0749L2.58847 37.0526C2.58847 37.1462 2.62565 37.2359 2.69184 37.3021C2.75803 37.3683 2.8478 37.4055 2.94141 37.4055L13.2452 37.4055L13.2452 32.2022L9.39011 32.2022C9.1717 32.2022 8.96223 32.1154 8.80779 31.961C8.65335 31.8066 8.56658 31.5971 8.56658 31.3787L8.56658 27.7487C8.56658 27.5303 8.65335 27.3208 8.80779 27.1664C8.96223 27.0119 9.1717 26.9252 9.39011 26.9252L20.0655 26.9252C19.2492 25.3701 18.7872 23.6 18.7869 21.722ZM45.1082 20.0749L45.1082 2.58798L14.8922 2.58798L14.8922 20.0749L18.9068 20.0749C19.7032 14.6633 24.3671 10.5079 30.0011 10.5079C35.6334 10.5079 40.2973 14.6633 41.0936 20.0749L45.1082 20.0749ZM46.7553 37.4055L57.0591 37.4055C57.1527 37.4055 57.2424 37.3683 57.3086 37.3021C57.3748 37.2359 57.412 37.1462 57.412 37.0526L57.412 22.0749C57.412 21.9813 57.3748 21.8915 57.3086 21.8254C57.2424 21.7592 57.1527 21.722 57.0591 21.722L41.2135 21.722C41.2133 23.6 40.7513 25.3701 39.9351 26.9252L50.6103 26.9252C50.8288 26.9252 51.0382 27.0119 51.1927 27.1664C51.3471 27.3208 51.4339 27.5303 51.4339 27.7487L51.4339 31.3787C51.4339 31.5971 51.3471 31.8066 51.1927 31.961C51.0382 32.1154 50.8288 32.2022 50.6103 32.2022L46.7553 32.2022L46.7553 37.4055ZM14.8922 28.5722L14.8922 54.1873L21.1554 47.3379C21.2325 47.2534 21.3264 47.186 21.431 47.1399C21.5357 47.0938 21.6488 47.0699 21.7631 47.0699C21.8775 47.0699 21.9906 47.0938 22.0952 47.1399C22.1998 47.186 22.2937 47.2534 22.3708 47.3379L26.6929 52.0644L35.8202 41.865C35.8975 41.7787 35.9921 41.7097 36.0978 41.6624C36.2035 41.6152 36.3181 41.5907 36.4339 41.5907C36.5497 41.5907 36.6642 41.6152 36.77 41.6624C36.8757 41.7097 36.9703 41.7787 37.0475 41.865L45.1082 50.8724L45.1082 28.5722L38.8774 28.5722C38.663 28.8497 38.4357 29.117 38.1963 29.3733L41.0014 34.2332C41.0807 34.3704 41.1186 34.5276 41.1107 34.6859C41.1028 34.8443 41.0494 34.9969 40.9569 35.1256C40.8644 35.2543 40.7366 35.3535 40.5891 35.4114C40.4415 35.4693 40.2804 35.4834 40.1251 35.452L36.6269 34.745L35.4903 38.1272C35.4399 38.2774 35.3471 38.4099 35.2232 38.5088C35.0993 38.6076 34.9495 38.6686 34.7918 38.6844C34.634 38.7002 34.4751 38.6701 34.3341 38.5978C34.193 38.5255 34.0758 38.414 33.9966 38.2767L30.8914 32.8996C30.2983 32.9461 29.7025 32.9461 29.1094 32.8996L26.0055 38.2766C25.9263 38.4138 25.8091 38.5252 25.6681 38.5975C25.5271 38.6698 25.3682 38.6999 25.2105 38.6842C25.0529 38.6684 24.9031 38.6075 24.7791 38.5088C24.6552 38.4101 24.5623 38.2777 24.5118 38.1275L23.3739 34.745L19.8754 35.452C19.72 35.4834 19.5589 35.4692 19.4114 35.4113C19.2638 35.3534 19.1361 35.2541 19.0436 35.1254C18.9511 34.9967 18.8977 34.844 18.8898 34.6857C18.8819 34.5274 18.9199 34.3702 18.9992 34.2329L21.8048 29.3739C21.5652 29.1174 21.3378 28.8499 21.1232 28.5722L14.8922 28.5722ZM14.8922 56.628L14.8922 57.4115L29.3505 57.4115L21.7632 49.114L14.8922 56.628ZM31.5823 57.4115L45.1082 57.4115L45.1082 53.3423L36.4339 43.6491L27.81 53.286L31.5823 57.4115ZM13.2452 28.5722L10.2136 28.5722L10.2136 30.5552L13.2452 30.5552L13.2452 28.5722ZM36.9551 30.5174C35.6846 31.5246 34.2101 32.2433 32.634 32.6235L34.5104 35.8728L35.2971 33.5316C35.361 33.3414 35.4921 33.1811 35.6659 33.0807C35.8397 32.9804 36.0441 32.9469 36.2408 32.9867L38.6628 33.4761L36.9551 30.5174ZM27.3671 32.6234C25.7911 32.2433 24.3167 31.5248 23.0462 30.5177L21.3381 33.4761L23.7596 32.9867C23.9563 32.9469 24.1606 32.9803 24.3344 33.0806C24.5081 33.1809 24.6393 33.3411 24.7033 33.5313L25.4912 35.8732L27.3671 32.6234ZM46.7553 30.5552L49.7868 30.5552L49.7868 28.5722L46.7553 28.5722L46.7553 30.5552ZM9.1787 23.3217C9.73164 23.3217 10.1806 23.7707 10.1806 24.3236C10.1806 24.8766 9.73164 25.3254 9.1787 25.3254C8.62576 25.3254 8.17694 24.8766 8.17694 24.3236C8.17694 23.7707 8.62576 23.3217 9.1787 23.3217ZM5.74129 23.3217C6.29423 23.3217 6.74306 23.7707 6.74306 24.3236C6.74306 24.8766 6.29423 25.3254 5.74129 25.3254C5.18835 25.3254 4.73941 24.8766 4.73941 24.3236C4.73941 23.7707 5.18835 23.3217 5.74129 23.3217ZM19.6105 8.15386C19.1559 8.15386 18.7869 7.78492 18.7869 7.33033C18.7869 6.87586 19.1559 6.5068 19.6105 6.5068L40.39 6.5068C40.8446 6.5068 41.2135 6.87586 41.2135 7.33033C41.2135 7.78492 40.8446 8.15386 40.39 8.15386L19.6105 8.15386ZM30.0011 12.1549C24.7176 12.1549 20.434 16.4384 20.434 21.7204C20.434 27.0039 24.7175 31.2875 30.0011 31.2875C35.2829 31.2875 39.5665 27.0039 39.5665 21.7204C39.5665 16.4384 35.2829 12.1549 30.0011 12.1549ZM30.0002 29.3826C25.7807 29.3826 22.3385 25.9413 22.3385 21.7208C22.3385 17.5013 25.7807 14.0599 30.0002 14.0599C34.2198 14.0599 37.662 17.5013 37.662 21.7208C37.662 25.9413 34.2198 29.3826 30.0002 29.3826ZM30.0002 27.7355C33.3127 27.7355 36.0149 25.034 36.0149 21.7208C36.0149 18.4083 33.3127 15.7069 30.0002 15.7069C26.6878 15.7069 23.9855 18.4083 23.9855 21.7208C23.9855 25.034 26.6878 27.7355 30.0002 27.7355ZM33.1599 18.8742C33.3295 18.7366 33.5468 18.672 33.764 18.6945C33.9812 18.717 34.1806 18.8249 34.3184 18.9943C34.4559 19.1639 34.5205 19.3812 34.498 19.5984C34.4754 19.8157 34.3676 20.0151 34.1981 20.1528L28.762 24.5674C28.6732 24.6395 28.5703 24.6924 28.4599 24.7225C28.3495 24.7526 28.234 24.7594 28.1208 24.7424C28.0076 24.7255 27.8992 24.6852 27.8025 24.624C27.7058 24.5628 27.6229 24.4822 27.5592 24.3872L25.6378 21.5257C25.5161 21.3444 25.4714 21.1221 25.5136 20.9079C25.5557 20.6936 25.6811 20.5048 25.8624 20.3829C26.0437 20.2613 26.266 20.2166 26.4802 20.2587C26.6945 20.3008 26.8833 20.4263 27.0052 20.6075L28.4238 22.7202L33.1599 18.8742ZM26.6995 40.4317C28.5366 40.4317 30.0281 41.9233 30.0281 43.7604C30.0281 45.5975 28.5366 47.089 26.6995 47.089C24.8623 47.089 23.3708 45.5975 23.3708 43.7604C23.3708 41.9233 24.8623 40.4317 26.6995 40.4317ZM26.6995 42.0788C25.7714 42.0788 25.0179 42.8323 25.0179 43.7604C25.0179 44.6886 25.7714 45.442 26.6995 45.442C27.6275 45.442 28.3811 44.6886 28.3811 43.7604C28.3811 42.8323 27.6275 42.0788 26.6995 42.0788Z" fill="black"/>
</svg>
