<svg width="65" height="65" viewBox="0 0 65 65" fill="none" xmlns="http://www.w3.org/2000/svg">
<g clip-path="url(#clip0_23002_1290)">
<path d="M54.0914 30.0341L9.15773 30.0341C8.14616 30.0341 7.32617 29.1988 7.32617 28.1683L7.32617 8.35715C7.32617 6.00547 9.20432 4.09229 11.5127 4.09229L51.7364 4.09229C54.0449 4.09229 55.9229 6.00547 55.9229 8.35715L55.9229 28.1683C55.9229 29.1988 55.103 30.0341 54.0914 30.0341Z" fill="#00347B"/>
<path d="M44.4151 45.5128L4.18171 45.5128C1.87586 45.5128 7.99101e-07 43.6018 8.56056e-07 41.253L1.47289e-06 15.8154C1.52985e-06 13.4666 1.87586 11.5557 4.18171 11.5557L44.4152 11.5557C46.7209 11.5557 48.5969 13.4667 48.5969 15.8154L48.5969 41.2529C48.5968 43.6018 46.7208 45.5128 44.4151 45.5128Z" fill="#FFE277"/>
<path d="M44.4148 11.5557L24.417 11.5557L24.417 45.5128L44.4148 45.5128C46.7205 45.5128 48.5965 43.6019 48.5965 41.253L48.5965 15.8154C48.5965 13.4666 46.7205 11.5557 44.4148 11.5557Z" fill="#FFCB00"/>
<path d="M1.57619e-06 19.0103L48.5968 19.0103L48.5968 27.4063L1.37259e-06 27.4063L1.57619e-06 19.0103Z" fill="#FFF3F3"/>
<path d="M24.417 19.0103L48.5964 19.0103L48.5964 27.4063L24.417 27.4063L24.417 19.0103Z" fill="#E9DFDA"/>
<path d="M48.5436 60.9078C48.1291 60.908 47.7259 60.7728 47.3953 60.5226L37.1807 52.8012C33.8394 50.2754 32.0732 46.1391 32.0732 40.8398L32.0732 29.0385C32.0732 28.2904 32.5114 27.6116 33.193 27.3033L47.7523 20.7203C47.9989 20.6089 48.2664 20.5512 48.537 20.5513C48.8076 20.5513 49.075 20.609 49.3216 20.7204L63.8808 27.3055C64.2145 27.4564 64.4976 27.7004 64.6962 28.0081C64.8947 28.3159 65.0003 28.6743 65.0003 29.0406L65.0003 40.844C65.0003 46.1403 63.2362 50.2745 59.8984 52.8001L49.6926 60.5223C49.3619 60.7726 48.9584 60.908 48.5436 60.9078Z" fill="#00ECCF"/>
<path d="M63.8802 27.3055L49.321 20.7205C49.0937 20.6184 48.8486 20.5621 48.5996 20.5547L48.5996 60.9059C48.9948 60.8948 49.3767 60.7607 49.692 60.5223L59.8979 52.8002C63.2355 50.2745 64.9997 46.1402 64.9997 40.8441L64.9997 29.0406C64.9997 28.6744 64.8941 28.3159 64.6955 28.0082C64.497 27.7004 64.2139 27.4565 63.8802 27.3055Z" fill="#00CAB1"/>
<path d="M46.8975 47.1843C46.5368 47.1849 46.1795 47.114 45.8462 46.976C45.5129 46.8379 45.2102 46.6353 44.9555 46.3798L40.6443 42.0686C39.5717 40.9961 39.5717 39.2571 40.6443 38.1846C41.7168 37.1121 43.4558 37.1121 44.5283 38.1846L46.8975 40.5538L53.964 33.4876C55.0366 32.4151 56.7757 32.4147 57.848 33.4876C58.9206 34.5601 58.9205 36.2991 57.848 37.3716L48.8395 46.38C48.5848 46.6354 48.2821 46.8379 47.9488 46.976C47.6155 47.114 47.2583 47.1848 46.8975 47.1843Z" fill="#FFF3F3"/>
<path d="M57.8475 33.4876C56.7751 32.4147 55.0361 32.4151 53.9635 33.4876L48.5996 38.8514L48.5996 46.5912C48.6834 46.5254 48.7634 46.4549 48.8392 46.38L57.8476 37.3716C58.9199 36.2991 58.9201 34.5601 57.8475 33.4876Z" fill="#E9DFDA"/>
</g>
<defs>
<clipPath id="clip0_23002_1290">
<rect width="65" height="65" fill="white"/>
</clipPath>
</defs>
</svg>
