<svg width="68" height="68" viewBox="0 0 68 68" fill="none" xmlns="http://www.w3.org/2000/svg">
<path d="M46.4228 43.7584L46.4228 48.3462L21.5723 48.3462L21.5723 43.7584C21.574 42.5815 21.937 41.4334 22.6121 40.4694C23.2873 39.5053 24.2421 38.7718 25.3476 38.3678L32.086 35.9209L35.9091 35.9209L42.6474 38.3678C43.7528 38.7718 44.7077 39.5053 45.3829 40.4693C46.0581 41.4334 46.4211 42.5815 46.4228 43.7584Z" fill="#FFE589"/>
<path d="M46.4228 46.4347L46.4228 48.3462L21.5723 48.3462L21.5723 43.7585C21.5728 42.774 21.8273 41.8064 22.3113 40.9491C22.7952 40.0918 23.4922 39.3739 24.3348 38.8647C23.7784 39.7599 23.4837 40.7929 23.4841 41.8469C23.4843 42.4492 23.6034 43.0455 23.8347 43.6016C24.066 44.1578 24.4048 44.6627 24.8317 45.0875C25.506 45.7583 26.3702 46.2054 27.3072 46.3683C27.5594 46.4145 27.8155 46.4367 28.0718 46.4347L46.4228 46.4347Z" fill="#FFDD65"/>
<path d="M35.9091 34.0093L35.9091 37.8324C35.9091 38.3394 35.7077 38.8256 35.3492 39.1841C34.9907 39.5426 34.5045 39.744 33.9975 39.744C33.4905 39.744 33.0043 39.5426 32.6458 39.1841C32.2873 38.8256 32.0859 38.3394 32.0859 37.8324L32.0859 34.0093L35.9091 34.0093Z" fill="#FFBEAD"/>
<path d="M28.1012 32.0116C27.8407 32.069 27.5747 32.0979 27.308 32.0976C27.2281 32.0992 27.1483 32.096 27.0689 32.0881C26.1609 32.0319 25.3028 31.6536 24.6488 31.0212C23.9949 30.3888 23.5881 29.5438 23.5017 28.6382C23.4152 27.7326 23.6548 26.8259 24.1772 26.0812C24.6997 25.3364 25.4707 24.8026 26.3517 24.5757C26.6632 24.4902 26.985 24.4484 27.308 24.4514L28.1012 32.0116ZM44.5122 28.2745C44.5122 29.2468 44.1414 30.1826 43.4755 30.891C42.8095 31.5995 41.8985 32.0274 40.928 32.0875C40.8486 32.0955 40.7688 32.0987 40.6889 32.0971C40.4221 32.0974 40.1561 32.0685 39.8955 32.011L40.6891 24.4508C41.012 24.4479 41.3339 24.4897 41.6453 24.5751C42.4662 24.7858 43.1936 25.2637 43.7127 25.9336C44.2318 26.6034 44.5131 27.427 44.5122 28.2745Z" fill="#7C737D"/>
<path d="M43.556 28.7609C43.3023 28.7609 43.0591 28.6601 42.8798 28.4808C42.7004 28.3014 42.5997 28.0582 42.5997 27.8046L42.5997 23.4956C42.5997 21.2142 41.6934 19.0262 40.0802 17.413C38.467 15.7998 36.279 14.8935 33.9976 14.8935C31.7161 14.8935 29.5282 15.7998 27.9149 17.413C26.3017 19.0262 25.3954 21.2142 25.3954 23.4956L25.3954 27.805C25.3994 27.933 25.3777 28.0605 25.3314 28.18C25.2852 28.2994 25.2154 28.4084 25.1263 28.5004C25.0371 28.5923 24.9304 28.6655 24.8125 28.7154C24.6945 28.7653 24.5677 28.7911 24.4396 28.7911C24.3116 28.7911 24.1848 28.7653 24.0668 28.7154C23.9489 28.6655 23.8422 28.5923 23.753 28.5004C23.6639 28.4084 23.5941 28.2994 23.5479 28.18C23.5016 28.0605 23.4799 27.933 23.4839 27.805L23.4839 23.4956C23.4839 20.7072 24.5916 18.033 26.5633 16.0613C28.535 14.0896 31.2092 12.9819 33.9976 12.9819C36.786 12.9819 39.4602 14.0896 41.4319 16.0613C43.4036 18.033 44.5113 20.7072 44.5113 23.4956L44.5113 27.805C44.5112 28.0584 44.4105 28.3014 44.2314 28.4806C44.0523 28.6598 43.8093 28.7606 43.556 28.7609Z" fill="#7C737D"/>
<path d="M40.6878 24.4508L36.8646 24.4508L35.9084 22.5392L34.9521 24.4508L27.3066 24.4508C27.3066 22.6764 28.0115 20.9746 29.2663 19.7199C30.521 18.4652 32.2228 17.7603 33.9972 17.7603C35.7717 17.7603 37.4734 18.4652 38.7281 19.7199C39.9829 20.9746 40.6878 22.6764 40.6878 24.4508Z" fill="#F16069"/>
<path d="M29.7444 19.3053C28.3823 20.9787 29.6717 23.4955 31.8296 23.4955L35.4309 23.4955L34.9528 24.4517L27.3067 24.4517C27.3041 23.4588 27.5243 22.4779 27.9511 21.5812C28.3779 20.6846 29.0003 19.8952 29.7726 19.271L29.7444 19.3053Z" fill="#EE3F4A"/>
<path d="M36.3779 23.4858L36.3878 23.4957L36.3779 23.4957L36.3779 23.4858Z" fill="#F16069"/>
<path d="M40.688 24.4509L36.8648 24.4509L36.3867 23.4946L40.6114 23.4946C40.6661 23.8104 40.6918 24.1305 40.688 24.4509Z" fill="#EE3F4A"/>
<path d="M35.9091 34.0093L35.9091 36.7237C35.2777 36.8311 34.638 36.8823 33.9975 36.8767C33.3575 36.8801 32.7183 36.8322 32.0859 36.7333L32.0859 34.0093L35.9091 34.0093Z" fill="#FFB09C"/>
<path d="M27.3068 24.4508L28.1001 32.011C27.8396 32.0685 27.5736 32.0974 27.3068 32.0971C27.227 32.0987 27.1472 32.0955 27.0678 32.0875C26.6434 31.1913 26.3997 30.2202 26.3506 29.2298L26.3506 24.5757C26.662 24.49 26.9838 24.448 27.3068 24.4508ZM41.6437 24.5757L41.6437 29.2303C41.625 29.8436 41.5222 30.4513 41.3382 31.0366C41.3097 31.1322 41.2808 31.1991 41.2617 31.266C41.17 31.5476 41.0583 31.8223 40.9273 32.0879C40.8479 32.0959 40.768 32.0991 40.6882 32.0975C40.4214 32.0978 40.1554 32.0689 39.8948 32.0114L40.688 24.4508C41.0108 24.4481 41.3324 24.4901 41.6437 24.5757Z" fill="#6A626A"/>
<path d="M40.6878 24.4506L40.6878 29.2296C40.668 29.7491 40.578 30.2635 40.42 30.7588C40.4053 30.8144 40.3862 30.8687 40.3628 30.9213C39.8275 32.613 38.2886 34.9643 33.9972 34.9643C27.3066 34.9643 27.3066 29.2296 27.3066 29.2296L27.3066 24.4506L34.9529 24.4506L35.9092 22.5391L36.8654 24.4506L40.6878 24.4506Z" fill="#FFD8CA"/>
<path d="M36.8646 24.4506L35.9084 22.5391L34.9521 24.4506L27.3066 24.4506L27.3066 29.2296C27.3066 29.2296 27.3066 33.3967 31.4452 34.6202C29.2181 32.9385 29.2181 30.1859 29.2181 30.1859C29.2181 29.5583 29.3417 28.9368 29.5819 28.357C29.822 27.7772 30.1741 27.2503 30.6179 26.8066C31.0616 26.3628 31.5885 26.0108 32.1683 25.7706C32.7482 25.5305 33.3696 25.4069 33.9972 25.4069L40.6878 25.4069L40.6878 24.4506L36.8646 24.4506Z" fill="#FFCAB8"/>
<path d="M40.6884 28.6089L40.6884 29.2302C40.6686 29.7497 40.5786 30.2641 40.4206 30.7594C40.4059 30.815 40.3868 30.8693 40.3634 30.9218C38.3181 31.7629 35.861 32.021 35.097 32.0975L35.0013 32.0975C34.7564 32.1013 34.5186 32.0147 34.3335 31.8542C34.1483 31.6938 34.0288 31.4707 33.9978 31.2277C33.9825 30.9681 34.0704 30.7131 34.2422 30.518C34.4141 30.3229 34.656 30.2035 34.9154 30.1859C36.9129 30.0139 39.4553 29.4213 40.6884 28.6089Z" fill="#575157"/>
<path d="M27.3075 43.5671L27.3075 48.346L25.396 48.346L25.396 43.5671C25.392 43.4391 25.4137 43.3116 25.46 43.1921C25.5062 43.0727 25.576 42.9637 25.6651 42.8718C25.7543 42.7798 25.861 42.7067 25.9789 42.6567C26.0969 42.6068 26.2237 42.5811 26.3518 42.5811C26.4798 42.5811 26.6066 42.6068 26.7246 42.6567C26.8425 42.7067 26.9492 42.7798 27.0384 42.8718C27.1275 42.9637 27.1973 43.0727 27.2435 43.1921C27.2898 43.3116 27.3115 43.4391 27.3075 43.5671ZM42.6002 43.5671L42.6002 48.346L40.6887 48.346L40.6887 43.5671C40.6847 43.4391 40.7064 43.3116 40.7527 43.1921C40.7989 43.0727 40.8687 42.9637 40.9578 42.8718C41.047 42.7798 41.1537 42.7067 41.2716 42.6567C41.3896 42.6068 41.5164 42.5811 41.6445 42.5811C41.7725 42.5811 41.8993 42.6068 42.0173 42.6567C42.1352 42.7067 42.2419 42.7798 42.3311 42.8718C42.4202 42.9637 42.49 43.0727 42.5362 43.1921C42.5825 43.3116 42.6042 43.4391 42.6002 43.5671Z" fill="#FED673"/>
<path d="M27.3071 46.3673L27.3071 48.3462L25.3955 48.3462L25.3955 45.5645C25.9613 45.9776 26.6159 46.2526 27.3071 46.3673ZM40.6882 46.4342L42.5998 46.4342L42.5998 48.3458L40.6882 48.3458L40.6882 46.4342Z" fill="#FECC50"/>
<path d="M31.2387 57.9559L26.3973 54.7298C26.1142 54.5412 25.7745 54.4564 25.4359 54.49C25.0974 54.5235 24.781 54.6733 24.5404 54.9139L23.8324 55.622C23.8324 55.622 21.2306 58.2237 15.5066 52.4997C9.78269 46.7758 12.3846 44.1743 12.3846 44.1743L13.0928 43.4661C13.3333 43.2255 13.4831 42.9091 13.5166 42.5706C13.5501 42.232 13.4654 41.8923 13.2767 41.6092L10.0506 36.7678C9.89336 36.4235 9.60793 36.1543 9.25509 36.0173C8.90225 35.8804 8.50988 35.8866 8.16158 36.0347C7.2133 36.4243 6.12198 36.9077 4.57936 38.4503C0.906295 42.1234 6.6608 51.9795 11.3439 56.6626C16.027 61.3457 25.8831 67.1004 29.5562 63.4273C31.099 61.8845 31.5824 60.7932 31.9718 59.8451C32.1199 59.4967 32.1261 59.1044 31.9892 58.7515C31.8522 58.3987 31.583 58.1132 31.2387 57.9559Z" fill="#7C737D"/>
<path d="M30.7389 62.0713C30.3775 62.552 29.9814 63.0056 29.5537 63.4285C25.8834 67.0988 16.0292 61.3449 11.3459 56.6616C6.6625 51.9782 0.908664 42.124 4.57894 38.4538C5.0018 38.0261 5.45542 37.63 5.93615 37.2686C3.50834 41.369 8.85125 50.3438 13.2574 54.75C17.6636 59.1562 26.6386 64.499 30.7389 62.0713Z" fill="#6A626A"/>
<path d="M9.14783 31.142C8.96576 31.1421 8.78744 31.0902 8.63387 30.9924C8.48031 30.8946 8.35791 30.7549 8.28109 30.5899L5.857 25.3922C5.76036 25.1641 5.75603 24.9074 5.84493 24.6761C5.93382 24.4449 6.109 24.2571 6.33356 24.1525C6.55813 24.0478 6.81454 24.0344 7.0488 24.1151C7.28306 24.1957 7.47687 24.3642 7.58941 24.5849L9.60922 28.9158L13.9406 26.897C14.0551 26.8384 14.1801 26.8035 14.3084 26.7943C14.4366 26.7852 14.5654 26.802 14.687 26.8437C14.8086 26.8854 14.9205 26.9513 15.0161 27.0373C15.1117 27.1233 15.1889 27.2277 15.2432 27.3442C15.2975 27.4607 15.3278 27.587 15.3322 27.7155C15.3366 27.844 15.315 27.972 15.2688 28.092C15.2226 28.212 15.1526 28.3214 15.0631 28.4137C14.9736 28.506 14.8665 28.5793 14.748 28.6293L9.55105 31.0523C9.42487 31.1115 9.28719 31.1421 9.14783 31.142Z" fill="#F16069"/>
<path d="M61.2724 43.9858C61.0903 43.986 60.912 43.9341 60.7585 43.8363C60.6049 43.7384 60.4825 43.5988 60.4058 43.4337L58.3858 39.1027L54.0547 41.1221C53.8265 41.219 53.5696 41.2235 53.3382 41.1347C53.1068 41.0459 52.9189 40.8706 52.8141 40.6459C52.7094 40.4213 52.696 40.1647 52.7768 39.9303C52.8576 39.696 53.0262 39.5021 53.2472 39.3897L58.4448 36.9663C58.5585 36.9131 58.6816 36.8829 58.807 36.8774C58.9324 36.8719 59.0577 36.8911 59.1757 36.9341C59.2936 36.977 59.402 37.0428 59.4945 37.1277C59.587 37.2126 59.6618 37.3149 59.7147 37.4287L62.1382 42.6263C62.2059 42.772 62.2358 42.9323 62.2253 43.0925C62.2147 43.2527 62.1639 43.4077 62.0777 43.5432C61.9914 43.6786 61.8725 43.7902 61.7317 43.8675C61.591 43.9449 61.4331 43.9856 61.2725 43.9858L61.2724 43.9858Z" fill="#1FBD92"/>
<path d="M9.43537 31.1808C9.38645 31.181 9.33759 31.1773 9.28928 31.1696C9.0387 31.1313 8.81359 30.9951 8.66342 30.7908C8.51324 30.5866 8.4503 30.3311 8.48842 30.0805C9.30129 24.6543 11.8317 19.6314 15.7084 15.7487C19.5851 11.866 24.6041 9.32776 30.029 8.50647C30.276 8.47548 30.5253 8.54198 30.724 8.69186C30.9226 8.84173 31.0551 9.06317 31.0931 9.30912C31.1312 9.55508 31.0718 9.80618 30.9277 10.0091C30.7835 10.212 30.566 10.3507 30.3212 10.3957C20.1358 11.9684 11.9354 20.1823 10.379 30.3693C10.3444 30.5949 10.2303 30.8007 10.0573 30.9495C9.88421 31.0984 9.66362 31.1804 9.43537 31.1808Z" fill="#F16069"/>
<path d="M37.8196 59.5231C37.5797 59.5214 37.3492 59.4296 37.1739 59.266C36.9985 59.1023 36.8911 58.8787 36.8729 58.6395C36.8547 58.4003 36.927 58.163 37.0756 57.9747C37.2242 57.7863 37.4381 57.6607 37.675 57.6227C42.665 56.8625 47.2839 54.535 50.8638 50.9765C54.4437 47.4181 56.7991 42.8133 57.5893 37.828C57.6055 37.7008 57.6471 37.5782 57.7117 37.4674C57.7762 37.3567 57.8624 37.26 57.965 37.1832C58.0677 37.1064 58.1847 37.0511 58.3092 37.0204C58.4337 36.9898 58.563 36.9845 58.6896 37.0048C58.8162 37.0251 58.9374 37.0707 59.046 37.1388C59.1545 37.207 59.2483 37.2962 59.3218 37.4013C59.3952 37.5064 59.4467 37.6252 59.4733 37.7506C59.4999 37.876 59.501 38.0055 59.4765 38.1313C58.6232 43.516 56.0792 48.4898 52.2125 52.3333C48.3459 56.1769 43.3569 58.6909 37.9672 59.512C37.9183 59.5194 37.869 59.5231 37.8196 59.5231Z" fill="#1FBD92"/>
<path d="M55.0249 3.42383C53.0195 3.42197 51.0645 4.05148 49.437 5.22308C47.8095 6.39469 46.5921 8.04892 45.9575 9.95122C45.3229 11.8535 45.3033 13.9073 45.9015 15.8214C46.4996 17.7354 47.6852 19.4126 49.29 20.6151L49.29 24.4507L52.3534 22.153C53.6679 22.5366 55.0495 22.6331 56.4046 22.4362C57.7597 22.2392 59.0566 21.7532 60.2075 21.0113C61.3584 20.2693 62.3365 19.2887 63.0753 18.1358C63.8142 16.9829 64.2966 15.6847 64.49 14.3291C64.6834 12.9735 64.5831 11.5921 64.1961 10.2786C63.809 8.96512 63.1442 7.75015 62.2466 6.71601C61.349 5.68187 60.2397 4.85271 58.9937 4.2847C57.7477 3.7167 56.3942 3.42311 55.0249 3.42383Z" fill="#F16069"/>
<path d="M51.2014 20.6185L51.2014 23.0175L49.2899 24.4519L49.2899 20.6185C47.6851 19.4157 46.4996 17.7383 45.9015 15.8241C45.3034 13.9098 45.3229 11.8559 45.9575 9.9534C46.592 8.05091 47.8093 6.39642 49.4367 5.22445C51.0641 4.05248 53.0192 3.42251 55.0247 3.42383C55.3401 3.42383 55.6554 3.44296 55.9613 3.47164C54.0489 3.66673 52.2399 4.43425 50.7707 5.67386C49.3015 6.91347 48.2405 8.5675 47.7263 10.4198C47.2121 12.272 47.2687 14.2363 47.8887 16.0559C48.5087 17.8754 49.6633 19.4656 51.2014 20.6185Z" fill="#EE3F4A"/>
<path d="M60.76 13.0422L60.76 15.8476C60.76 16.1016 60.659 16.3453 60.4794 16.5249C60.2997 16.7046 60.0561 16.8055 59.802 16.8056L50.2463 16.8056C49.9927 16.8056 49.7494 16.7048 49.5701 16.5255C49.3908 16.3461 49.29 16.1029 49.29 15.8493L49.29 12.9819C49.29 9.39368 52.0832 6.87689 55.8216 7.29179C58.6774 7.60882 60.76 10.1688 60.76 13.0422Z" fill="#FECC50"/>
<path d="M51.202 15.8494C51.2027 16.1028 51.3037 16.3456 51.4828 16.5248C51.662 16.704 51.9049 16.805 52.1583 16.8056L50.2463 16.8056C49.9929 16.805 49.7501 16.704 49.5709 16.5248C49.3917 16.3456 49.2907 16.1028 49.2901 15.8494L49.2901 12.9821C49.2894 12.7134 49.3086 12.445 49.3474 12.1791C49.7202 9.02508 52.3677 6.90327 55.8182 7.29506C55.8764 7.29992 55.9342 7.30952 55.9908 7.32375C53.1999 7.71568 51.2597 9.91359 51.2119 12.8578C51.2039 12.8987 51.2007 12.9404 51.2023 12.9821L51.202 15.8494Z" fill="#FEC22D"/>
<path d="M23.4808 23.4831L23.4808 25.4244C21.0152 28.4672 23.6692 33.4636 27.6137 33.0088C28.376 34.1126 29.4715 34.9436 30.74 35.3801L25.0175 37.4607C23.7283 37.9324 22.6148 38.7882 21.8273 39.9126C21.0397 41.0369 20.616 42.3758 20.6133 43.7486L20.6133 48.3343C20.6133 48.5879 20.714 48.8312 20.8934 49.0105C21.0727 49.1898 21.3159 49.2906 21.5695 49.2906L46.4201 49.2906C46.6737 49.2906 46.9169 49.1898 47.0963 49.0105C47.2756 48.8312 47.3763 48.5879 47.3763 48.3343L47.3763 43.7486C47.3735 42.376 46.9497 41.0373 46.1623 39.9131C45.3749 38.7889 44.2616 37.9332 42.9727 37.4614L37.2498 35.3807C38.5183 34.9443 39.6139 34.1133 40.3762 33.0095C44.3207 33.4646 46.9746 28.4673 44.509 25.4251C45.1516 18.8165 40.8408 13.0628 33.9952 12.9702C31.2078 12.9732 28.5353 14.0817 26.5642 16.0525C24.5931 18.0234 23.4842 20.6957 23.4808 23.4831ZM24.4371 28.2626C24.4389 27.6716 24.6236 27.0956 24.9659 26.6137C25.3082 26.1319 25.7913 25.7678 26.3488 25.5715C26.4342 27.3162 26.0945 29.0777 26.6794 31.0566C26.044 30.9144 25.476 30.5604 25.0685 30.0527C24.661 29.5449 24.4383 28.9137 24.4371 28.2626ZM34.36 23.4837L28.346 23.4837C29.4545 17.1751 38.5363 17.1794 39.6428 23.4837L37.4527 23.4837L36.7609 22.1001C36.4371 21.4524 35.3749 21.4524 35.0509 22.1001L34.36 23.4837ZM34.9508 35.9089L34.9508 37.8205C34.9548 37.9485 34.933 38.076 34.8868 38.1955C34.8405 38.3149 34.7708 38.4239 34.6816 38.5159C34.5925 38.6078 34.4858 38.6809 34.3678 38.7309C34.2499 38.7808 34.1231 38.8066 33.995 38.8066C33.8669 38.8066 33.7401 38.7808 33.6222 38.7309C33.5042 38.6809 33.3975 38.6078 33.3084 38.5159C33.2192 38.4239 33.1495 38.3149 33.1032 38.1955C33.057 38.076 33.0352 37.9485 33.0392 37.8205L33.0392 35.9084L34.9508 35.9089ZM45.4638 43.7486L45.4638 47.3786L42.5965 47.3786L42.5965 43.5548C42.5894 43.3061 42.4855 43.0699 42.307 42.8965C42.1286 42.7232 41.8895 42.6262 41.6407 42.6262C41.3919 42.6262 41.1528 42.7232 40.9743 42.8965C40.7959 43.0699 40.692 43.3061 40.6848 43.5548L40.6848 47.3779L27.3038 47.3779L27.3038 43.5548C27.3078 43.4268 27.2861 43.2993 27.2398 43.1798C27.1936 43.0604 27.1238 42.9514 27.0347 42.8594C26.9455 42.7675 26.8388 42.6943 26.7209 42.6444C26.6029 42.5945 26.4761 42.5687 26.3481 42.5687C26.22 42.5687 26.0932 42.5945 25.9752 42.6444C25.8573 42.6943 25.7506 42.7675 25.6614 42.8594C25.5723 42.9514 25.5025 43.0604 25.4563 43.1798C25.41 43.2993 25.3883 43.4268 25.3923 43.5548L25.3923 47.3779L22.5246 47.3779L22.5246 43.7486C22.5268 42.7681 22.8296 41.8118 23.3921 41.0087C23.9547 40.2056 24.7499 39.5942 25.6706 39.2571L31.1267 37.2733C30.7707 41.7956 37.2187 41.7926 36.8614 37.2733L42.318 39.2571C43.2387 39.5943 44.0339 40.2056 44.5964 41.0087C45.1589 41.8118 45.4616 42.7681 45.4638 43.7486ZM33.9944 33.9975C31.0442 33.9975 29.6186 32.774 28.9227 31.5596C28.9001 31.5119 28.8734 31.4662 28.843 31.423C28.4854 30.7413 28.2859 29.9878 28.2593 29.2184L28.2593 25.3947L34.9497 25.3947C35.4055 25.4052 35.7501 25.0697 35.906 24.6649C36.0616 25.0697 36.4058 25.405 36.8622 25.3947L39.7297 25.3947L39.7297 28.2626C39.7297 29.7001 36.5095 30.1714 34.9497 30.1742C34.7014 30.1821 34.4659 30.2863 34.293 30.4648C34.1202 30.6433 34.0236 30.882 34.0238 31.1304C34.0239 31.3789 34.1207 31.6176 34.2937 31.7959C34.4667 31.9742 34.7023 32.0782 34.9507 32.0858C35.3397 32.0858 37.4445 32.0491 39.1914 31.3379C39.1764 31.3675 39.1588 31.397 39.143 31.4269C38.3986 32.7609 37.0455 33.9764 33.9944 33.9968L33.9944 33.9975ZM41.3101 31.0569C41.8945 29.0954 41.5561 27.2972 41.6407 25.5717C44.3224 26.4799 44.0801 30.471 41.3101 31.0562L41.3101 31.0569ZM42.5965 23.4838L42.5965 23.889C42.2733 23.747 41.9351 23.6418 41.5884 23.5752C40.4014 14.6045 27.5842 14.6103 26.4005 23.5752C26.0537 23.6418 25.7155 23.747 25.3923 23.889C25.3577 12.2174 42.1112 11.8355 42.5965 23.4831L42.5965 23.4838Z" fill="black"/>
<path d="M10.6654 57.3259C14.6166 61.0884 24.8564 68.7302 30.2287 64.0904C32.3404 61.8206 34.5044 58.8488 31.7095 57.1102L26.9251 53.9219C26.4576 53.6121 25.8975 53.473 25.3394 53.5283C24.7813 53.5836 24.2593 53.8297 23.8616 54.2252L23.1751 54.9132C23.1537 54.9327 21.0434 56.6753 16.1799 51.8115C11.3164 46.9476 13.0588 44.8388 13.0572 44.8388L13.7671 44.1295C14.162 43.7316 14.4077 43.2098 14.4628 42.652C14.5179 42.0941 14.379 41.5343 14.0695 41.0669L10.8811 36.2806C9.14482 33.4843 6.16849 35.6512 3.90111 37.7618C-0.580246 42.5522 6.47183 53.1383 10.6654 57.3259ZM5.25275 39.1133C6.48445 37.8887 8.75754 36.263 9.17802 37.1503C9.19924 37.1971 9.22425 37.242 9.25279 37.2847L12.4785 42.1253C12.5443 42.2247 12.574 42.3437 12.5624 42.4623C12.5508 42.5809 12.4988 42.692 12.4151 42.7768C11.5058 43.6446 8.26454 46.3691 14.8283 53.1627C21.1548 59.4891 24.3718 56.4166 24.5062 56.2849C24.8203 56.0256 25.3721 55.1427 25.8647 55.512L30.7057 58.7378C30.9999 58.8581 31.2318 59.1308 31.0846 59.4682C30.7553 60.271 30.3454 61.2696 28.8777 62.7378C25.9497 65.6678 16.7745 60.731 12.017 55.9736C8.92634 52.8672 1.92991 43.299 5.25275 39.1133ZM30.3174 10.3829C31.5518 10.1874 31.2589 8.3102 30.0252 8.49375C25.0276 9.25132 20.3654 11.469 16.6243 14.8681C12.8832 18.2672 10.2301 22.6961 8.99832 27.5984L7.58666 24.5714C7.05368 23.4445 5.33018 24.2431 5.85425 25.3797L8.27782 30.5777C8.35629 30.7496 8.48527 30.8936 8.6476 30.9905C8.80994 31.0873 8.99792 31.1325 9.18652 31.1198C9.56889 31.2719 10.0232 31.0534 10.2307 30.7214L14.7463 28.6158C15.8762 28.0824 15.0737 26.361 13.9379 26.8834L10.777 28.3576C13.0332 19.1096 20.808 11.8514 30.3174 10.3829ZM37.6721 57.6105C36.4355 57.8064 36.7328 59.6885 37.9643 59.4996C42.9599 58.7379 47.6198 56.5194 51.3604 53.1219C55.1011 49.7243 57.7562 45.2987 58.9935 40.3992L60.4029 43.4212C60.9405 44.5526 62.6587 43.7455 62.1352 42.6127L59.7112 37.4157C59.6039 37.1862 59.4099 37.0086 59.1718 36.922C58.9338 36.8354 58.671 36.8468 58.4414 36.9537L53.2443 39.3768C52.1154 39.9099 52.9148 41.6313 54.0517 41.109L57.2195 39.6324C56.1191 44.2335 53.6714 48.4019 50.1893 51.6044C46.7072 54.8069 42.3491 56.8981 37.6721 57.6105ZM55.0218 2.45569C45.2662 2.40961 40.76 14.917 48.3314 21.0655L48.3314 24.439C48.3316 24.6164 48.3812 24.7903 48.4745 24.9411C48.5679 25.092 48.7014 25.2139 48.8601 25.2933C49.0188 25.3726 49.1965 25.4062 49.3732 25.3903C49.5499 25.3745 49.7187 25.3098 49.8608 25.2034L52.5526 23.1847C59.0401 24.8448 65.6213 19.6679 65.5356 12.9697C65.5325 10.1822 64.4238 7.50975 62.4528 5.53867C60.4817 3.5676 57.8093 2.45886 55.0218 2.45569ZM55.0218 21.5714C53.9924 21.7487 52.6016 20.8759 51.777 21.3762L50.243 22.5272C50.1726 21.7147 50.4867 20.2103 49.8622 19.8391C43.279 14.9607 46.8455 4.33911 55.0221 4.36726C66.4176 4.7997 66.4156 21.1403 55.0218 21.5714Z" fill="black"/>
<path d="M55.9245 6.3293C52.1792 5.85197 48.8144 8.30355 48.3979 12.0189C47.1079 11.9303 47.0387 13.9171 48.3315 13.9252L48.3315 15.8368C48.3321 16.3436 48.5336 16.8294 48.8919 17.1878C49.2502 17.5461 49.7361 17.7478 50.2428 17.7484L59.7988 17.7484C60.3063 17.7478 60.7928 17.5459 61.1516 17.187C61.5104 16.8281 61.7121 16.3415 61.7125 15.834L61.7125 13.9252C63.0141 13.9153 62.9303 11.9153 61.6338 12.0198C61.2029 9.02964 58.896 6.6588 55.9245 6.3293ZM51.7556 9.36473C54.5521 6.85284 59.4445 8.54673 59.7541 12.5144C59.0984 13.0273 57.8463 13.1471 57.1642 12.6174C56.5235 12.2089 55.7763 11.9989 55.0165 12.0137C53.2198 11.9716 53.1306 12.8953 51.6736 12.9699C50.9996 12.9746 50.7563 12.765 50.2861 12.5134C50.3889 11.2544 50.8859 10.1429 51.7556 9.36473ZM50.2428 15.8368L50.2428 14.6268C51.1397 15.1182 53.2541 14.7968 53.8195 14.2769C54.1896 14.0652 54.4347 13.9252 55.0161 13.9252C55.5976 13.9252 55.845 14.0652 56.2165 14.2772C56.7805 14.7977 58.9059 15.1187 59.7996 14.6253L59.7988 15.8368L50.2428 15.8368Z" fill="black"/>
</svg>
