<svg width="168" height="110" viewBox="0 0 168 110" fill="none" xmlns="http://www.w3.org/2000/svg">
<path d="M60.6013 48.8987C53.8055 42.1028 53.0186 31.3994 51.3 21.9435C50.392 16.9477 48.0069 12.1676 44.1446 8.30535C34.0459 -1.79334 17.6727 -1.79334 7.57401 8.30535C-2.52467 18.404 -2.52467 34.7772 7.57401 44.8759C11.4363 48.7382 16.2164 51.1233 21.2122 52.0313C30.668 53.7499 41.3715 54.5368 48.1673 61.3327C54.9632 68.1285 55.7501 78.832 57.4687 88.2878C58.3767 93.2837 60.7618 98.0637 64.6241 101.926C74.7228 112.025 91.096 112.025 101.195 101.926C111.293 91.8273 111.293 75.4541 101.195 65.3554C97.3324 61.4932 92.5523 59.108 87.5565 58.2C78.1006 56.4814 67.3972 55.6945 60.6013 48.8987Z" fill="url(#paint0_linear_22999_628)"/>
<path d="M60.6013 48.8987C53.8055 42.1028 53.0186 31.3994 51.3 21.9435C50.392 16.9477 48.0069 12.1676 44.1446 8.30535C34.0459 -1.79334 17.6727 -1.79334 7.57401 8.30535C-2.52467 18.404 -2.52467 34.7772 7.57401 44.8759C11.4363 48.7382 16.2164 51.1233 21.2122 52.0313C30.668 53.7499 41.3715 54.5368 48.1673 61.3327C54.9632 68.1285 55.7501 78.832 57.4687 88.2878C58.3767 93.2837 60.7618 98.0637 64.6241 101.926C74.7228 112.025 91.096 112.025 101.195 101.926C111.293 91.8273 111.293 75.4541 101.195 65.3554C97.3324 61.4932 92.5523 59.108 87.5565 58.2C78.1006 56.4814 67.3972 55.6945 60.6013 48.8987Z" fill="url(#paint1_linear_22999_628)"/>
<path d="M119.114 48.1674C112.318 41.3715 111.532 30.668 109.813 21.2122C108.905 16.2164 106.52 11.4363 102.658 7.57401C92.5589 -2.52467 76.1857 -2.52467 66.087 7.57401C55.9883 17.6727 55.9883 34.0459 66.087 44.1446C69.9493 48.0069 74.7293 50.392 79.7252 51.3C89.181 53.0186 99.8845 53.8055 106.68 60.6013C113.476 67.3972 114.263 78.1006 115.982 87.5565C116.89 92.5523 119.275 97.3324 123.137 101.195C133.236 111.293 149.609 111.293 159.708 101.195C169.806 91.096 169.806 74.7228 159.708 64.6241C155.845 60.7618 151.065 58.3767 146.069 57.4687C136.614 55.7501 125.91 54.9632 119.114 48.1674Z" fill="url(#paint2_linear_22999_628)"/>
<path d="M119.114 48.1674C112.318 41.3715 111.532 30.668 109.813 21.2122C108.905 16.2164 106.52 11.4363 102.658 7.57401C92.5589 -2.52467 76.1857 -2.52467 66.087 7.57401C55.9883 17.6727 55.9883 34.0459 66.087 44.1446C69.9493 48.0069 74.7293 50.392 79.7252 51.3C89.181 53.0186 99.8845 53.8055 106.68 60.6013C113.476 67.3972 114.263 78.1006 115.982 87.5565C116.89 92.5523 119.275 97.3324 123.137 101.195C133.236 111.293 149.609 111.293 159.708 101.195C169.806 91.096 169.806 74.7228 159.708 64.6241C155.845 60.7618 151.065 58.3767 146.069 57.4687C136.614 55.7501 125.91 54.9632 119.114 48.1674Z" fill="url(#paint3_linear_22999_628)"/>
<defs>
<linearGradient id="paint0_linear_22999_628" x1="0" y1="54.75" x2="167.282" y2="54.75" gradientUnits="userSpaceOnUse">
<stop offset="0.1" stop-color="#7755FF"/>
<stop offset="0.44" stop-color="#40A4DB"/>
<stop offset="1" stop-color="#0CD2B3"/>
</linearGradient>
<linearGradient id="paint1_linear_22999_628" x1="0" y1="54.75" x2="167.282" y2="54.75" gradientUnits="userSpaceOnUse">
<stop stop-color="#FF12DC"/>
<stop offset="1" stop-color="#FFB912"/>
</linearGradient>
<linearGradient id="paint2_linear_22999_628" x1="0" y1="54.75" x2="167.282" y2="54.75" gradientUnits="userSpaceOnUse">
<stop offset="0.1" stop-color="#7755FF"/>
<stop offset="0.44" stop-color="#40A4DB"/>
<stop offset="1" stop-color="#0CD2B3"/>
</linearGradient>
<linearGradient id="paint3_linear_22999_628" x1="0" y1="54.75" x2="167.282" y2="54.75" gradientUnits="userSpaceOnUse">
<stop stop-color="#FF12DC"/>
<stop offset="1" stop-color="#FFB912"/>
</linearGradient>
</defs>
</svg>
