<svg width="80" height="80" viewBox="0 0 80 80" fill="none" xmlns="http://www.w3.org/2000/svg">
<path fill-rule="evenodd" clip-rule="evenodd" d="M59.1165 6.82283C59.1165 6.63561 59.0422 6.45607 58.9099 6.32363C58.7774 6.19131 58.5979 6.11697 58.4106 6.11694H21.5867C21.3995 6.11697 21.22 6.19131 21.0875 6.32363C20.9552 6.45607 20.8809 6.63561 20.8809 6.82283V31.9857H59.1165V6.82283Z" fill="#F4F6F8"/>
<path fill-rule="evenodd" clip-rule="evenodd" d="M73.8819 30.4896C73.8819 30.1152 73.7331 29.7562 73.4684 29.4914C73.2036 29.2267 72.8445 29.0779 72.4701 29.0779H7.52895C7.34354 29.0778 7.15994 29.1143 6.98863 29.1852C6.81732 29.2562 6.66167 29.3601 6.53056 29.4913C6.39945 29.6224 6.29547 29.778 6.22454 29.9493C6.15361 30.1206 6.11713 30.3042 6.11719 30.4896V48.4628C6.1173 48.8372 6.26607 49.1962 6.53081 49.461C6.79554 49.7257 7.15456 49.8745 7.52895 49.8746H72.4701C72.8445 49.8745 73.2036 49.7258 73.4684 49.461C73.7331 49.1963 73.8819 48.8372 73.8819 48.4628V30.4896Z" fill="#636C77"/>
<path fill-rule="evenodd" clip-rule="evenodd" d="M64.7319 38.004C64.7319 37.8168 64.6575 37.6372 64.5251 37.5048C64.3927 37.3725 64.2132 37.2981 64.026 37.2981H15.9735C15.7862 37.2981 15.6067 37.3725 15.4743 37.5048C15.3419 37.6372 15.2676 37.8168 15.2676 38.004V40.9482C15.2676 41.1354 15.3419 41.315 15.4743 41.4473C15.6067 41.5797 15.7862 41.6541 15.9735 41.6541H64.026C64.2132 41.6541 64.3927 41.5797 64.5251 41.4473C64.6575 41.315 64.7319 41.1354 64.7319 40.9482V38.004Z" fill="#424852"/>
<path d="M36.0394 59.5229C37.6997 59.5229 39.0456 58.1665 39.0456 56.4934C39.0456 54.8202 37.6997 53.4639 36.0394 53.4639C34.3791 53.4639 33.0332 54.8202 33.0332 56.4934C33.0332 58.1665 34.3791 59.5229 36.0394 59.5229Z" fill="#FDCD56"/>
<path fill-rule="evenodd" clip-rule="evenodd" d="M59.1165 36.9897H20.8809V73.1511C20.8809 73.3383 20.9552 73.5179 21.0876 73.6503C21.22 73.7826 21.3995 73.857 21.5867 73.857H58.4106C58.5979 73.857 58.7774 73.7826 58.9098 73.6503C59.0422 73.5179 59.1165 73.3383 59.1165 73.1511V36.9897Z" fill="#A4D4FF"/>
<path fill-rule="evenodd" clip-rule="evenodd" d="M20.8809 71.5268L29.5914 61.9271C29.6576 61.8541 29.7382 61.7958 29.8283 61.7559C29.9183 61.7159 30.0157 61.6953 30.1142 61.6953C30.2126 61.6953 30.31 61.7159 30.4 61.7559C30.4901 61.7958 30.5707 61.8541 30.6369 61.9271L35.5094 67.2969C35.576 67.3703 35.6573 67.4289 35.748 67.4689C35.8387 67.5088 35.9368 67.5292 36.0359 67.5286C36.1351 67.5281 36.2329 67.5067 36.3232 67.4658C36.4135 67.4249 36.4942 67.3654 36.5599 67.2912L47.1914 55.3192C47.2576 55.2446 47.3389 55.1849 47.4298 55.144C47.5208 55.1032 47.6194 55.082 47.7191 55.082C47.8189 55.082 47.9175 55.1032 48.0085 55.144C48.0994 55.1849 48.1807 55.2446 48.2469 55.3192L59.1165 67.5596V73.151C59.1165 73.3383 59.0422 73.5178 58.9099 73.6502C58.7774 73.7826 58.5979 73.8569 58.4106 73.8569H21.5867C21.3995 73.8569 21.22 73.7826 21.0875 73.6502C20.9552 73.5178 20.8809 73.3383 20.8809 73.151V71.5268Z" fill="#38A8D2"/>
<path fill-rule="evenodd" clip-rule="evenodd" d="M39.2467 40.9552L32.2686 37.5818L28.4364 44.2186C28.3684 44.3363 28.3359 44.4711 28.3427 44.6068C28.3494 44.7425 28.3952 44.8733 28.4745 44.9837C28.5539 45.094 28.6633 45.1791 28.7898 45.2287C28.9163 45.2783 29.0544 45.2904 29.1876 45.2635L32.0964 44.6756C32.2649 44.6416 32.4401 44.6702 32.5891 44.7562C32.738 44.8421 32.8505 44.9795 32.9053 45.1425L33.8516 47.9553C33.8949 48.0841 33.9744 48.1977 34.0806 48.2824C34.1869 48.3671 34.3153 48.4193 34.4505 48.4328C34.5857 48.4463 34.7219 48.4205 34.8428 48.3585C34.9637 48.2965 35.0641 48.2009 35.132 48.0832L39.2467 40.9552ZM40.7528 40.9552L47.7327 37.5818L51.5635 44.2188C51.6313 44.3364 51.6638 44.4712 51.657 44.6068C51.6501 44.7425 51.6043 44.8733 51.525 44.9836C51.4457 45.0938 51.3363 45.1789 51.2099 45.2285C51.0835 45.2782 50.9454 45.2903 50.8123 45.2635L47.9032 44.6756C47.7346 44.6416 47.5594 44.6702 47.4104 44.7562C47.2615 44.8423 47.149 44.9797 47.0943 45.1428L46.1494 47.9549C46.1061 48.0837 46.0266 48.1972 45.9203 48.2819C45.8141 48.3667 45.6857 48.4189 45.5505 48.4324C45.4153 48.4459 45.2791 48.4202 45.1582 48.3582C45.0373 48.2962 44.9368 48.2006 44.8689 48.0829L40.7528 40.9552Z" fill="#F76C82"/>
<path fill-rule="evenodd" clip-rule="evenodd" d="M40 17.5974C46.8839 17.5974 52.4667 23.1802 52.4667 30.0643C52.4667 36.9502 46.8839 42.533 40 42.533C33.1141 42.533 27.5312 36.9502 27.5312 30.0643C27.5312 23.1802 33.1141 17.5974 40 17.5974Z" fill="#FDCD56"/>
<path fill-rule="evenodd" clip-rule="evenodd" d="M39.9989 38.2704C44.5181 38.2704 48.2047 34.5847 48.2047 30.0645C48.2047 25.5453 44.5181 21.8596 39.9989 21.8596C35.4797 21.8596 31.793 25.5453 31.793 30.0645C31.793 34.5847 35.4797 38.2704 39.9989 38.2704Z" fill="#F5B945"/>
<path fill-rule="evenodd" clip-rule="evenodd" d="M19.8934 50.8629H7.52891C6.89239 50.8629 6.28194 50.61 5.83185 50.1599C5.38176 49.7099 5.12891 49.0994 5.12891 48.4629V30.4897C5.12891 29.8532 5.38176 29.2427 5.83185 28.7927C6.28194 28.3426 6.89239 28.0897 7.52891 28.0897H19.8934V6.11714C19.8934 5.85505 19.9975 5.60368 20.1829 5.41835C20.3682 5.23302 20.6196 5.12891 20.8817 5.12891H59.1173C59.3794 5.12891 59.6308 5.23302 59.8161 5.41835C60.0014 5.60368 60.1056 5.85505 60.1056 6.11714V28.0897H72.4701C73.1066 28.0897 73.7171 28.3426 74.1671 28.7927C74.6172 29.2427 74.8701 29.8532 74.8701 30.4897V48.4629C74.87 49.0994 74.6171 49.7098 74.167 50.1598C73.717 50.6099 73.1066 50.8628 72.4701 50.8629H60.1056V73.8819C60.1056 74.1439 60.0014 74.3953 59.8161 74.5806C59.6308 74.766 59.3794 74.8701 59.1173 74.8701H20.8817C20.6196 74.8701 20.3682 74.766 20.1829 74.5806C19.9975 74.3953 19.8934 74.1439 19.8934 73.8819V50.8629ZM26.5435 30.0662H7.52891C7.41658 30.0662 7.30885 30.1108 7.22943 30.1902C7.15 30.2697 7.10538 30.3774 7.10538 30.4897V48.4629C7.10538 48.5752 7.15 48.6829 7.22943 48.7624C7.30885 48.8418 7.41658 48.8864 7.52891 48.8864H19.8934V42.6425H15.2674C15.0053 42.6425 14.7539 42.5383 14.5686 42.353C14.3832 42.1677 14.2791 41.9163 14.2791 41.6542V37.2982C14.2791 37.0361 14.3832 36.7848 14.5686 36.5994C14.7539 36.4141 15.0053 36.31 15.2674 36.31H28.0778C27.0982 34.4439 26.5438 32.3198 26.5435 30.0662ZM58.1291 28.0897V7.10538H21.8699V28.0897H26.6874C27.643 21.5957 33.2397 16.6092 40.0005 16.6092C46.7593 16.6092 52.356 21.5957 53.3116 28.0897H58.1291ZM60.1056 48.8864H72.4701C72.5824 48.8864 72.6901 48.8418 72.7696 48.7624C72.849 48.6829 72.8936 48.5752 72.8936 48.4629V30.4897C72.8936 30.3774 72.849 30.2697 72.7696 30.1902C72.6901 30.1108 72.5824 30.0662 72.4701 30.0662H53.4554C53.4552 32.3198 52.9008 34.4439 51.9213 36.31H64.7316C64.9937 36.31 65.2451 36.4141 65.4304 36.5994C65.6158 36.7848 65.7199 37.0361 65.7199 37.2982V41.6542C65.7199 41.9163 65.6158 42.1677 65.4304 42.353C65.2451 42.5383 64.9937 42.6425 64.7316 42.6425H60.1056V48.8864ZM21.8699 38.2865V69.0245L29.3857 60.8052C29.4783 60.7039 29.5909 60.623 29.7165 60.5677C29.842 60.5123 29.9777 60.4837 30.115 60.4837C30.2522 60.4837 30.3879 60.5123 30.5134 60.5677C30.639 60.623 30.7516 60.7039 30.8442 60.8052L36.0307 66.4771L46.9835 54.2379C47.0762 54.1343 47.1897 54.0514 47.3166 53.9947C47.4435 53.938 47.5809 53.9087 47.7199 53.9087C47.8589 53.9087 47.9963 53.938 48.1232 53.9947C48.2501 54.0514 48.3636 54.1343 48.4562 54.2379L58.1291 65.0467V38.2865H50.6521C50.3948 38.6194 50.1221 38.9402 49.8348 39.2477L53.2009 45.0796C53.296 45.2443 53.3416 45.433 53.3321 45.6229C53.3226 45.8129 53.2585 45.9961 53.1475 46.1505C53.0364 46.305 52.8832 46.4241 52.7061 46.4935C52.5291 46.563 52.3357 46.5799 52.1493 46.5422L47.9515 45.6938L46.5876 49.7524C46.5271 49.9327 46.4158 50.0917 46.2671 50.2104C46.1184 50.329 45.9386 50.4022 45.7493 50.4211C45.5601 50.4401 45.3693 50.404 45.2001 50.3172C45.0308 50.2304 44.8902 50.0966 44.7951 49.9318L41.0689 43.4794C40.3572 43.5351 39.6422 43.5351 38.9305 43.4794L35.2058 49.9317C35.1107 50.0963 34.9701 50.2301 34.8009 50.3168C34.6317 50.4036 34.4411 50.4397 34.2519 50.4208C34.0626 50.4019 33.8829 50.3289 33.7342 50.2104C33.5854 50.0919 33.474 49.933 33.4133 49.7528L32.0479 45.6938L27.8497 46.5422C27.6633 46.5798 27.4699 46.5629 27.2929 46.4934C27.1158 46.4239 26.9626 46.3047 26.8516 46.1503C26.7405 45.9958 26.6765 45.8126 26.667 45.6227C26.6575 45.4327 26.7031 45.244 26.7982 45.0793L30.165 39.2484C29.8775 38.9407 29.6045 38.6197 29.347 38.2865H21.8699ZM21.8699 71.9534V72.8936H39.2198L30.115 62.9366L21.8699 71.9534ZM41.898 72.8936H58.1291V68.0106L47.7199 56.3788L37.3712 67.943L41.898 72.8936ZM19.8934 38.2865H16.2556V40.666H19.8934V38.2865ZM48.3453 40.6207C46.8207 41.8294 45.0513 42.6918 43.16 43.148L45.4116 47.0472L46.3557 44.2378C46.4324 44.0095 46.5898 43.8171 46.7983 43.6967C47.0068 43.5763 47.2522 43.5361 47.4882 43.5838L50.3946 44.1711L48.3453 40.6207ZM36.8397 43.1479C34.9485 42.6918 33.1792 41.8296 31.6547 40.6211L29.605 44.1711L32.5108 43.5838C32.7467 43.5361 32.992 43.5762 33.2005 43.6966C33.409 43.8169 33.5664 44.0092 33.6432 44.2373L34.5886 47.0476L36.8397 43.1479ZM60.1056 40.666H63.7434V38.2865H60.1056V40.666ZM15.0137 31.9859C15.6772 31.9859 16.2159 32.5246 16.2159 33.1882C16.2159 33.8517 15.6772 34.3903 15.0137 34.3903C14.3501 34.3903 13.8115 33.8517 13.8115 33.1882C13.8115 32.5246 14.3501 31.9859 15.0137 31.9859ZM10.8888 31.9859C11.5523 31.9859 12.0909 32.5246 12.0909 33.1882C12.0909 33.8517 11.5523 34.3903 10.8888 34.3903C10.2252 34.3903 9.68651 33.8517 9.68651 33.1882C9.68651 32.5246 10.2252 31.9859 10.8888 31.9859ZM27.5318 13.7844C26.9863 13.7844 26.5435 13.3417 26.5435 12.7962C26.5435 12.2508 26.9863 11.808 27.5318 11.808H52.4672C53.0127 11.808 53.4554 12.2508 53.4554 12.7962C53.4554 13.3417 53.0127 13.7844 52.4672 13.7844H27.5318ZM40.0005 18.5857C33.6604 18.5857 28.52 23.7259 28.52 30.0643C28.52 36.4044 33.6602 41.5448 40.0005 41.5448C46.3387 41.5448 51.479 36.4044 51.479 30.0643C51.479 23.7259 46.3387 18.5857 40.0005 18.5857ZM39.9995 39.2589C34.9361 39.2589 30.8054 35.1293 30.8054 30.0648C30.8054 25.0013 34.9361 20.8716 39.9995 20.8716C45.0629 20.8716 49.1936 25.0013 49.1936 30.0648C49.1936 35.1293 45.0629 39.2589 39.9995 39.2589ZM39.9995 37.2824C43.9745 37.2824 47.2171 34.0406 47.2171 30.0648C47.2171 26.0898 43.9745 22.8481 39.9995 22.8481C36.0245 22.8481 32.7818 26.0898 32.7818 30.0648C32.7818 34.0406 36.0245 37.2824 39.9995 37.2824ZM43.7911 26.6489C43.9946 26.4838 44.2553 26.4062 44.516 26.4332C44.7766 26.4603 45.0159 26.5897 45.1812 26.793C45.3463 26.9965 45.4238 27.2573 45.3968 27.5179C45.3697 27.7786 45.2403 28.0179 45.037 28.1832L38.5136 33.4807C38.407 33.5672 38.2835 33.6306 38.1511 33.6668C38.0186 33.703 37.88 33.7111 37.7442 33.6907C37.6084 33.6704 37.4783 33.622 37.3623 33.5486C37.2462 33.4752 37.1468 33.3784 37.0702 33.2644L34.7645 29.8307C34.6186 29.6131 34.5649 29.3464 34.6155 29.0892C34.666 28.8321 34.8166 28.6055 35.034 28.4593C35.2517 28.3133 35.5184 28.2597 35.7755 28.3103C36.0326 28.3608 36.2592 28.5113 36.4054 28.7288L38.1077 31.2641L43.7911 26.6489ZM36.0386 52.5179C38.2431 52.5179 40.033 54.3077 40.033 56.5123C40.033 58.7168 38.2431 60.5066 36.0386 60.5066C33.834 60.5066 32.0442 58.7168 32.0442 56.5123C32.0442 54.3077 33.834 52.5179 36.0386 52.5179ZM36.0386 54.4944C34.9249 54.4944 34.0207 55.3986 34.0207 56.5123C34.0207 57.6261 34.9249 58.5302 36.0386 58.5302C37.1522 58.5302 38.0565 57.6261 38.0565 56.5123C38.0565 55.3986 37.1522 54.4944 36.0386 54.4944Z" fill="black"/>
</svg>
