<svg width="80" height="80" viewBox="0 0 80 80" fill="none" xmlns="http://www.w3.org/2000/svg">
<path fill-rule="evenodd" clip-rule="evenodd" d="M37.6714 20.2852C38.755 20.6301 39.8072 21.0666 40.8168 21.5899L47.3775 17.4506L53.8973 23.9704L49.758 30.5312C50.2813 31.5407 50.7178 32.593 51.0627 33.6765L58.6255 35.3862V44.6097L51.0627 46.3194C50.717 47.404 50.2806 48.4576 49.758 49.4689L53.8973 56.0255L47.3775 62.5494L40.8168 58.406C39.8065 58.929 38.7544 59.3667 37.6714 59.7148L35.9617 67.2776H26.7382L25.0285 59.7148C23.9444 59.366 22.8911 58.9282 21.8791 58.406L15.3224 62.5494L8.79855 56.0255L12.9419 49.4689C12.4196 48.4569 11.9819 47.4035 11.6331 46.3194L4.07031 44.6097V35.3862L11.6331 33.6765C11.9812 32.5935 12.419 31.5414 12.9419 30.5312L8.79855 23.9704L15.3224 17.4506L21.8791 21.5899C22.8903 21.0673 23.9439 20.6308 25.0285 20.2852L26.7382 12.7224H35.9617L37.6714 20.2852Z" fill="#A2A2F9"/>
<path fill-rule="evenodd" clip-rule="evenodd" d="M36.9025 63.1015L35.9617 67.2776H26.7382L25.0285 59.7148C23.9444 59.366 22.8911 58.9282 21.8791 58.406L15.3224 62.5494L8.80263 56.0255L12.9419 49.4689C12.4196 48.4569 11.9819 47.4035 11.6331 46.3194L4.07031 44.6097V35.3862L11.6331 33.6765C11.9812 32.5935 12.419 31.5414 12.9419 30.5312L8.80263 23.9704L15.3224 17.4506L21.8791 21.5899C22.8903 21.0673 23.9439 20.6308 25.0285 20.2852L26.7382 12.7224H35.9617L36.9025 16.8945C26.3784 19.3158 18.5333 28.7396 18.5333 40C18.5333 51.2563 26.3784 60.6843 36.9025 63.1015Z" fill="#9494F7"/>
<path fill-rule="evenodd" clip-rule="evenodd" d="M31.3482 53.9515C39.0336 53.9515 45.2999 47.6811 45.2999 39.9998C45.2999 32.3143 39.0336 26.0481 31.3482 26.0481C23.6667 26.0481 17.3965 32.3143 17.3965 39.9998C17.3965 47.6811 23.6668 53.9515 31.3482 53.9515Z" fill="#F1F0FF"/>
<path fill-rule="evenodd" clip-rule="evenodd" d="M20.5868 39.9998C20.5868 32.8337 25.9901 26.9275 32.9434 26.1381C32.4139 26.0771 31.8812 26.0471 31.3482 26.0481C26.6159 26.0481 22.4356 28.404 19.9118 32.0075C18.329 34.2695 17.3965 37.0262 17.3965 39.9998C17.3965 42.9692 18.329 45.7261 19.912 47.9921C22.4356 51.5956 26.6159 53.9515 31.3483 53.9515C31.8882 53.9515 32.4199 53.9189 32.9436 53.8615C25.9901 53.0681 20.5868 47.1658 20.5868 39.9998Z" fill="#D0D0F7"/>
<path fill-rule="evenodd" clip-rule="evenodd" d="M34.7055 53.5429V47.6857C37.7321 46.3851 39.855 43.3746 39.855 39.8693C39.855 36.364 37.7321 33.3536 34.7055 32.053V40.2416H27.9934V32.053C24.9625 33.3536 22.8438 36.3641 22.8438 39.8693C22.8438 43.3746 24.9625 46.3851 27.9934 47.6857V53.5429C29.0692 53.8086 30.1899 53.9518 31.3475 53.9518C32.5051 53.9518 33.6297 53.8086 34.7055 53.5429Z" fill="#FF5BA8"/>
<path fill-rule="evenodd" clip-rule="evenodd" d="M31.3475 40.2411H27.9934V32.0525C24.9625 33.3531 22.8438 36.3636 22.8438 39.8689C22.8438 43.3741 24.9625 46.3846 27.9934 47.6852V53.5424C29.0908 53.8141 30.217 53.9514 31.3475 53.9513V40.2411Z" fill="#ED4593"/>
<path fill-rule="evenodd" clip-rule="evenodd" d="M70.0036 19.6224L74.0939 21.9864C75.8445 22.9967 76.4499 25.2546 75.4395 27.0052L56.4813 59.8414L45.2168 67.2774L46.0267 53.8042L64.9847 20.968C65.9951 19.2174 68.253 18.612 70.0036 19.6224Z" fill="#FDD835"/>
<path fill-rule="evenodd" clip-rule="evenodd" d="M70.0055 19.6224L71.5433 20.51C69.7927 19.4998 67.5348 20.105 66.5246 21.8557L47.5665 54.6919L46.8753 66.1853L45.2188 67.2774L46.0286 53.8042L64.9867 20.968C65.9969 19.2174 68.2548 18.612 70.0055 19.6224Z" fill="#FBC02D"/>
<path fill-rule="evenodd" clip-rule="evenodd" d="M56.4813 59.8416L45.2168 67.2776L46.0268 53.8044L56.4813 59.8416Z" fill="#5B5E8B"/>
<path fill-rule="evenodd" clip-rule="evenodd" d="M45.2168 67.2776L46.0268 53.8044L47.5647 54.6921L46.8734 66.1855L45.2168 67.2776Z" fill="#4A4D71"/>
<path fill-rule="evenodd" clip-rule="evenodd" d="M70.0038 19.6224L74.094 21.9864C75.8446 22.9967 76.45 25.2546 75.4396 27.0052L73.5091 30.3428L63.0586 24.3097L64.985 20.968C65.9953 19.2174 68.2531 18.612 70.0038 19.6224Z" fill="#FF5BA8"/>
<path fill-rule="evenodd" clip-rule="evenodd" d="M70.0038 19.6228L71.5417 20.5105C69.791 19.5002 67.5331 20.1055 66.5229 21.8561L64.5924 25.1978L63.0586 24.3101L64.985 20.9685C65.0013 20.9399 65.0178 20.9153 65.0341 20.8866C65.0504 20.8622 65.0667 20.8335 65.0832 20.8089C65.0996 20.7803 65.12 20.7557 65.1363 20.7311C65.1526 20.7025 65.1732 20.6779 65.1895 20.6533C65.2058 20.6289 65.2263 20.6043 65.2426 20.5796C65.2631 20.5561 65.2822 20.5315 65.2999 20.506C65.3203 20.4815 65.3408 20.461 65.3612 20.4365C65.3775 20.4119 65.398 20.3874 65.4184 20.3669C65.4388 20.3423 65.4593 20.3219 65.4797 20.2973L65.5451 20.2319L65.6064 20.1706C65.631 20.15 65.6514 20.1296 65.6718 20.1093C65.6963 20.0889 65.7168 20.0683 65.7414 20.0479C65.7627 20.0267 65.786 20.0075 65.811 19.9907C65.8323 19.9694 65.8556 19.9502 65.8807 19.9335C65.901 19.9129 65.9257 19.8966 65.9503 19.8762C65.9747 19.8599 65.9993 19.8435 66.0199 19.8231H66.024C66.0464 19.8057 66.0697 19.7894 66.0936 19.774C66.118 19.7577 66.1426 19.7412 66.1713 19.7249L66.245 19.6758C66.2695 19.6636 66.2941 19.6472 66.3228 19.6308C66.3473 19.6186 66.3719 19.6022 66.4005 19.5899C66.425 19.5736 66.4496 19.5614 66.4783 19.549C66.5028 19.5327 66.5315 19.5203 66.5561 19.5081C66.5846 19.4958 66.6092 19.4836 66.6379 19.4712C66.6624 19.459 66.6911 19.4466 66.7157 19.4344C66.7442 19.4222 66.7729 19.4099 66.7975 19.4018C66.8261 19.3895 66.8548 19.3772 66.8835 19.369C66.9079 19.3568 66.9366 19.3485 66.9653 19.3403C66.9938 19.3281 67.0225 19.3199 67.0471 19.3116C67.0757 19.3035 67.1044 19.2912 67.1331 19.2829C67.1617 19.2748 67.1903 19.2666 67.219 19.2625L67.3049 19.2379C67.3336 19.2339 67.3621 19.2257 67.3908 19.2175C67.4194 19.2135 67.4481 19.2053 67.4767 19.2012C67.5053 19.1972 67.534 19.189 67.5627 19.1849L67.6486 19.1727C67.6812 19.1686 67.7099 19.1645 67.7386 19.1605C67.7673 19.1564 67.7958 19.1523 67.8245 19.1523C67.8573 19.1482 67.8858 19.1441 67.9145 19.1441C67.9432 19.1401 67.9717 19.1401 68.0045 19.1401C68.0331 19.136 68.0618 19.136 68.0904 19.136H68.2704C68.299 19.136 68.3277 19.136 68.3564 19.1401C68.3891 19.1401 68.4177 19.1441 68.4464 19.1441C68.475 19.1482 68.5077 19.1482 68.5364 19.1523C68.5649 19.1564 68.5936 19.1564 68.6264 19.1605L68.7123 19.1727C68.7408 19.1768 68.7736 19.1808 68.8023 19.189C68.8308 19.1931 68.8595 19.1972 68.8923 19.2053C68.921 19.2094 68.9495 19.2175 68.9782 19.2216C69.0069 19.2298 69.0354 19.2379 69.0682 19.2422L69.1541 19.2666L69.24 19.2912C69.2686 19.2994 69.3014 19.3116 69.33 19.3199C69.3586 19.3281 69.3873 19.3403 69.416 19.3485C69.4445 19.3607 69.4732 19.369 69.5019 19.3812L69.5878 19.4181C69.6165 19.4262 69.645 19.4385 69.6697 19.4549L69.7556 19.4918C69.7841 19.504 69.8128 19.5205 69.8415 19.5327C69.866 19.549 69.8947 19.5614 69.9233 19.5777C69.9505 19.5941 69.9751 19.6064 70.0038 19.6228Z" fill="#ED4593"/>
</svg>
