<svg width="80" height="80" viewBox="0 0 80 80" fill="none" xmlns="http://www.w3.org/2000/svg">
<g clip-path="url(#clip0_23032_391)">
<path d="M9.62305 4V70.375H36.6934V4H9.62305ZM23.1606 61.1078C20.8122 61.1078 18.9043 59.2094 18.9043 56.8611C18.9043 54.5126 20.812 52.6096 23.1558 52.6096C25.5089 52.6096 27.4121 54.5126 27.4121 56.8611C27.4121 59.2094 25.509 61.1078 23.1606 61.1078Z" fill="#02A9F4"/>
<path d="M9.62305 62.4765L17.5215 70.3749H24.6886L36.6934 58.3655V20.085L9.62305 47.1577V62.4765ZM21.1169 50.5654C22.8279 50.5654 24.2856 51.5757 24.9606 53.0217C26.4092 53.7015 27.4122 55.1594 27.4122 56.8609C27.4122 59.2092 25.5092 61.1077 23.1607 61.1077C21.4545 61.1077 19.992 60.0999 19.3123 58.6514C17.8732 57.9719 16.8654 56.5163 16.8654 54.8171C16.8652 52.471 18.7731 50.5654 21.1169 50.5654Z" fill="#006AB3"/>
<path d="M50.9332 9.9248L4.00195 56.8608L23.141 75.9999L70.0724 29.0639L50.9332 9.9248ZM23.1597 61.1077C20.8113 61.1077 18.9034 59.2092 18.9034 56.8609C18.9034 54.5125 20.8111 52.6094 23.1549 52.6094C25.508 52.6094 27.4112 54.5125 27.4112 56.8609C27.4112 59.2092 25.5082 61.1077 23.1597 61.1077Z" fill="#FF6666"/>
<path d="M9.62305 51.2407V62.4814L15.4919 68.35H30.7919L57.8576 41.2822H19.5794L9.62305 51.2407ZM27.4121 54.8172C27.4121 55.1711 27.3559 55.5111 27.2715 55.839C27.3559 56.1672 27.4121 56.5047 27.4121 56.8611C27.4121 59.2094 25.509 61.1078 23.1606 61.1078C20.8122 61.1078 18.9043 59.2094 18.9043 56.8611C18.9043 56.5049 18.9605 56.1672 19.0449 55.839C18.9605 55.5111 18.9043 55.1711 18.9043 54.8172C18.9043 52.4711 20.812 50.5656 23.1558 50.5656C25.509 50.5656 27.4121 52.4712 27.4121 54.8172Z" fill="#E63431"/>
<path d="M9.62305 43.3232V70.3936H75.998V43.3232H9.62305ZM23.1606 61.1077C20.8122 61.1077 18.9043 59.2092 18.9043 56.8609C18.9043 54.5125 20.812 52.6094 23.1558 52.6094C25.5089 52.6094 27.4121 54.5125 27.4121 56.8609C27.4121 59.2092 25.509 61.1077 23.1606 61.1077Z" fill="#F4D177"/>
</g>
<defs>
<clipPath id="clip0_23032_391">
<rect width="72" height="72" fill="white" transform="translate(4 4)"/>
</clipPath>
</defs>
</svg>
