<svg width="80" height="80" viewBox="0 0 80 80" fill="none" xmlns="http://www.w3.org/2000/svg">
<path d="M51.25 24.25V33.25H42.25L51.25 24.25ZM35.5 24.25V33.25H26.5L35.5 24.25ZM19.75 24.25V33.25H10.75L19.75 24.25ZM19.75 40V49H10.75L19.75 40Z" fill="#FC9942"/>
<path d="M26.5 40H35.5V49H26.5V40ZM19.75 40L10.75 49V40H19.75ZM51.25 24.25L42.25 33.25V24.25H51.25ZM35.5 24.25L26.5 33.25V24.25H35.5ZM19.75 24.25L10.75 33.25V24.25H19.75Z" fill="#FFC170"/>
<path d="M7.37549 54.625H43.3755V59.125H7.37549C7.0783 59.1313 6.7829 59.0774 6.50707 58.9666C6.23125 58.8557 5.9807 58.6902 5.7705 58.48C5.5603 58.2698 5.3948 58.0193 5.28395 57.7435C5.17311 57.4676 5.11921 57.1722 5.12549 56.875V52.375C5.12727 52.9712 5.3649 53.5425 5.78647 53.9641C6.20804 54.3856 6.7793 54.6232 7.37549 54.625ZM50.1255 9.62503V11.875C50.1255 12.4718 49.8884 13.0441 49.4665 13.466C49.0445 13.888 48.4722 14.125 47.8755 14.125C47.2788 14.125 46.7065 13.888 46.2845 13.466C45.8625 13.0441 45.6255 12.4718 45.6255 11.875V7.37503C45.6273 6.77884 45.8649 6.20758 46.2865 5.78601C46.708 5.36444 47.2793 5.12681 47.8755 5.12503C48.1709 5.12346 48.4636 5.18142 48.7362 5.29546C49.0087 5.4095 49.2555 5.57728 49.4617 5.78878C49.6732 5.99505 49.841 6.24182 49.9551 6.51435C50.0691 6.78689 50.1271 7.0796 50.1255 7.37503V9.62503ZM38.8755 9.62503V11.875C38.8755 12.4718 38.6384 13.0441 38.2165 13.466C37.7945 13.888 37.2222 14.125 36.6255 14.125C36.0288 14.125 35.4565 13.888 35.0345 13.466C34.6125 13.0441 34.3755 12.4718 34.3755 11.875V7.37503C34.3773 6.77884 34.6149 6.20758 35.0365 5.78601C35.458 5.36444 36.0293 5.12681 36.6255 5.12503C36.9209 5.12346 37.2136 5.18142 37.4862 5.29546C37.7587 5.4095 38.0055 5.57728 38.2117 5.78878C38.4232 5.99505 38.591 6.24182 38.7051 6.51435C38.8191 6.78689 38.8771 7.0796 38.8755 7.37503V9.62503ZM27.6255 9.62503V11.875C27.6255 12.4718 27.3884 13.0441 26.9665 13.466C26.5445 13.888 25.9722 14.125 25.3755 14.125C24.7788 14.125 24.2065 13.888 23.7845 13.466C23.3625 13.0441 23.1255 12.4718 23.1255 11.875V7.37503C23.1273 6.77884 23.3649 6.20758 23.7865 5.78601C24.208 5.36444 24.7793 5.12681 25.3755 5.12503C25.6709 5.12346 25.9636 5.18142 26.2362 5.29546C26.5087 5.4095 26.7555 5.57728 26.9617 5.78878C27.1732 5.99505 27.341 6.24182 27.4551 6.51435C27.5691 6.78689 27.6271 7.0796 27.6255 7.37503V9.62503ZM16.3755 9.62503V11.875C16.3755 12.4718 16.1384 13.0441 15.7165 13.466C15.2945 13.888 14.7222 14.125 14.1255 14.125C13.5288 14.125 12.9565 13.888 12.5345 13.466C12.1125 13.0441 11.8755 12.4718 11.8755 11.875V7.37503C11.8773 6.77884 12.1149 6.20758 12.5365 5.78601C12.958 5.36444 13.5293 5.12681 14.1255 5.12503C14.4209 5.12346 14.7136 5.18142 14.9862 5.29546C15.2587 5.4095 15.5055 5.57728 15.7117 5.78878C15.9232 5.99505 16.091 6.24182 16.2051 6.51435C16.3191 6.78689 16.3771 7.0796 16.3755 7.37503V9.62503Z" fill="#9196AA"/>
<path d="M56.875 11.875V18.625H5.125V11.875C5.12678 11.2788 5.36441 10.7075 5.78598 10.286C6.20755 9.86441 6.77881 9.62678 7.375 9.625H11.875V11.875C11.875 12.4717 12.1121 13.044 12.534 13.466C12.956 13.8879 13.5283 14.125 14.125 14.125C14.7217 14.125 15.294 13.8879 15.716 13.466C16.1379 13.044 16.375 12.4717 16.375 11.875V9.625H23.125V11.875C23.125 12.4717 23.3621 13.044 23.784 13.466C24.206 13.8879 24.7783 14.125 25.375 14.125C25.9717 14.125 26.544 13.8879 26.966 13.466C27.3879 13.044 27.625 12.4717 27.625 11.875V9.625H34.375V11.875C34.375 12.4717 34.6121 13.044 35.034 13.466C35.456 13.8879 36.0283 14.125 36.625 14.125C37.2217 14.125 37.794 13.8879 38.216 13.466C38.6379 13.044 38.875 12.4717 38.875 11.875V9.625H45.625V11.875C45.625 12.4717 45.8621 13.044 46.284 13.466C46.706 13.8879 47.2783 14.125 47.875 14.125C48.4717 14.125 49.044 13.8879 49.466 13.466C49.8879 13.044 50.125 12.4717 50.125 11.875V9.625H54.625C55.2212 9.62678 55.7924 9.86441 56.214 10.286C56.6356 10.7075 56.8732 11.2788 56.875 11.875Z" fill="#FF636E"/>
<path d="M16.375 9.625H23.125V11.875H16.375V9.625ZM25.375 14.125C24.7788 14.1232 24.2075 13.8856 23.786 13.464C23.3644 13.0425 23.1268 12.4712 23.125 11.875V14.125C23.125 14.7217 23.3621 15.294 23.784 15.716C24.206 16.1379 24.7783 16.375 25.375 16.375C25.9717 16.375 26.544 16.1379 26.966 15.716C27.3879 15.294 27.625 14.7217 27.625 14.125V11.875C27.6232 12.4712 27.3856 13.0425 26.964 13.464C26.5425 13.8856 25.9712 14.1232 25.375 14.125ZM14.125 14.125C13.5288 14.1232 12.9575 13.8856 12.536 13.464C12.1144 13.0425 11.8768 12.4712 11.875 11.875V14.125C11.875 14.7217 12.1121 15.294 12.534 15.716C12.956 16.1379 13.5283 16.375 14.125 16.375C14.7217 16.375 15.294 16.1379 15.716 15.716C16.1379 15.294 16.375 14.7217 16.375 14.125V11.875C16.3732 12.4712 16.1356 13.0425 15.714 13.464C15.2925 13.8856 14.7212 14.1232 14.125 14.125ZM7.375 9.625C6.77881 9.62678 6.20755 9.86441 5.78598 10.286C5.36441 10.7075 5.12678 11.2788 5.125 11.875V14.125C5.12678 13.5288 5.36441 12.9575 5.78598 12.536C6.20755 12.1144 6.77881 11.8768 7.375 11.875H11.875V9.625H7.375ZM36.625 14.125C36.0288 14.1232 35.4575 13.8856 35.036 13.464C34.6144 13.0425 34.3768 12.4712 34.375 11.875V14.125C34.375 14.7217 34.6121 15.294 35.034 15.716C35.456 16.1379 36.0283 16.375 36.625 16.375C37.2217 16.375 37.794 16.1379 38.216 15.716C38.6379 15.294 38.875 14.7217 38.875 14.125V11.875C38.8732 12.4712 38.6356 13.0425 38.214 13.464C37.7925 13.8856 37.2212 14.1232 36.625 14.125ZM47.875 14.125C47.2788 14.1232 46.7076 13.8856 46.286 13.464C45.8644 13.0425 45.6268 12.4712 45.625 11.875V14.125C45.625 14.7217 45.8621 15.294 46.284 15.716C46.706 16.1379 47.2783 16.375 47.875 16.375C48.4717 16.375 49.044 16.1379 49.466 15.716C49.8879 15.294 50.125 14.7217 50.125 14.125V11.875C50.1232 12.4712 49.8856 13.0425 49.464 13.464C49.0424 13.8856 48.4712 14.1232 47.875 14.125ZM27.625 9.625H34.375V11.875H27.625V9.625ZM54.625 9.625H50.125V11.875H54.625C55.2212 11.8768 55.7924 12.1144 56.214 12.536C56.6356 12.9575 56.8732 13.5288 56.875 14.125V11.875C56.8732 11.2788 56.6356 10.7075 56.214 10.286C55.7924 9.86441 55.2212 9.62678 54.625 9.625ZM38.875 9.625H45.625V11.875H38.875V9.625Z" fill="#F03049"/>
<path d="M56.875 18.625V38.875H43.375V54.625H7.375C6.77881 54.6232 6.20755 54.3856 5.78598 53.964C5.36441 53.5424 5.12678 52.9712 5.125 52.375V18.625H56.875ZM51.25 33.25V24.25H42.25V33.25H51.25ZM35.5 49V40H26.5V49H35.5ZM35.5 33.25V24.25H26.5V33.25H35.5ZM19.75 49V40H10.75V49H19.75ZM19.75 33.25V24.25H10.75V33.25H19.75Z" fill="#F2F6FC"/>
<path d="M61.375 65.875C62.6176 65.875 63.625 64.8676 63.625 63.625C63.625 62.3824 62.6176 61.375 61.375 61.375C60.1324 61.375 59.125 62.3824 59.125 63.625C59.125 64.8676 60.1324 65.875 61.375 65.875Z" fill="#F2F6FC"/>
<path d="M50.125 54.625C51.3676 54.625 52.375 53.6176 52.375 52.375C52.375 51.1324 51.3676 50.125 50.125 50.125C48.8824 50.125 47.875 51.1324 47.875 52.375C47.875 53.6176 48.8824 54.625 50.125 54.625Z" fill="#F2F6FC"/>
<path d="M62.9619 54.0062L51.7569 65.2112C51.3302 65.6378 50.7516 65.8776 50.1482 65.8776C49.5448 65.8776 48.9661 65.6378 48.5394 65.2112C48.1127 64.7845 47.873 64.2058 47.873 63.6024C47.873 62.999 48.1127 62.4203 48.5394 61.9937L59.7444 50.7887C60.1711 50.362 60.7498 50.1223 61.3532 50.1223C61.9566 50.1223 62.5352 50.362 62.9619 50.7887C63.3886 51.2153 63.6283 51.794 63.6283 52.3974C63.6283 53.0008 63.3886 53.5795 62.9619 54.0062Z" fill="#F2F6FC"/>
<path d="M74.875 74.875H68.125L71.5 71.5L74.875 74.875Z" fill="#B2876D"/>
<path d="M74.875 38.875V74.875L71.5 71.5V38.875H74.875Z" fill="#805142"/>
<path d="M68.125 74.875V38.875H71.5V71.5L68.125 74.875Z" fill="#966857"/>
<path d="M68.125 38.875V74.875H43.375V38.875H68.125ZM62.9613 54.0063C63.3879 53.5796 63.6276 53.0009 63.6276 52.3975C63.6276 51.7941 63.3879 51.2154 62.9613 50.7887C62.5346 50.3621 61.9559 50.1224 61.3525 50.1224C60.7491 50.1224 60.1704 50.3621 59.7437 50.7887L48.5388 61.9937C48.1121 62.4204 47.8724 62.9991 47.8724 63.6025C47.8724 64.2059 48.1121 64.7846 48.5388 65.2113C48.9654 65.6379 49.5441 65.8776 50.1475 65.8776C50.7509 65.8776 51.3296 65.6379 51.7563 65.2113L62.9613 54.0063ZM63.625 63.625C63.625 63.18 63.493 62.745 63.2458 62.375C62.9986 62.005 62.6472 61.7166 62.236 61.5463C61.8249 61.376 61.3725 61.3314 60.936 61.4182C60.4996 61.505 60.0987 61.7193 59.784 62.034C59.4693 62.3487 59.255 62.7496 59.1682 63.186C59.0814 63.6225 59.126 64.0749 59.2963 64.486C59.4666 64.8972 59.755 65.2486 60.125 65.4958C60.495 65.743 60.93 65.875 61.375 65.875C61.9712 65.8732 62.5424 65.6356 62.964 65.214C63.3856 64.7924 63.6232 64.2212 63.625 63.625ZM52.375 52.375C52.375 51.93 52.243 51.495 51.9958 51.125C51.7486 50.755 51.3972 50.4666 50.986 50.2963C50.5749 50.126 50.1225 50.0814 49.686 50.1682C49.2496 50.255 48.8487 50.4693 48.534 50.784C48.2193 51.0987 48.005 51.4996 47.9182 51.936C47.8314 52.3725 47.876 52.8249 48.0463 53.236C48.2166 53.6472 48.505 53.9986 48.875 54.2458C49.245 54.493 49.68 54.625 50.125 54.625C50.7212 54.6232 51.2925 54.3856 51.714 53.964C52.1356 53.5425 52.3732 52.9712 52.375 52.375Z" fill="#B2876D"/>
<path d="M49 72.625C48.1049 72.625 47.2465 72.2694 46.6135 71.6365C45.9806 71.0035 45.625 70.1451 45.625 69.25V38.875H43.375V74.875H68.125V72.625H49Z" fill="#966857"/>
<path d="M70.375 38.875H68.125V36.625C68.125 34.8348 67.4138 33.1179 66.148 31.852C64.8821 30.5862 63.1652 29.875 61.375 29.875C59.5848 29.875 57.8679 30.5862 56.602 31.852C55.3362 33.1179 54.625 34.8348 54.625 36.625V38.875H52.375V36.625C52.375 34.2381 53.3232 31.9489 55.011 30.261C56.6989 28.5732 58.9881 27.625 61.375 27.625C63.7619 27.625 66.0511 28.5732 67.739 30.261C69.4268 31.9489 70.375 34.2381 70.375 36.625V38.875Z" fill="#333940"/>
<path d="M64.75 44.5H62.5V36.625C62.5 34.8348 61.7888 33.1179 60.523 31.852C59.2571 30.5862 57.5402 29.875 55.75 29.875C53.9598 29.875 52.2429 30.5862 50.977 31.852C49.7112 33.1179 49 34.8348 49 36.625V44.5H46.75V36.625C46.75 34.2381 47.6982 31.9489 49.386 30.261C51.0739 28.5732 53.3631 27.625 55.75 27.625C58.1369 27.625 60.4261 28.5732 62.114 30.261C63.8018 31.9489 64.75 34.2381 64.75 36.625V44.5Z" fill="#414952"/>
</svg>
