<svg width="80" height="80" viewBox="0 0 80 80" fill="none" xmlns="http://www.w3.org/2000/svg">
<g clip-path="url(#clip0_23032_377)">
<path d="M36.8401 63.2673L29.0794 71.5443C22.9663 78.0641 12.4225 77.3197 7.25635 70.0266C6.91558 69.5455 6.58554 69.0569 6.26649 68.5611L6.18929 68.4407C2.01484 61.9038 3.9601 53.2139 10.4861 49.0224L19.9303 42.9565L36.8401 63.2673Z" fill="#F2A98C"/>
<path d="M54.2203 25.2348C55.5421 27.6153 58.5435 28.4733 60.924 27.1515L73.4741 20.1824C75.8546 18.8605 76.7127 15.8591 75.3908 13.4786C74.0689 11.0981 71.0676 10.2401 68.6871 11.5619L56.137 18.531C53.7566 19.853 52.8984 22.8544 54.2203 25.2348ZM20.7722 10.4649C25.1896 9.46858 29.5783 12.2418 30.5746 16.6593L33.0746 27.7439C43.1404 24.0413 54.1107 27.3921 58.6417 36.0179C63.6322 45.5184 58.9215 57.8194 48.1201 63.4932C37.3188 69.167 24.517 66.0648 19.5265 56.5645C16.895 51.5548 16.9615 45.767 19.1958 40.5824C21.2327 35.8557 21.6801 30.5954 20.5476 25.5746L18.0951 14.7008C17.6649 12.792 18.8634 10.8955 20.7722 10.4649Z" fill="#FFC5AB"/>
<path d="M62.7568 8.86872V61.6783C62.7568 64.3665 60.5778 66.547 57.888 66.547H32.8492C30.161 66.547 27.9805 64.3665 27.9805 61.6783V8.86872C27.9803 6.17898 30.161 4 32.8492 4H57.888C60.5778 4 62.7568 6.17898 62.7568 8.86872Z" fill="#424242"/>
<path d="M60.1932 9.192V61.355C60.1932 62.6659 59.1312 63.7279 57.8202 63.7279H32.9139C31.603 63.7279 30.541 62.6659 30.541 61.355V9.192C30.541 7.88109 31.603 6.81909 32.9139 6.81909H57.8203C59.1312 6.81909 60.1932 7.88109 60.1932 9.192Z" fill="white"/>
<path d="M60.1933 9.192V45.1339H30.541V9.192C30.541 7.88109 31.603 6.81909 32.9139 6.81909H57.8204C59.1313 6.81909 60.1933 7.88109 60.1933 9.192ZM54.0423 50.8454H36.6922C35.4127 50.8454 34.3753 51.8828 34.3753 53.1623V55.2637C34.3753 56.5432 35.4125 57.5806 36.6922 57.5806H54.0423C55.3218 57.5806 56.3592 56.5434 56.3592 55.2637V53.1623C56.3592 51.8827 55.3218 50.8454 54.0423 50.8454Z" fill="#AC6BAD"/>
<path d="M45.3688 41.0167C51.0824 41.0167 55.7142 39.8588 55.7142 38.4304C55.7142 37.002 51.0824 35.844 45.3688 35.844C39.6552 35.844 35.0234 37.002 35.0234 38.4304C35.0234 39.8588 39.6552 41.0167 45.3688 41.0167Z" fill="#913E98"/>
<path d="M45.7008 22.7513L45.6733 22.1226H42.3532L42.3305 20.3445L42.2303 12.2864L42.2286 12.1474C42.2274 12.0706 42.2414 11.9943 42.2698 11.9229C42.2982 11.8515 42.3404 11.7865 42.3941 11.7315C42.4477 11.6765 42.5117 11.6327 42.5823 11.6025C42.653 11.5724 42.7289 11.5565 42.8057 11.5558L44.9767 11.5283C45.2014 11.5266 45.3986 11.6512 45.4988 11.8355C45.5424 11.9163 45.5667 12.0067 45.5683 12.1055L45.6718 20.3445L45.6927 22.1226L45.7008 22.7513Z" fill="#FC933A"/>
<path d="M40.0528 19.9435C39.9673 19.8181 39.8526 19.7155 39.7185 19.6446C39.5844 19.5736 39.4351 19.5363 39.2833 19.5361H36.6743L36.5482 17.758L36.5029 17.1147L36.1781 12.5304C36.1442 12.0665 36.4932 11.664 36.9588 11.6301L38.6092 11.5137C38.7563 11.5036 38.9036 11.5321 39.0363 11.5965C39.169 11.6608 39.2826 11.7588 39.3657 11.8806C39.4501 12.0031 39.4998 12.1461 39.5096 12.2945L39.8652 17.3167L39.959 18.6293L39.9672 18.7522L40.0528 19.9435Z" fill="#FEB33C"/>
<path d="M52.6803 12.5306L52.3117 17.734L52.184 19.5364H51.4453C51.2526 19.5364 51.0646 19.5963 50.9073 19.7077C50.7501 19.8192 50.6314 19.9768 50.5675 20.1586C50.5675 20.1603 50.5658 20.1619 50.5658 20.1636L50.1763 21.2935L49.8901 22.1227H48.6504L48.7765 20.3447L48.8654 19.0838L49.347 12.2947C49.3633 12.072 49.4672 11.8647 49.636 11.7183C49.8047 11.572 50.0246 11.4985 50.2475 11.514L51.8995 11.6304C52.0589 11.642 52.2117 11.6985 52.3402 11.7935C52.4687 11.8885 52.5676 12.0181 52.6253 12.1671C52.669 12.2801 52.69 12.4029 52.6803 12.5306Z" fill="#FC933A"/>
<path d="M42.4813 22.1224H40.8374L40.5513 21.2931L40.1617 20.1632C40.1617 20.1615 40.16 20.16 40.16 20.1583C40.1338 20.0821 40.0974 20.0097 40.0518 19.9433C39.9663 19.818 39.8515 19.7154 39.7174 19.6444C39.5833 19.5734 39.434 19.5361 39.2822 19.5359H39.1562V12.3639C39.1562 12.1715 39.2371 12.0018 39.3648 11.8806C39.4438 11.8052 39.5401 11.7505 39.6453 11.7211C39.7504 11.6918 39.8612 11.6888 39.9678 11.7124L41.9464 12.1472C42.0947 12.1804 42.2274 12.2629 42.3228 12.3812C42.4182 12.4996 42.4707 12.6467 42.4718 12.7987L42.4798 20.3443L42.4813 22.1224ZM55.5924 12.6824L54.9732 17.3766L54.9182 17.7969L54.6741 19.6414C54.4971 19.5712 54.3084 19.5356 54.118 19.5363H51.4445C51.4083 19.536 51.3721 19.5382 51.3362 19.5428L51.5722 17.7727L51.6595 17.1117L52.2496 12.6793C52.2644 12.5694 52.3065 12.465 52.372 12.3755C52.4375 12.286 52.5244 12.2143 52.6246 12.1669C52.6971 12.1313 52.7754 12.1094 52.8558 12.1022L54.8748 11.9308C55.2997 11.8952 55.6489 12.2605 55.5924 12.6824ZM48.9213 20.3443L49.0021 22.1224H45.6917L45.6998 22.7511L45.6724 22.1224L45.5948 20.3443L45.2456 12.3865C45.2409 12.2812 45.2614 12.1763 45.3052 12.0805C45.3491 11.9847 45.415 11.9006 45.4977 11.8353C45.5716 11.7767 45.657 11.7344 45.7484 11.7113C45.8398 11.6881 45.9351 11.6847 46.0279 11.7011L48.0242 12.0486C48.1741 12.0744 48.3106 12.1507 48.4112 12.2648C48.5117 12.3788 48.5702 12.5239 48.577 12.6758L48.8647 19.0834L48.9213 20.3443Z" fill="#FFD23E"/>
<path d="M55.5732 21.2236L53.3328 36.0691C53.1421 37.3332 51.9345 38.2869 50.546 38.2869H40.1812C38.7927 38.2869 37.5851 37.3332 37.3945 36.0691L37.312 35.5146L37.2976 35.4193L35.1542 21.2236C35.0183 20.3217 35.6925 19.5361 36.6089 19.5361H39.2825C39.4752 19.5364 39.663 19.5964 39.8202 19.7079C39.9774 19.8193 40.0962 19.9767 40.1603 20.1584C40.1603 20.1601 40.162 20.1616 40.162 20.1633L40.5515 21.2932L40.8377 22.1225H49.8898L50.176 21.2932L50.5655 20.1633C50.5655 20.1616 50.5672 20.1601 50.5672 20.1584C50.6313 19.9767 50.7501 19.8193 50.9073 19.7079C51.0645 19.5964 51.2523 19.5364 51.445 19.5361H54.1186C55.0349 19.5361 55.7089 20.3217 55.5732 21.2236Z" fill="#DB4646"/>
<path d="M52.6409 19.5361L50.5637 33.2987C50.373 34.5643 49.1639 35.518 47.7752 35.518H37.4122C37.3701 35.4824 37.3395 35.455 37.2974 35.4194L35.1542 21.2236C35.0183 20.3217 35.6925 19.5361 36.6089 19.5361H39.2825C39.4752 19.5364 39.663 19.5964 39.8202 19.7079C39.9774 19.8193 40.0962 19.9767 40.1603 20.1584C40.1603 20.1601 40.162 20.1616 40.162 20.1633L40.5515 21.2932C40.6351 21.5354 40.7921 21.7454 41.0007 21.894C41.2094 22.0427 41.4591 22.1225 41.7153 22.1225H49.012C49.2682 22.1226 49.518 22.0427 49.7266 21.8941C49.9352 21.7454 50.0923 21.5354 50.1759 21.2932L50.5654 20.1633C50.5654 20.1616 50.5671 20.1601 50.5671 20.1584C50.6312 19.9767 50.75 19.8193 50.9071 19.7079C51.0643 19.5964 51.2522 19.5364 51.4449 19.5361H52.6409Z" fill="#EE5351"/>
<path d="M40.4465 26.5007H50.4147C51.171 26.5007 51.7157 27.2262 51.5049 27.9525L50.9588 29.834C50.8902 30.0701 50.7468 30.2776 50.5502 30.4252C50.3536 30.5729 50.1144 30.6527 49.8685 30.6527H40.9928C40.7469 30.6527 40.5077 30.5729 40.3111 30.4252C40.1145 30.2776 39.9711 30.0701 39.9025 29.834L39.3564 27.9525C39.1453 27.2262 39.6902 26.5007 40.4465 26.5007Z" fill="#FEC110"/>
<path d="M65.111 54.7147L59.8623 57.6291C57.9452 58.6944 55.527 58.0025 54.4618 56.0854C53.5469 54.4382 53.9267 52.424 55.2652 51.2134C55.4905 51.0085 55.739 50.8306 56.0055 50.6832L61.2542 47.7688C61.8424 47.441 62.5045 47.2691 63.1778 47.2693C64.5745 47.2693 65.929 48.0064 66.6548 49.3141C66.8571 49.6773 67.0011 50.0701 67.0816 50.4779C67.4031 52.1218 66.6547 53.8563 65.111 54.7147Z" fill="#F2AEA0"/>
<path d="M67.0819 50.4779C66.8563 50.6825 66.6078 50.8603 66.3415 51.0081L61.0928 53.9225C59.1742 54.9862 56.7558 54.2959 55.6907 52.3772C55.4889 52.0139 55.3455 51.6212 55.2656 51.2134C55.491 51.0085 55.7394 50.8306 56.006 50.6832L61.2547 47.7688C61.8428 47.441 62.505 47.2691 63.1783 47.2693C64.575 47.2693 65.9295 48.0064 66.6553 49.3141C66.8574 49.6774 67.0014 50.0701 67.0819 50.4779Z" fill="#FFC5AB"/>
<path d="M65.111 44.0865L59.8623 47.001C57.9452 48.0662 55.527 47.3743 54.4618 45.4572C53.5469 43.81 53.9267 41.7959 55.2652 40.5852C55.4905 40.3803 55.739 40.2024 56.0055 40.0551L61.2542 37.1406C61.8424 36.8129 62.5045 36.6409 63.1778 36.6411C64.5745 36.6411 65.929 37.3783 66.6548 38.6859C66.8571 39.0492 67.0011 39.4419 67.0816 39.8498C67.4031 41.4938 66.6547 43.2283 65.111 44.0865Z" fill="#F2AEA0"/>
<path d="M67.0819 39.8498C66.8563 40.0543 66.6078 40.2322 66.3415 40.3799L61.0928 43.2944C59.1742 44.3581 56.7558 43.6677 55.6907 41.749C55.4889 41.3858 55.3455 40.993 55.2656 40.5852C55.491 40.3803 55.7394 40.2024 56.006 40.0551L61.2547 37.1406C61.8428 36.8129 62.505 36.6409 63.1783 36.6411C64.575 36.6411 65.9295 37.3783 66.6553 38.6859C66.8574 39.0492 67.0014 39.4419 67.0819 39.8498Z" fill="#FFC5AB"/>
<path d="M65.111 35.3577L59.8623 38.2722C57.9452 39.3374 55.527 38.6456 54.4618 36.7284C53.5469 35.0813 53.9267 33.0671 55.2652 31.8565C55.4905 31.6515 55.739 31.4736 56.0055 31.3263L61.2542 28.4119C61.8424 28.0841 62.5045 27.9121 63.1778 27.9124C64.5745 27.9124 65.929 28.6495 66.6548 29.9572C66.8571 30.3204 67.0011 30.7131 67.0816 31.121C67.4031 32.7649 66.6547 34.4994 65.111 35.3577Z" fill="#F2AEA0"/>
<path d="M67.0819 31.121C66.8563 31.3255 66.6078 31.5034 66.3415 31.6512L61.0928 34.5656C59.1742 35.6293 56.7558 34.939 55.6907 33.0203C55.4889 32.657 55.3455 32.2643 55.2656 31.8565C55.491 31.6515 55.7394 31.4736 56.006 31.3263L61.2547 28.4119C61.8428 28.0841 62.505 27.9121 63.1783 27.9124C64.575 27.9124 65.9295 28.6495 66.6553 29.9572C66.8574 30.3204 67.0014 30.7131 67.0819 31.121Z" fill="#FFC5AB"/>
<path d="M59.4765 72.0526C66.6184 72.0526 72.4081 66.263 72.4081 59.121C72.4081 51.9791 66.6184 46.1895 59.4765 46.1895C52.3346 46.1895 46.5449 51.9791 46.5449 59.121C46.5449 66.263 52.3346 72.0526 59.4765 72.0526Z" fill="#09CC66"/>
<path d="M57.8642 65.6549C57.629 65.655 57.3965 65.6054 57.1817 65.5096C56.967 65.4138 56.7748 65.2738 56.6177 65.0988L51.4068 59.2924C50.7891 58.6039 50.8463 57.545 51.5348 56.9272C52.223 56.3094 53.2824 56.3667 53.9 57.055L57.9877 61.6099L66.1202 54.2519C66.8058 53.6315 67.8652 53.6842 68.4857 54.3704C69.1065 55.0563 69.0535 56.1154 68.3675 56.7361L58.9881 65.2224C58.6799 65.5008 58.2795 65.6549 57.8642 65.6549Z" fill="white"/>
</g>
<defs>
<clipPath id="clip0_23032_377">
<rect width="72" height="72" fill="white" transform="translate(4 4)"/>
</clipPath>
</defs>
</svg>
