<svg width="48" height="48" viewBox="0 0 48 48" fill="none" xmlns="http://www.w3.org/2000/svg">
<g clip-path="url(#clip0_23002_1320)">
<path d="M29.4624 26.1448L34.9601 31.6425C35.8158 32.4981 35.8158 33.8853 34.9601 34.741C34.1045 35.5966 32.7172 35.5966 31.8616 34.741L27.4756 30.355" stroke="#FF6B6B" stroke-width="2" stroke-miterlimit="10" stroke-linecap="round" stroke-linejoin="round"/>
<path d="M27.4747 30.355L31.3861 34.2664C32.2418 35.1221 32.2418 36.5093 31.3861 37.365C30.5304 38.2206 29.1432 38.2206 28.2876 37.365L25.4697 34.5471" stroke="#FF6B6B" stroke-width="2" stroke-miterlimit="10" stroke-linecap="round" stroke-linejoin="round"/>
<path d="M25.4703 34.5471L27.1885 36.2653C28.0441 37.121 28.0441 38.5082 27.1885 39.3638C26.3328 40.2195 24.9456 40.2195 24.0899 39.3638L23.2869 38.5608M37.3953 14.0031L36.9304 14.2352C36.1022 14.6484 35.1983 14.888 34.2741 14.9391C33.35 14.9902 32.4252 14.8518 31.5565 14.5325C30.3291 14.0812 29.0191 13.8994 27.7152 13.9993C26.4114 14.0992 25.1444 14.4785 24.0001 15.1115L19.9194 17.3689C18.5857 18.1066 18.1798 19.8341 19.0454 21.0886C19.7127 22.0556 20.9495 22.4492 22.0528 22.0455L27.1921 20.1652C27.7361 19.9662 28.3257 19.9268 28.8913 20.0517C29.4569 20.1766 29.9751 20.4606 30.3847 20.8702L38.0584 28.544C38.914 29.3996 38.914 30.7868 38.0584 31.6425C37.2027 32.4981 35.8155 32.4981 34.9599 31.6425L28.8999 25.5825" stroke="#FF6B6B" stroke-width="2" stroke-miterlimit="10" stroke-linecap="round" stroke-linejoin="round"/>
<path d="M23.9997 15.1115C22.8554 14.4785 21.5884 14.0992 20.2845 13.9993C18.9807 13.8994 17.6706 14.0812 16.4433 14.5325C15.5746 14.8519 14.6498 14.9903 13.7256 14.9392C12.8015 14.8881 11.8976 14.6485 11.0694 14.2352L10.6223 14.0121M38.1693 28.457L42.1493 26.3389M9.3861 28.1056L6.07129 25.4803M18.6184 30.7554L16.3206 33.0532M18.6184 30.7554C19.4741 29.8997 19.4741 28.5125 18.6184 27.6569C17.7628 26.8012 16.3755 26.8012 15.5199 27.6569L13.2221 29.9547C12.3664 30.8103 12.3664 32.1976 13.2221 33.0532C14.0777 33.9089 15.4649 33.9089 16.3206 33.0532M18.6184 30.7554C19.4741 29.8997 20.8613 29.8997 21.7169 30.7554C22.5726 31.6111 22.5726 32.9983 21.7169 33.8539L19.4191 36.1517C18.5635 37.0074 17.1763 37.0074 16.3206 36.1517C15.4649 35.2961 15.4649 33.9089 16.3206 33.0532" stroke="#FF6B6B" stroke-width="2" stroke-miterlimit="10" stroke-linecap="round" stroke-linejoin="round"/>
<path d="M23.8431 37.9252L23.0333 38.7349C22.1777 39.5905 20.7905 39.5905 19.9348 38.7349C19.0792 37.8792 19.0792 36.492 19.9348 35.6363L20.7445 34.8266C21.6002 33.971 22.9874 33.971 23.8431 34.8266C24.6987 35.6823 24.6987 37.0695 23.8431 37.9252ZM11.1466 25.8334L10.1239 26.8561C9.26822 27.7118 9.26822 29.099 10.1239 29.9546C10.9795 30.8103 12.3668 30.8103 13.2224 29.9546L14.2451 28.9319C15.1008 28.0763 15.1008 26.689 14.2451 25.8334C13.3895 24.9778 12.0023 24.9778 11.1466 25.8334ZM47.0625 26.2782L42.9658 27.7519L36.6218 11.9721L44.0621 7.99463L47.0625 26.2782ZM0.9375 26.2782L5.03419 27.7519L11.3782 11.9721L3.93788 7.99463L0.9375 26.2782Z" stroke="#FF6B6B" stroke-width="2" stroke-miterlimit="10" stroke-linecap="round" stroke-linejoin="round"/>
</g>
<defs>
<clipPath id="clip0_23002_1320">
<rect width="48" height="48" fill="white"/>
</clipPath>
</defs>
</svg>
