<svg width="48" height="48" viewBox="0 0 48 48" fill="none" xmlns="http://www.w3.org/2000/svg">
<path d="M40.1119 31.974C40.1427 32.1686 40.2116 32.3553 40.3145 32.5233C40.4175 32.6913 40.5525 32.8374 40.7119 32.9532C40.8713 33.069 41.052 33.1523 41.2436 33.1983C41.4352 33.2443 41.634 33.2521 41.8286 33.2212C42.0232 33.1904 42.2099 33.1216 42.3779 33.0186C42.5459 32.9156 42.692 32.7806 42.8078 32.6212C42.9236 32.4618 43.0069 32.2811 43.0529 32.0895C43.0989 31.8979 43.1067 31.6991 43.0759 31.5045L39.9454 11.754C39.8893 11.4016 39.7095 11.0807 39.4382 10.8489C39.1668 10.6171 38.8217 10.4897 38.4649 10.4895H32.8204C32.1004 6.2445 28.4104 3 23.9689 3C19.5274 3 15.8344 6.2445 15.1159 10.488H9.47136C9.11451 10.4882 8.76943 10.6156 8.49808 10.8474C8.22673 11.0792 8.04689 11.4001 7.99086 11.7525L3.01836 43.2015C2.98454 43.4156 2.99755 43.6346 3.05648 43.8432C3.11541 44.0519 3.21886 44.2453 3.35972 44.4101C3.50058 44.5749 3.67549 44.7072 3.87241 44.7979C4.06932 44.8886 4.28356 44.9356 4.50036 44.9355H31.4104C31.8082 44.9355 32.1897 44.7775 32.471 44.4962C32.7523 44.2149 32.9104 43.8333 32.9104 43.4355C32.9104 43.0377 32.7523 42.6561 32.471 42.3748C32.1897 42.0935 31.8082 41.9355 31.4104 41.9355H6.25536L10.7554 13.488H37.1854L40.1119 31.974ZM23.9704 6C26.7499 6 29.0734 7.914 29.7439 10.488H18.1954C18.8644 7.914 21.1879 6 23.9704 6Z" fill="#FF6B6B"/>
<path d="M32.955 19.4746C32.955 19.0768 32.797 18.6953 32.5157 18.4139C32.2344 18.1326 31.8529 17.9746 31.455 17.9746C31.0572 17.9746 30.6757 18.1326 30.3944 18.4139C30.1131 18.6953 29.955 19.0768 29.955 19.4746C29.955 22.7776 27.27 25.4626 23.9685 25.4626C20.667 25.4626 17.9805 22.7776 17.9805 19.4746C17.9805 19.0768 17.8225 18.6953 17.5412 18.4139C17.2599 18.1326 16.8784 17.9746 16.4805 17.9746C16.0827 17.9746 15.7012 18.1326 15.4199 18.4139C15.1386 18.6953 14.9805 19.0768 14.9805 19.4746C14.9805 24.4306 19.0125 28.4626 23.9685 28.4626C28.9245 28.4626 32.955 24.4306 32.955 19.4746ZM9.76953 36.5026C9.76953 36.9004 9.92757 37.282 10.2089 37.5633C10.4902 37.8446 10.8717 38.0026 11.2695 38.0026H31.485C31.8829 38.0026 32.2644 37.8446 32.5457 37.5633C32.827 37.282 32.985 36.9004 32.985 36.5026C32.985 36.1048 32.827 35.7233 32.5457 35.4419C32.2644 35.1606 31.8829 35.0026 31.485 35.0026H11.2695C10.8717 35.0026 10.4902 35.1606 10.2089 35.4419C9.92757 35.7233 9.76953 36.1048 9.76953 36.5026ZM44.5605 36.3211C44.2792 36.0399 43.8978 35.8819 43.5 35.8819C43.1023 35.8819 42.7208 36.0399 42.4395 36.3211L40.44 38.3191L38.442 36.3211C38.3037 36.1778 38.1381 36.0636 37.9551 35.985C37.7721 35.9063 37.5753 35.865 37.3761 35.8632C37.177 35.8615 36.9794 35.8995 36.7951 35.9749C36.6108 36.0503 36.4433 36.1617 36.3024 36.3025C36.1616 36.4434 36.0502 36.6108 35.9748 36.7952C35.8994 36.9795 35.8614 37.177 35.8632 37.3762C35.8649 37.5754 35.9063 37.7722 35.9849 37.9552C36.0635 38.1382 36.1778 38.3037 36.321 38.4421L38.319 40.4401L36.321 42.4396C36.1778 42.578 36.0635 42.7435 35.9849 42.9265C35.9063 43.1095 35.8649 43.3063 35.8632 43.5055C35.8614 43.7047 35.8994 43.9022 35.9748 44.0865C36.0502 44.2709 36.1616 44.4384 36.3024 44.5792C36.4433 44.72 36.6108 44.8314 36.7951 44.9068C36.9794 44.9823 37.177 45.0202 37.3761 45.0185C37.5753 45.0168 37.7721 44.9754 37.9551 44.8968C38.1381 44.8181 38.3037 44.7039 38.442 44.5606L40.44 42.5626L42.4395 44.5606C42.5785 44.7004 42.7438 44.8113 42.9258 44.887C43.1077 44.9627 43.3029 45.0017 43.5 45.0017C43.6971 45.0017 43.8923 44.9627 44.0743 44.887C44.2563 44.8113 44.4216 44.7004 44.5605 44.5606C44.8417 44.2793 44.9997 43.8979 44.9997 43.5001C44.9997 43.1024 44.8417 42.7209 44.5605 42.4396L42.5625 40.4401L44.5605 38.4421C44.8417 38.1608 44.9997 37.7794 44.9997 37.3816C44.9997 36.9839 44.8417 36.6024 44.5605 36.3211Z" fill="#FF6B6B"/>
</svg>
