<svg width="40" height="40" viewBox="0 0 40 40" fill="none" xmlns="http://www.w3.org/2000/svg">
<g clip-path="url(#clip0_22999_702)">
<path d="M39.6535 29.103L35.5535 27.053L32.9441 20.2655C32.9134 20.1853 32.8665 20.1122 32.8063 20.0509C32.746 19.9896 32.6738 19.9414 32.5941 19.9093L16.4035 13.4374C16.2903 13.3923 16.1664 13.3813 16.047 13.4058C15.9277 13.4302 15.818 13.489 15.7316 13.5749L13.5723 15.7343C13.4875 15.8207 13.4297 15.93 13.4058 16.0487C13.3819 16.1674 13.3931 16.2905 13.4379 16.403L19.9098 32.5936C19.9419 32.6733 19.9901 32.7456 20.0514 32.8058C20.1127 32.866 20.1858 32.9129 20.266 32.9436L27.0535 35.553L29.1035 39.653C29.1467 39.7434 29.2109 39.8221 29.2909 39.8825C29.3708 39.9429 29.4641 39.9831 29.5629 39.9999C29.5962 40.003 29.6296 40.003 29.6629 39.9999C29.8284 39.9992 29.9868 39.9329 30.1035 39.8155L39.816 30.103C39.8875 30.034 39.9415 29.949 39.9736 29.855C40.0056 29.761 40.0148 29.6607 40.0004 29.5624C39.9836 29.4636 39.9434 29.3703 39.883 29.2904C39.8226 29.2104 39.7439 29.1462 39.6535 29.103ZM14.7473 16.3218L15.0941 15.978L23.1535 24.0374C22.6224 24.79 22.393 25.7146 22.5107 26.6282C22.6284 27.5418 23.0847 28.378 23.7892 28.9714C24.4938 29.5648 25.3954 29.8723 26.3157 29.8329C27.2361 29.7936 28.1081 29.4104 28.7595 28.759C29.4109 28.1076 29.7941 27.2356 29.8334 26.3152C29.8728 25.3949 29.5653 24.4933 28.9719 23.7887C28.3785 23.0842 27.5423 22.6279 26.6287 22.5102C25.7151 22.3925 24.7905 22.6219 24.0379 23.153L15.9785 15.0936L16.3223 14.7468L31.8754 20.9686L34.3285 27.3499L27.3504 34.328L20.9691 31.8749L14.7473 16.3218ZM26.1566 23.728C26.7184 23.7289 27.2624 23.9244 27.6961 24.2814C28.1298 24.6384 28.4263 25.1346 28.5351 25.6857C28.644 26.2368 28.5584 26.8085 28.2929 27.3036C28.0275 27.7986 27.5986 28.1863 27.0794 28.4006C26.5602 28.6149 25.9827 28.6426 25.4454 28.4789C24.908 28.3151 24.4441 27.9702 24.1326 27.5028C23.821 27.0354 23.6812 26.4744 23.7369 25.9155C23.7925 25.3565 24.0403 24.8342 24.4379 24.4374C24.8942 23.9825 25.5124 23.7274 26.1566 23.728ZM29.8348 38.3186L28.2723 35.1936L35.1879 28.278L38.3129 29.8405L29.8348 38.3186Z" fill="white"/>
<path d="M11.9536 33.4374C11.8341 33.3245 11.6758 33.2615 11.5114 33.2615C11.3469 33.2615 11.1887 33.3245 11.0692 33.4374L10.2755 34.2312C8.15727 31.3563 6.98873 27.8923 6.93272 24.3218C6.8767 20.7513 7.93599 17.2523 9.96296 14.3124C10.5702 14.6466 11.2695 14.775 11.9558 14.6783C12.6422 14.5816 13.2788 14.2651 13.7701 13.7762C14.2615 13.2873 14.5812 12.6524 14.6813 11.9665C14.7814 11.2806 14.6566 10.5808 14.3255 9.97181C17.2653 7.94484 20.7643 6.88555 24.3348 6.94157C27.9053 6.99759 31.3694 8.16612 34.2442 10.2843L33.438 11.0687C33.3217 11.1859 33.2566 11.3443 33.2567 11.5093C33.2562 11.5916 33.272 11.6731 33.3031 11.7492C33.3342 11.8254 33.38 11.8947 33.438 11.9531L36.1942 14.6874C36.3113 14.8038 36.4697 14.8692 36.6348 14.8692C36.7999 14.8692 36.9584 14.8038 37.0755 14.6874L39.8161 11.9468C39.8742 11.8888 39.9203 11.8198 39.9517 11.744C39.9832 11.6681 39.9994 11.5868 39.9994 11.5046C39.9994 11.4225 39.9832 11.3412 39.9517 11.2653C39.9203 11.1894 39.8742 11.1205 39.8161 11.0624L37.0755 8.32181C36.9584 8.2054 36.7999 8.14006 36.6348 8.14006C36.4697 8.14006 36.3113 8.2054 36.1942 8.32181L35.1348 9.37493C32.5239 7.41023 29.4371 6.17586 26.1914 5.79857C22.9457 5.42127 19.6581 5.91466 16.6661 7.22806L20.2692 3.63431C20.6778 3.82952 21.1422 3.87371 21.5803 3.75903C22.0183 3.64436 22.4015 3.37823 22.662 3.00787C22.9225 2.63751 23.0433 2.18685 23.0032 1.73585C22.963 1.28485 22.7643 0.862664 22.4425 0.544188C22.1206 0.225712 21.6964 0.0315364 21.245 -0.00389048C20.7936 -0.0393173 20.3442 0.0862947 19.9766 0.350661C19.609 0.615028 19.347 1.00106 19.2369 1.44027C19.1269 1.87948 19.1759 2.34347 19.3755 2.74993L13.2942 8.84056C12.6768 8.42637 11.9347 8.23942 11.1947 8.31162C10.4547 8.38383 9.76272 8.71072 9.23698 9.23646C8.71124 9.76219 8.38435 10.4542 8.31215 11.1941C8.23994 11.9341 8.4269 12.6762 8.84108 13.2937L2.75046 19.3749C2.3424 19.1761 1.87707 19.1284 1.43715 19.2402C0.997223 19.3521 0.611201 19.6163 0.347676 19.9859C0.0841502 20.3555 -0.0398115 20.8065 -0.00218175 21.2589C0.035448 21.7112 0.232232 22.1356 0.553203 22.4566C0.874173 22.7775 1.29854 22.9743 1.7509 23.0119C2.20326 23.0496 2.65431 22.9256 3.0239 22.6621C3.39349 22.3986 3.65769 22.0125 3.76955 21.5726C3.8814 21.1327 3.83367 20.6674 3.63483 20.2593L7.23796 16.6656C5.92325 19.6567 5.4283 22.9439 5.80395 26.1896C6.17959 29.4353 7.41228 32.5225 9.37546 35.1343L8.31921 36.1937C8.2028 36.3108 8.13746 36.4692 8.13746 36.6343C8.13746 36.7994 8.2028 36.9578 8.31921 37.0749L11.0598 39.8156C11.1765 39.9329 11.335 39.9992 11.5005 39.9999C11.5829 40 11.6646 39.9837 11.7408 39.9521C11.8169 39.9205 11.8861 39.8741 11.9442 39.8156L14.688 37.0749C14.8044 36.9578 14.8697 36.7994 14.8697 36.6343C14.8697 36.4692 14.8044 36.3108 14.688 36.1937L11.9536 33.4374ZM36.6411 9.64056L38.4973 11.4968L36.6411 13.3531L34.7848 11.4968L36.6411 9.64056ZM20.6255 1.44681C20.7183 1.35318 20.8369 1.28924 20.9662 1.26312C21.0955 1.237 21.2296 1.24986 21.3515 1.30008C21.4734 1.3503 21.5777 1.43562 21.6511 1.54519C21.7245 1.65477 21.7637 1.78368 21.7637 1.91556C21.7637 2.04744 21.7245 2.17634 21.6511 2.28592C21.5777 2.3955 21.4734 2.48081 21.3515 2.53103C21.2296 2.58125 21.0955 2.59412 20.9662 2.56799C20.8369 2.54187 20.7183 2.47794 20.6255 2.38431C20.5639 2.32278 20.515 2.24971 20.4816 2.16928C20.4483 2.08884 20.4311 2.00263 20.4311 1.91556C20.4311 1.82849 20.4483 1.74227 20.4816 1.66184C20.515 1.58141 20.5639 1.50834 20.6255 1.44681ZM10.1255 10.1249C10.3069 9.94258 10.5227 9.79787 10.7602 9.69913C10.9978 9.60039 11.2526 9.54956 11.5098 9.54956C11.7671 9.54956 12.0218 9.60039 12.2594 9.69913C12.497 9.79787 12.7127 9.94258 12.8942 10.1249C13.1685 10.3988 13.3555 10.748 13.4313 11.1281C13.5072 11.5083 13.4686 11.9024 13.3204 12.2606C13.1722 12.6188 12.921 12.925 12.5987 13.1405C12.2764 13.3559 11.8975 13.4709 11.5098 13.4709C11.1222 13.4709 10.7432 13.3559 10.4209 13.1405C10.0986 12.925 9.84751 12.6188 9.6993 12.2606C9.5511 11.9024 9.51248 11.5083 9.58834 11.1281C9.66419 10.748 9.85112 10.3988 10.1255 10.1249ZM2.38796 21.5624C2.26036 21.6688 2.09758 21.7237 1.93161 21.7162C1.76564 21.7087 1.60847 21.6394 1.49099 21.5219C1.37351 21.4044 1.30421 21.2473 1.29671 21.0813C1.28921 20.9153 1.34405 20.7525 1.45046 20.6249C1.57552 20.502 1.74386 20.4332 1.91921 20.4332C2.09456 20.4332 2.26289 20.502 2.38796 20.6249C2.44956 20.6865 2.49844 20.7595 2.53178 20.84C2.56513 20.9204 2.58229 21.0066 2.58229 21.0937C2.58229 21.1808 2.56513 21.267 2.53178 21.3474C2.49844 21.4278 2.44956 21.5009 2.38796 21.5624ZM11.5098 38.4781L9.65358 36.6218L11.5098 34.7656L13.3661 36.6218L11.5098 38.4781Z" fill="white"/>
</g>
<defs>
<clipPath id="clip0_22999_702">
<rect width="40" height="40" fill="white"/>
</clipPath>
</defs>
</svg>
