<svg width="40" height="40" viewBox="0 0 40 40" fill="none" xmlns="http://www.w3.org/2000/svg">
<g clip-path="url(#clip0_22999_713)">
<path d="M35.8333 30H30.8333C30.6123 30 30.4004 29.9122 30.2441 29.7559C30.0878 29.5996 30 29.3877 30 29.1667C30 28.9457 30.0878 28.7337 30.2441 28.5774C30.4004 28.4211 30.6123 28.3333 30.8333 28.3333H35.8333C37.2117 28.3333 38.3333 27.2117 38.3333 25.8333V14.1667C38.3333 12.7883 37.2117 11.6667 35.8333 11.6667H4.16667C2.78833 11.6667 1.66667 12.7883 1.66667 14.1667V25.8333C1.66667 27.2117 2.78833 28.3333 4.16667 28.3333H9.16667C9.38768 28.3333 9.59964 28.4211 9.75592 28.5774C9.9122 28.7337 10 28.9457 10 29.1667C10 29.3877 9.9122 29.5996 9.75592 29.7559C9.59964 29.9122 9.38768 30 9.16667 30H4.16667C3.062 29.9987 2.00296 29.5593 1.22185 28.7781C0.440735 27.997 0.00132321 26.938 0 25.8333V14.1667C0 11.87 1.86833 10 4.16667 10H35.8333C38.1317 10 40 11.87 40 14.1667V25.8333C40 28.13 38.1317 30 35.8333 30ZM24.1667 35H14.1667C13.9457 35 13.7337 34.9122 13.5774 34.7559C13.4211 34.5996 13.3333 34.3877 13.3333 34.1667C13.3333 33.9457 13.4211 33.7337 13.5774 33.5774C13.7337 33.4211 13.9457 33.3333 14.1667 33.3333H24.1667C24.3877 33.3333 24.5996 33.4211 24.7559 33.5774C24.9122 33.7337 25 33.9457 25 34.1667C25 34.3877 24.9122 34.5996 24.7559 34.7559C24.5996 34.9122 24.3877 35 24.1667 35ZM24.1667 31.6667H14.1667C13.9457 31.6667 13.7337 31.5789 13.5774 31.4226C13.4211 31.2663 13.3333 31.0543 13.3333 30.8333C13.3333 30.6123 13.4211 30.4004 13.5774 30.2441C13.7337 30.0878 13.9457 30 14.1667 30H24.1667C24.3877 30 24.5996 30.0878 24.7559 30.2441C24.9122 30.4004 25 30.6123 25 30.8333C25 31.0543 24.9122 31.2663 24.7559 31.4226C24.5996 31.5789 24.3877 31.6667 24.1667 31.6667Z" fill="white"/>
<path d="M17.4997 28.3333H14.1663C13.9453 28.3333 13.7334 28.2455 13.5771 28.0893C13.4208 27.933 13.333 27.721 13.333 27.5C13.333 27.279 13.4208 27.067 13.5771 26.9107C13.7334 26.7545 13.9453 26.6667 14.1663 26.6667H17.4997C17.7207 26.6667 17.9327 26.7545 18.0889 26.9107C18.2452 27.067 18.333 27.279 18.333 27.5C18.333 27.721 18.2452 27.933 18.0889 28.0893C17.9327 28.2455 17.7207 28.3333 17.4997 28.3333ZM30.833 11.6667C30.612 11.6667 30.4 11.5789 30.2438 11.4226C30.0875 11.2663 29.9997 11.0543 29.9997 10.8333V4.16667C29.9997 2.78833 28.878 1.66667 27.4997 1.66667H12.4997C11.1213 1.66667 9.99967 2.78833 9.99967 4.16667V10.8333C9.99967 11.0543 9.91188 11.2663 9.7556 11.4226C9.59932 11.5789 9.38735 11.6667 9.16634 11.6667C8.94533 11.6667 8.73337 11.5789 8.57709 11.4226C8.42081 11.2663 8.33301 11.0543 8.33301 10.8333V4.16667C8.33301 1.87 10.2013 0 12.4997 0H27.4997C29.798 0 31.6663 1.87 31.6663 4.16667V10.8333C31.6663 11.0543 31.5785 11.2663 31.4223 11.4226C31.266 11.5789 31.054 11.6667 30.833 11.6667Z" fill="white"/>
<path d="M27.4997 39.9998H12.4997C11.395 39.9985 10.336 39.5591 9.55486 38.778C8.77374 37.9969 8.33433 36.9378 8.33301 35.8332V22.4998C8.33301 22.2788 8.42081 22.0669 8.57709 21.9106C8.73337 21.7543 8.94533 21.6665 9.16634 21.6665H30.833C31.054 21.6665 31.266 21.7543 31.4223 21.9106C31.5785 22.0669 31.6663 22.2788 31.6663 22.4998V35.8332C31.6663 38.1298 29.798 39.9998 27.4997 39.9998ZM9.99967 23.3332V35.8332C9.99967 37.2115 11.1213 38.3332 12.4997 38.3332H27.4997C28.878 38.3332 29.9997 37.2115 29.9997 35.8332V23.3332H9.99967Z" fill="white"/>
</g>
<defs>
<clipPath id="clip0_22999_713">
<rect width="40" height="40" fill="white"/>
</clipPath>
</defs>
</svg>
