<svg width="40" height="40" viewBox="0 0 40 40" fill="none" xmlns="http://www.w3.org/2000/svg">
<path d="M12.5003 28.3333C12.2793 28.3333 12.0674 28.2455 11.9111 28.0893C11.7548 27.933 11.667 27.721 11.667 27.5V8.33333C11.667 6.495 13.162 5 15.0003 5C16.8387 5 18.3337 6.495 18.3337 8.33333V25.8333C18.3337 26.0543 18.2459 26.2663 18.0896 26.4226C17.9333 26.5789 17.7213 26.6667 17.5003 26.6667C17.2793 26.6667 17.0673 26.5789 16.9111 26.4226C16.7548 26.2663 16.667 26.0543 16.667 25.8333V8.33333C16.667 7.89131 16.4914 7.46738 16.1788 7.15482C15.8663 6.84226 15.4424 6.66667 15.0003 6.66667C14.5583 6.66667 14.1344 6.84226 13.8218 7.15482C13.5093 7.46738 13.3337 7.89131 13.3337 8.33333V27.5C13.3337 27.721 13.2459 27.933 13.0896 28.0893C12.9333 28.2455 12.7213 28.3333 12.5003 28.3333Z" fill="white"/>
<path d="M22.5003 26.6667C22.2793 26.6667 22.0673 26.5789 21.9111 26.4226C21.7548 26.2663 21.667 26.0543 21.667 25.8333V18.3333C21.667 17.8913 21.4914 17.4674 21.1788 17.1548C20.8663 16.8423 20.4424 16.6667 20.0003 16.6667C19.5583 16.6667 19.1344 16.8423 18.8218 17.1548C18.5093 17.4674 18.3337 17.8913 18.3337 18.3333C18.3337 18.5543 18.2459 18.7663 18.0896 18.9226C17.9333 19.0789 17.7213 19.1667 17.5003 19.1667C17.2793 19.1667 17.0673 19.0789 16.9111 18.9226C16.7548 18.7663 16.667 18.5543 16.667 18.3333C16.667 16.495 18.162 15 20.0003 15C21.8387 15 23.3337 16.495 23.3337 18.3333V25.8333C23.3337 26.0543 23.2459 26.2663 23.0896 26.4226C22.9333 26.5789 22.7213 26.6667 22.5003 26.6667Z" fill="white"/>
<path d="M27.5003 26.6665C27.2793 26.6665 27.0673 26.5787 26.9111 26.4224C26.7548 26.2661 26.667 26.0542 26.667 25.8332V19.9998C26.667 19.5578 26.4914 19.1339 26.1788 18.8213C25.8663 18.5088 25.4424 18.3332 25.0003 18.3332C24.5583 18.3332 24.1344 18.5088 23.8218 18.8213C23.5093 19.1339 23.3337 19.5578 23.3337 19.9998C23.3337 20.2209 23.2459 20.4328 23.0896 20.5891C22.9333 20.7454 22.7213 20.8332 22.5003 20.8332C22.2793 20.8332 22.0673 20.7454 21.9111 20.5891C21.7548 20.4328 21.667 20.2209 21.667 19.9998C21.667 18.1615 23.162 16.6665 25.0003 16.6665C26.8387 16.6665 28.3337 18.1615 28.3337 19.9998V25.8332C28.3337 26.0542 28.2459 26.2661 28.0896 26.4224C27.9333 26.5787 27.7213 26.6665 27.5003 26.6665Z" fill="white"/>
<path d="M25.8336 40H16.1886C13.3836 40 10.4903 38.7783 8.4453 36.7317C6.18864 34.4733 4.99697 31.2517 5.00197 27.4183C5.00364 24.2483 7.6553 21.6667 10.9103 21.6667H12.5003C12.7213 21.6667 12.9333 21.7545 13.0896 21.9107C13.2458 22.067 13.3336 22.279 13.3336 22.5C13.3336 22.721 13.2458 22.933 13.0896 23.0893C12.9333 23.2455 12.7213 23.3333 12.5003 23.3333H10.9103C8.57364 23.3333 6.6703 25.1683 6.66864 27.42C6.6653 30.85 7.6603 33.585 9.62364 35.5533C11.672 37.6033 14.357 38.3333 16.1886 38.3333H25.8336C29.0503 38.3333 31.667 35.7167 31.667 32.5V21.6667C31.667 21.2246 31.4914 20.8007 31.1788 20.4882C30.8663 20.1756 30.4423 20 30.0003 20C29.5583 20 29.1344 20.1756 28.8218 20.4882C28.5092 20.8007 28.3336 21.2246 28.3336 21.6667C28.3336 21.8877 28.2458 22.0996 28.0896 22.2559C27.9333 22.4122 27.7213 22.5 27.5003 22.5C27.2793 22.5 27.0673 22.4122 26.911 22.2559C26.7548 22.0996 26.667 21.8877 26.667 21.6667C26.667 19.8283 28.162 18.3333 30.0003 18.3333C31.8386 18.3333 33.3336 19.8283 33.3336 21.6667V32.5C33.3336 36.635 29.9686 40 25.8336 40ZM20.8336 13.8667C20.6759 13.8669 20.5214 13.8222 20.3881 13.7379C20.2548 13.6536 20.1482 13.5332 20.0808 13.3906C20.0134 13.2481 19.9878 13.0893 20.0072 12.9328C20.0266 12.7762 20.0901 12.6285 20.1903 12.5067C21.1553 11.3233 21.667 9.88 21.667 8.33333C21.667 4.65667 18.677 1.66667 15.0003 1.66667C11.3236 1.66667 8.33364 4.65667 8.33364 8.33333C8.33364 9.88 8.8453 11.3233 9.81197 12.5067C9.95187 12.6775 10.0182 12.8969 9.9963 13.1167C9.97442 13.3364 9.86615 13.5384 9.6953 13.6783C9.52446 13.8182 9.30504 13.8845 9.08531 13.8627C8.86558 13.8408 8.66354 13.7325 8.52364 13.5617C7.31332 12.0891 6.65647 10.2394 6.66697 8.33333C6.66697 3.73833 10.4053 0 15.0003 0C19.5953 0 23.3336 3.73833 23.3336 8.33333C23.344 10.2391 22.6879 12.0886 21.4786 13.5617C21.4006 13.6574 21.3023 13.7344 21.1907 13.7872C21.0791 13.8399 20.9571 13.8671 20.8336 13.8667Z" fill="white"/>
</svg>
