<svg width="40" height="40" viewBox="0 0 40 40" fill="none" xmlns="http://www.w3.org/2000/svg">
<g clip-path="url(#clip0_23022_1515)">
<path d="M33.8216 16.019C34.8058 15.6413 35.6267 14.9308 36.1418 14.0109C36.6568 13.0911 36.8335 12.0199 36.6411 10.9833C36.4487 9.9468 35.8994 9.01035 35.0886 8.33656C34.2778 7.66277 33.2566 7.29419 32.2024 7.29481C31.1481 7.29542 30.1274 7.66519 29.3173 8.33991C28.5073 9.01464 27.9591 9.95173 27.7679 10.9885C27.5767 12.0253 27.7546 13.0962 28.2708 14.0155C28.7869 14.9348 29.6086 15.6443 30.5933 16.0209C29.547 16.1827 28.5483 16.5698 27.6663 17.1554C26.7843 17.741 26.0399 18.5112 25.4847 19.4126C24.4093 18.8802 23.2507 18.5357 22.0591 18.3938C23.5144 17.9052 24.7486 16.9151 25.5411 15.6004C26.3337 14.2856 26.6329 12.7319 26.3854 11.2169C26.1379 9.70183 25.3597 8.32416 24.19 7.33002C23.0202 6.33587 21.5351 5.79004 20 5.79004C18.4648 5.79004 16.9797 6.33587 15.81 7.33002C14.6402 8.32416 13.8621 9.70183 13.6145 11.2169C13.367 12.7319 13.6663 14.2856 14.4588 15.6004C15.2513 16.9151 16.4855 17.9052 17.9408 18.3938C16.7493 18.5357 15.5909 18.8803 14.5156 19.4126C13.9603 18.5112 13.216 17.7411 12.3339 17.1555C11.4519 16.5699 10.4533 16.1828 9.40703 16.0209C10.3918 15.6443 11.2135 14.9348 11.7297 14.0155C12.2458 13.0962 12.4238 12.0251 12.2326 10.9883C12.0414 9.95152 11.4932 9.01439 10.6831 8.33963C9.87307 7.66487 8.85229 7.29508 7.798 7.29447C6.74371 7.29386 5.72249 7.66246 4.91163 8.33628C4.10078 9.0101 3.55148 9.94659 3.3591 10.9832C3.16672 12.0198 3.34341 13.091 3.85849 14.0109C4.37357 14.9308 5.19453 15.6413 6.17883 16.019C4.46061 16.2815 2.89308 17.1503 1.75978 18.4682C0.626478 19.786 0.00224589 21.466 0 23.2042L0 26.2985C0 26.4643 0.065848 26.6233 0.183058 26.7405C0.300269 26.8577 0.45924 26.9235 0.625 26.9235H8.78398C8.65674 27.5851 8.5927 28.2572 8.59273 28.9309V33.5842C8.59273 33.75 8.65858 33.909 8.77579 34.0262C8.893 34.1434 9.05197 34.2092 9.21773 34.2092H30.7823C30.948 34.2092 31.107 34.1434 31.2242 34.0262C31.3414 33.909 31.4073 33.75 31.4073 33.5842V28.9309C31.4073 28.2572 31.3433 27.5851 31.216 26.9235H39.375C39.5408 26.9235 39.6997 26.8577 39.8169 26.7405C39.9342 26.6233 40 26.4643 40 26.2985V23.2042C39.9978 21.4661 39.3736 19.7862 38.2404 18.4683C37.1071 17.1504 35.5397 16.2816 33.8216 16.019ZM31.8578 17.1878H32.5522L33.2156 21.9699L32.2051 23.1752L31.1945 21.9699L31.8578 17.1878ZM28.9431 11.8081C28.9431 11.1629 29.1344 10.5322 29.4928 9.9958C29.8512 9.45936 30.3607 9.04126 30.9567 8.79436C31.5528 8.54746 32.2086 8.48285 32.8414 8.6087C33.4742 8.73456 34.0554 9.04522 34.5116 9.50141C34.9678 9.9576 35.2785 10.5388 35.4044 11.1716C35.5302 11.8043 35.4656 12.4602 35.2187 13.0563C34.9719 13.6523 34.5538 14.1618 34.0173 14.5202C33.4809 14.8786 32.8502 15.0699 32.2051 15.0699C31.3402 15.069 30.511 14.725 29.8995 14.1134C29.288 13.5018 28.944 12.6726 28.9431 11.8078V11.8081ZM21.8508 27.1694L20 29.3768L18.1491 27.1694L19.2038 19.5678H20.7964L21.8508 27.1694ZM14.7799 12.2616C14.7799 11.2291 15.0861 10.2199 15.6597 9.36146C16.2333 8.50302 17.0485 7.83395 18.0024 7.43886C18.9562 7.04376 20.0058 6.94039 21.0184 7.14181C22.031 7.34322 22.9611 7.84039 23.6912 8.57043C24.4212 9.30047 24.9184 10.2306 25.1198 11.2432C25.3212 12.2558 25.2178 13.3054 24.8227 14.2592C24.4276 15.2131 23.7586 16.0283 22.9001 16.6019C22.0417 17.1755 21.0324 17.4817 20 17.4817C18.616 17.4801 17.2892 16.9296 16.3106 15.951C15.332 14.9724 14.7815 13.6455 14.7799 12.2616ZM7.44773 17.1878H8.14219L8.80555 21.9699L7.79492 23.1749L6.78437 21.9696L7.44773 17.1878ZM4.53305 11.8078C4.53303 11.1626 4.72433 10.5319 5.08275 9.99548C5.44117 9.45904 5.95062 9.04094 6.54667 8.79404C7.14272 8.54714 7.79859 8.48254 8.43136 8.6084C9.06412 8.73426 9.64535 9.04493 10.1015 9.50113C10.5577 9.95732 10.8684 10.5386 10.9943 11.1713C11.1201 11.8041 11.0555 12.46 10.8086 13.056C10.5617 13.6521 10.1436 14.1615 9.60719 14.5199C9.07076 14.8783 8.44008 15.0696 7.79492 15.0696C6.93012 15.0686 6.10103 14.7247 5.48952 14.1132C4.87802 13.5016 4.53404 12.6726 4.53305 11.8078ZM4.22836 25.6735C4.22992 25.6556 4.23109 25.6377 4.23109 25.6193V22.4872C4.23109 22.3214 4.16525 22.1625 4.04804 22.0453C3.93083 21.9281 3.77185 21.8622 3.60609 21.8622C3.44033 21.8622 3.28136 21.9281 3.16415 22.0453C3.04694 22.1625 2.98109 22.3214 2.98109 22.4872V25.6193C2.98109 25.6377 2.98227 25.6556 2.98383 25.6735H1.25V23.2042C1.25205 21.7991 1.74508 20.4389 2.64384 19.3588C3.54259 18.2787 4.79055 17.5467 6.17188 17.2894L5.50781 22.0726C5.49579 22.1591 5.50205 22.2472 5.52617 22.3312C5.5503 22.4152 5.59177 22.4931 5.64789 22.5601L7.3157 24.5492C7.37437 24.6191 7.44765 24.6754 7.53039 24.714C7.61314 24.7526 7.70334 24.7726 7.79465 24.7726C7.88596 24.7726 7.97616 24.7526 8.0589 24.714C8.14165 24.6754 8.21493 24.6191 8.27359 24.5492L9.94141 22.5601C9.99755 22.4932 10.039 22.4152 10.0632 22.3312C10.0873 22.2472 10.0936 22.1591 10.0816 22.0726L9.41805 17.2904C10.2395 17.4462 11.0198 17.7703 11.71 18.2422C12.4002 18.7141 12.9853 19.3237 13.4286 20.0326C11.3844 21.3631 9.85819 23.3542 9.10453 25.6738L4.22836 25.6735ZM30.1572 32.9592H26.7822C26.8741 32.8476 26.9242 32.7074 26.924 32.5628V27.8526C26.924 27.6868 26.8581 27.5279 26.7409 27.4107C26.6237 27.2934 26.4647 27.2276 26.299 27.2276C26.1332 27.2276 25.9743 27.2934 25.857 27.4107C25.7398 27.5279 25.674 27.6868 25.674 27.8526V32.5628C25.6738 32.7075 25.724 32.8476 25.8159 32.9593H14.184C14.2759 32.8477 14.3261 32.7075 14.3259 32.5628V27.8527C14.3259 27.6869 14.26 27.5279 14.1428 27.4107C14.0256 27.2935 13.8666 27.2277 13.7009 27.2277C13.5351 27.2277 13.3761 27.2935 13.2589 27.4107C13.1417 27.5279 13.0759 27.6869 13.0759 27.8527V32.5628C13.0757 32.7075 13.1258 32.8476 13.2177 32.9593H9.84273V28.9309C9.84563 26.6695 10.6657 24.4854 12.1517 22.7809C13.6378 21.0764 15.6898 19.9664 17.9297 19.6554L16.873 27.2726C16.861 27.3591 16.8672 27.4472 16.8914 27.5312C16.9155 27.6152 16.957 27.6932 17.0131 27.7601L19.5209 30.7513C19.5796 30.8212 19.6529 30.8775 19.7356 30.9161C19.8184 30.9547 19.9086 30.9747 19.9999 30.9747C20.0912 30.9747 20.1814 30.9547 20.2641 30.9161C20.3469 30.8775 20.4202 30.8212 20.4788 30.7513L22.9866 27.7601C23.0428 27.6932 23.0843 27.6152 23.1084 27.5312C23.1325 27.4472 23.1388 27.3591 23.1268 27.2726L22.07 19.6554C24.3099 19.9664 26.362 21.0763 27.8481 22.7808C29.3343 24.4853 30.1544 26.6695 30.1573 28.9309L30.1572 32.9592ZM38.75 25.6735H37.0161C37.0176 25.6556 37.0188 25.6377 37.0188 25.6193V22.4872C37.0188 22.3214 36.953 22.1625 36.8358 22.0453C36.7186 21.9281 36.5596 21.8622 36.3938 21.8622C36.2281 21.8622 36.0691 21.9281 35.9519 22.0453C35.8347 22.1625 35.7688 22.3214 35.7688 22.4872V25.6193C35.7688 25.6377 35.77 25.6556 35.7716 25.6735H30.8952C30.1415 23.3539 28.6153 21.3628 26.5712 20.0323C27.0144 19.3233 27.5995 18.7138 28.2897 18.2418C28.9799 17.7699 29.7602 17.4459 30.5816 17.2901L29.9181 22.0723C29.9061 22.1588 29.9124 22.2469 29.9365 22.3309C29.9607 22.4149 30.0021 22.4928 30.0583 22.5598L31.7261 24.5488C31.7848 24.6188 31.858 24.6751 31.9408 24.7137C32.0235 24.7523 32.1137 24.7723 32.205 24.7723C32.2963 24.7723 32.3865 24.7523 32.4693 24.7137C32.552 24.6751 32.6253 24.6188 32.684 24.5488L34.3518 22.5598C34.4079 22.4928 34.4494 22.4149 34.4735 22.3309C34.4976 22.2469 34.5039 22.1588 34.4919 22.0723L33.8281 17.2894C35.2095 17.5468 36.4575 18.2788 37.3562 19.3589C38.255 20.439 38.748 21.7993 38.75 23.2044V25.6735Z" fill="white"/>
</g>
<defs>
<clipPath id="clip0_23022_1515">
<rect width="40" height="40" fill="white"/>
</clipPath>
</defs>
</svg>
