<svg width="40" height="40" viewBox="0 0 40 40" fill="none" xmlns="http://www.w3.org/2000/svg">
<g clip-path="url(#clip0_23022_1507)">
<path fill-rule="evenodd" clip-rule="evenodd" d="M11.4303 27.0513L12.211 29.4541C12.2919 29.7031 12.2919 29.9713 12.211 30.2203C12.1301 30.4694 11.9724 30.6864 11.7606 30.8403C11.5488 30.9942 11.2937 31.0771 11.0318 31.0771C10.77 31.0771 10.5149 30.9942 10.3031 30.8403L7.53382 28.8283L4.76457 30.8403C4.55275 30.9942 4.29763 31.0771 4.03578 31.0771C3.77393 31.0772 3.5188 30.9943 3.30696 30.8404C3.09512 30.6865 2.93744 30.4694 2.85653 30.2204C2.77562 29.9714 2.77564 29.7031 2.85657 29.4541L3.91437 26.1986L1.14504 24.1866C0.933162 24.0328 0.775447 23.8157 0.694504 23.5667C0.613562 23.3177 0.61355 23.0494 0.694471 22.8004C0.775391 22.5513 0.933088 22.3343 1.14495 22.1804C1.35682 22.0265 1.61197 21.9437 1.87382 21.9437H5.29688L6.35461 18.6882C6.43551 18.4392 6.59318 18.2222 6.805 18.0682C7.01683 17.9143 7.27195 17.8314 7.53378 17.8314C7.79562 17.8314 8.05074 17.9143 8.26257 18.0682C8.47439 18.2222 8.63206 18.4392 8.71296 18.6882L9.27092 20.4055C11.0298 17.8255 13.6871 15.9073 16.7923 15.1018C14.634 13.927 13.1639 11.6365 13.1639 9.01424C13.1639 5.20129 16.272 2.08984 20.0849 2.08984C23.9014 2.08984 27.0093 5.20145 27.0093 9.01424C27.0093 11.6366 25.5392 13.9272 23.3795 15.1019C26.4174 15.8899 29.0261 17.7419 30.784 20.2365L31.2871 18.6882C31.368 18.4392 31.5256 18.2222 31.7375 18.0682C31.9493 17.9143 32.2044 17.8314 32.4663 17.8314C32.7281 17.8314 32.9832 17.9143 33.195 18.0682C33.4069 18.2222 33.5645 18.4392 33.6454 18.6882L34.7032 21.9437H38.1262C38.3881 21.9437 38.6432 22.0265 38.8551 22.1804C39.067 22.3343 39.2247 22.5513 39.3056 22.8004C39.3865 23.0494 39.3865 23.3177 39.3055 23.5667C39.2246 23.8157 39.0669 24.0328 38.855 24.1866L36.0857 26.1986L37.1435 29.4541C37.2244 29.7031 37.2244 29.9713 37.1435 30.2203C37.0626 30.4694 36.9049 30.6864 36.6931 30.8403C36.4813 30.9942 36.2261 31.0771 35.9643 31.0771C35.7025 31.0771 35.4474 30.9942 35.2355 30.8403L32.4662 28.8283L29.697 30.8403C29.4851 30.9942 29.23 31.0771 28.9682 31.0771C28.7064 31.0771 28.4513 30.9942 28.2394 30.8403C28.0276 30.6864 27.8699 30.4694 27.789 30.2203C27.7081 29.9713 27.7081 29.7031 27.789 29.4541L28.5697 27.0513H21.7858L22.3464 28.7765H25.7694C26.0313 28.7765 26.2864 28.8594 26.4983 29.0133C26.7101 29.1672 26.8678 29.3842 26.9487 29.6332C27.0296 29.8823 27.0296 30.1505 26.9487 30.3996C26.8678 30.6486 26.7101 30.8656 26.4982 31.0195L23.7289 33.0315L24.7867 36.2869C24.8676 36.536 24.8676 36.8042 24.7867 37.0533C24.7058 37.3023 24.5481 37.5193 24.3363 37.6732C24.1245 37.8271 23.8693 37.91 23.6075 37.91C23.3456 37.91 23.0905 37.8271 22.8787 37.6731L20.1094 35.6611L17.3402 37.6731C17.1284 37.8271 16.8732 37.91 16.6114 37.9101C16.3495 37.9101 16.0944 37.8272 15.8825 37.6733C15.6707 37.5194 15.513 37.3023 15.4321 37.0533C15.3512 36.8042 15.3513 36.536 15.4323 36.2869L16.49 33.0315L13.7207 31.0195C13.509 30.8655 13.3514 30.6485 13.2705 30.3995C13.1896 30.1505 13.1896 29.8823 13.2705 29.6333C13.3514 29.3843 13.5091 29.1673 13.7209 29.0134C13.9326 28.8595 14.1877 28.7766 14.4495 28.7765H17.8725L18.4331 27.0513H11.4303ZM9.79006 21.9437H13.1937C13.4556 21.9437 13.7108 22.0265 13.9226 22.1804C14.1345 22.3343 14.2922 22.5513 14.3731 22.8004C14.454 23.0494 14.454 23.3177 14.3731 23.5667C14.2921 23.8157 14.1344 24.0328 13.9225 24.1866L11.7069 25.7964H18.8408L18.9303 25.5211C19.0112 25.272 19.1689 25.055 19.3807 24.9011C19.5925 24.7472 19.8476 24.6643 20.1095 24.6643C20.3713 24.6643 20.6264 24.7472 20.8383 24.9011C21.0501 25.055 21.2077 25.272 21.2886 25.5211L21.3781 25.7964H28.2931L26.0775 24.1866C25.8656 24.0328 25.7079 23.8157 25.627 23.5667C25.546 23.3177 25.546 23.0494 25.6269 22.8004C25.7079 22.5513 25.8656 22.3343 26.0774 22.1804C26.2893 22.0265 26.5444 21.9437 26.8063 21.9437H30.2293L30.2842 21.7747C28.2292 18.2825 24.4315 15.9386 20.0849 15.9386C15.6709 15.9386 11.8219 18.3583 9.79006 21.9437ZM20.0849 14.6837C23.2097 14.6837 25.7544 12.136 25.7544 9.01424C25.7544 5.89243 23.2097 3.34475 20.0849 3.34475C16.9632 3.34475 14.4188 5.89251 14.4188 9.01424C14.4188 12.136 16.9632 14.6837 20.0849 14.6837ZM1.9201 23.1986L4.66081 25.1898C4.87263 25.3437 5.03029 25.5608 5.11121 25.8098C5.19212 26.0588 5.19213 26.327 5.11124 26.576L4.06433 29.7978L6.80504 27.8066C7.01687 27.6528 7.27197 27.5699 7.53378 27.5699C7.7956 27.5699 8.0507 27.6528 8.26253 27.8066L11.0032 29.7978L9.95641 26.576C9.87548 26.327 9.87547 26.0588 9.95637 25.8098C10.0373 25.5608 10.1949 25.3437 10.4068 25.1898L13.1475 23.1986H9.75978C9.49795 23.1986 9.24284 23.1157 9.03102 22.9618C8.8192 22.8079 8.66154 22.5909 8.58065 22.3418L7.53382 19.12L6.48692 22.3418C6.40603 22.5909 6.24837 22.8079 6.03655 22.9618C5.82473 23.1157 5.56962 23.1986 5.30779 23.1986H1.9201ZM14.4958 30.0314L17.2365 32.0226C17.4483 32.1765 17.606 32.3935 17.6869 32.6426C17.7678 32.8916 17.7678 33.1598 17.6868 33.4088L16.64 36.6307L19.3806 34.6395C19.5925 34.4856 19.8476 34.4027 20.1094 34.4027C20.3713 34.4027 20.6264 34.4856 20.8382 34.6395L23.5789 36.6307L22.532 33.4088C22.4511 33.1598 22.4512 32.8916 22.5321 32.6426C22.613 32.3935 22.7706 32.1765 22.9825 32.0226L25.7232 30.0314H22.3355C22.0736 30.0314 21.8185 29.9485 21.6067 29.7946C21.3949 29.6407 21.2372 29.4237 21.1563 29.1747L20.1094 25.9529L19.0626 29.1747C18.9817 29.4237 18.8241 29.6407 18.6122 29.7946C18.4004 29.9485 18.1453 30.0314 17.8835 30.0314H14.4958ZM26.8526 23.1986L29.5933 25.1898C29.8051 25.3437 29.9628 25.5608 30.0437 25.8098C30.1246 26.0588 30.1246 26.327 30.0436 26.576L28.9968 29.7978L31.7375 27.8066C31.9493 27.6528 32.2044 27.5699 32.4663 27.5699C32.7281 27.5699 32.9832 27.6528 33.195 27.8066L35.9357 29.7978L34.8888 26.576C34.8079 26.327 34.8079 26.0588 34.8888 25.8098C34.9697 25.5608 35.1274 25.3437 35.3392 25.1898L38.0799 23.1986H34.6923C34.4304 23.1986 34.1753 23.1157 33.9635 22.9618C33.7517 22.8079 33.594 22.5909 33.5131 22.3418L32.4662 19.12L31.4194 22.3418C31.3385 22.5909 31.1808 22.8079 30.969 22.9618C30.7572 23.1157 30.5021 23.1986 30.2403 23.1986H26.8526Z" fill="white"/>
</g>
<defs>
<clipPath id="clip0_23022_1507">
<rect width="40" height="40" fill="white"/>
</clipPath>
</defs>
</svg>
