<svg width="40" height="40" viewBox="0 0 40 40" fill="none" xmlns="http://www.w3.org/2000/svg">
<g clip-path="url(#clip0_23022_1499)">
<path d="M38 6H29.3333V3.33333C29.3311 1.49317 27.8402 0.00225 26 0H14C12.1598 0.00225 10.6689 1.49317 10.6667 3.33333V6H2C0.8955 6 0 6.8955 0 8V22.8398C0.00197989 23.2525 0.131027 23.6546 0.369592 23.9914C0.608156 24.3281 0.944659 24.5832 1.33333 24.722V34C1.33333 35.1045 2.22883 36 3.33333 36H36.6667C37.7712 36 38.6667 35.1045 38.6667 34V24.7227C39.0554 24.5838 39.3919 24.3286 39.6305 23.9917C39.869 23.6548 39.9981 23.2526 40 22.8398V8C40 6.8955 39.1045 6 38 6ZM12 3.33333C12 2.22883 12.8955 1.33333 14 1.33333H26C27.1045 1.33333 28 2.22883 28 3.33333V6H26.6667V3.33333C26.6667 3.15652 26.5964 2.98695 26.4714 2.86193C26.3464 2.7369 26.1768 2.66667 26 2.66667H14C13.8232 2.66667 13.6536 2.7369 13.5286 2.86193C13.4036 2.98695 13.3333 3.15652 13.3333 3.33333V6H12V3.33333ZM25.3333 6H14.6667V4H25.3333V6ZM37.3333 34C37.3333 34.1768 37.2631 34.3464 37.1381 34.4714C37.0131 34.5964 36.8435 34.6667 36.6667 34.6667H3.33333C3.15652 34.6667 2.98695 34.5964 2.86193 34.4714C2.7369 34.3464 2.66667 34.1768 2.66667 34V24.9512L17.3333 26.974V28.6667C17.3333 29.7712 18.2288 30.6667 19.3333 30.6667H20.6667C21.7712 30.6667 22.6667 29.7712 22.6667 28.6667V26.9739L37.3333 24.9512V34ZM21.3333 28.6667C21.3333 28.8435 21.2631 29.013 21.1381 29.1381C21.013 29.2631 20.8435 29.3333 20.6667 29.3333H19.3333C19.1565 29.3333 18.987 29.2631 18.8619 29.1381C18.7369 29.013 18.6667 28.8435 18.6667 28.6667V24.6667C18.6667 24.4899 18.7369 24.3203 18.8619 24.1953C18.987 24.0702 19.1565 24 19.3333 24H20.6667C20.8435 24 21.013 24.0702 21.1381 24.1953C21.2631 24.3203 21.3333 24.4899 21.3333 24.6667V28.6667ZM38.6667 22.8398C38.6668 23.0006 38.6089 23.156 38.5036 23.2774C38.3983 23.3989 38.2526 23.4781 38.0934 23.5007L37.9085 23.5261L22.6667 25.6278V24.6667C22.6667 23.5622 21.7712 22.6667 20.6667 22.6667H19.3333C18.2288 22.6667 17.3333 23.5622 17.3333 24.6667V25.6279L1.90725 23.5007C1.74797 23.4783 1.60215 23.399 1.49668 23.2776C1.39121 23.1562 1.33319 23.0007 1.33333 22.8398V8C1.33333 7.82319 1.40357 7.65362 1.5286 7.5286C1.65362 7.40357 1.82319 7.33333 2 7.33333H38C38.1768 7.33333 38.3464 7.40357 38.4714 7.5286C38.5964 7.65362 38.6667 7.82319 38.6667 8V22.8398Z" fill="white"/>
</g>
<defs>
<clipPath id="clip0_23022_1499">
<rect width="40" height="40" fill="white"/>
</clipPath>
</defs>
</svg>
