<svg width="40" height="40" viewBox="0 0 40 40" fill="none" xmlns="http://www.w3.org/2000/svg">
<g clip-path="url(#clip0_23022_1526)">
<path d="M8.28125 14.8438C8.28125 21.3055 13.5383 26.5625 20 26.5625C26.4617 26.5625 31.7188 21.3055 31.7188 14.8438C31.7188 8.38203 26.4617 3.125 20 3.125C13.5383 3.125 8.28125 8.38203 8.28125 14.8438ZM20 4.6875C25.6003 4.6875 30.1562 9.24344 30.1562 14.8438C30.1562 20.4441 25.6003 25 20 25C14.3997 25 9.84375 20.4441 9.84375 14.8438C9.84375 9.24344 14.3997 4.6875 20 4.6875Z" fill="white"/>
<path d="M12.765 13.4509L15.7933 16.4346L15.0966 20.628C15.0728 20.7712 15.0893 20.9181 15.1443 21.0524C15.1994 21.1867 15.2908 21.303 15.4082 21.3882C15.5256 21.4734 15.6644 21.5243 15.809 21.5352C15.9537 21.546 16.0985 21.5164 16.2273 21.4496L20.0001 19.4904L23.7728 21.4496C23.9015 21.5165 24.0464 21.5461 24.191 21.5353C24.3357 21.5245 24.4744 21.4736 24.5918 21.3883C24.7092 21.303 24.8006 21.1868 24.8556 21.0525C24.9107 20.9182 24.9272 20.7713 24.9034 20.6281L24.2067 16.4346L27.2349 13.4509C27.3383 13.3492 27.4113 13.2206 27.4457 13.0796C27.4801 12.9386 27.4746 12.7909 27.4297 12.6529C27.3848 12.5149 27.3023 12.3922 27.1916 12.2984C27.0809 12.2046 26.9463 12.1435 26.8028 12.1219L22.6002 11.4893L20.6987 7.68648C20.6338 7.5567 20.5341 7.44753 20.4107 7.37124C20.2873 7.29494 20.1451 7.25453 20 7.25453C19.8549 7.25453 19.7127 7.29494 19.5893 7.37124C19.4659 7.44753 19.3662 7.5567 19.3013 7.68648L17.3998 11.4893L13.1972 12.1219C13.0537 12.1435 12.9191 12.2046 12.8084 12.2984C12.6978 12.3922 12.6154 12.5149 12.5705 12.6529C12.5257 12.7909 12.5201 12.9386 12.5545 13.0796C12.5888 13.2205 12.6617 13.3491 12.765 13.4509ZM18.0336 12.9739C18.2851 12.9361 18.5023 12.7783 18.6162 12.5509L20.0001 9.78281L21.3841 12.551C21.4402 12.6631 21.5224 12.76 21.6238 12.8336C21.7252 12.9072 21.8428 12.9553 21.9667 12.974L25.0255 13.4345L22.8212 15.6059C22.732 15.6939 22.6652 15.802 22.6265 15.9212C22.5878 16.0404 22.5783 16.1671 22.5987 16.2907L23.1059 19.3427L20.3599 17.917C20.2487 17.8592 20.1252 17.8291 20 17.8291C19.8747 17.8291 19.7512 17.8592 19.64 17.917L16.8941 19.3427L17.4012 16.2907C17.4218 16.1671 17.4124 16.0403 17.3737 15.9211C17.335 15.8019 17.2681 15.6938 17.1788 15.6059L14.9748 13.4345L18.0336 12.9739ZM20.7814 0.78125C20.7814 1.21273 20.4316 1.5625 20.0001 1.5625C19.5687 1.5625 19.2189 1.21273 19.2189 0.78125C19.2189 0.349766 19.5687 0 20.0001 0C20.4316 0 20.7814 0.349766 20.7814 0.78125Z" fill="white"/>
<path d="M16.318 0.460884C9.74609 2.13838 5.15625 8.05307 5.15625 14.8441C5.15625 19.0619 6.92969 23.0363 10.0427 25.8509L5.33594 34.1458C5.26186 34.2765 5.22701 34.4257 5.23556 34.5757C5.2441 34.7256 5.29569 34.8699 5.38414 34.9913C5.47259 35.1127 5.59415 35.2061 5.73427 35.2602C5.8744 35.3143 6.02714 35.3268 6.17422 35.2964L11.5194 34.1864L13.398 39.4803C13.4481 39.6214 13.5376 39.7451 13.6559 39.8367C13.7743 39.9283 13.9164 39.984 14.0655 39.9972C14.2146 40.0103 14.3643 39.9804 14.4969 39.9109C14.6294 39.8413 14.7392 39.7352 14.8131 39.6051L20 30.4865L25.1865 39.6051C25.2547 39.725 25.3534 39.8247 25.4726 39.8941C25.5918 39.9634 25.7272 40 25.8652 40C25.888 40 25.9112 39.9991 25.9341 39.9973C26.0832 39.984 26.2254 39.9283 26.3437 39.8366C26.4621 39.745 26.5517 39.6214 26.6019 39.4803L28.4802 34.1864L33.8254 35.2964C34.1257 35.3586 34.4348 35.2393 34.6155 34.9915C34.704 34.8701 34.7557 34.7258 34.7642 34.5758C34.7728 34.4258 34.7379 34.2765 34.6637 34.1458L29.957 25.8509C33.0702 23.0362 34.8435 19.0619 34.8435 14.8441C34.8435 8.05299 30.2537 2.13838 23.682 0.460884C23.5826 0.435469 23.4792 0.429888 23.3776 0.444459C23.2761 0.45903 23.1784 0.493468 23.0901 0.545806C23.0019 0.598143 22.9248 0.667355 22.8633 0.749487C22.8018 0.831619 22.7571 0.925062 22.7317 1.02448C22.6249 1.4426 22.8773 1.86799 23.2954 1.97479C29.1748 3.47565 33.2812 8.76776 33.2812 14.8441C33.2812 22.2394 27.2751 28.1253 20 28.1253C12.7197 28.1253 6.71875 22.2346 6.71875 14.8441C6.71875 8.76776 10.8249 3.47565 16.7044 1.97479C17.1225 1.86799 17.3748 1.4426 17.2684 1.02448C17.2431 0.925054 17.1984 0.831603 17.1369 0.749465C17.0754 0.667327 16.9983 0.598111 16.91 0.545773C16.8218 0.493434 16.724 0.458998 16.6225 0.444433C16.5209 0.429867 16.4175 0.435458 16.318 0.460884ZM14.2996 37.3484L12.7643 33.0218C12.7012 32.8439 12.5757 32.6948 12.4112 32.6022C12.2466 32.5096 12.0541 32.4797 11.8692 32.5181L7.54703 33.4156L11.272 26.8506C13.4439 28.4296 16.0156 29.3915 18.6898 29.6296L14.2996 37.3484ZM28.1305 32.5181C27.9456 32.4797 27.7531 32.5097 27.5885 32.6023C27.424 32.6949 27.2985 32.844 27.2354 33.0219L25.7004 37.3484L21.3098 29.6296C23.9844 29.3915 26.5559 28.4296 28.728 26.8506L32.453 33.4155L28.1305 32.5181Z" fill="white"/>
</g>
<defs>
<clipPath id="clip0_23022_1526">
<rect width="40" height="40" fill="white"/>
</clipPath>
</defs>
</svg>
