<svg width="40" height="40" viewBox="0 0 40 40" fill="none" xmlns="http://www.w3.org/2000/svg">
<g clip-path="url(#clip0_22999_781)">
<path d="M37.1917 17.4393C37.0493 13.0915 35.2529 8.96203 32.1692 5.89371C28.9173 2.64121 24.5955 0.850586 20.0005 0.850586C10.7198 0.850586 3.13672 8.23746 2.80984 17.4393C2.09424 17.7563 1.48593 18.274 1.05862 18.9298C0.631311 19.5855 0.403344 20.351 0.402344 21.1337V25.6725C0.403502 26.7442 0.829779 27.7718 1.58764 28.5297C2.34551 29.2875 3.37306 29.7138 4.44484 29.715C5.1383 29.7141 5.80311 29.4383 6.29346 28.9479C6.7838 28.4576 7.05964 27.7928 7.06047 27.0993V19.7062C7.06047 18.3518 6.02172 17.2475 4.70109 17.1162C5.18859 9.09934 11.8623 2.72559 20.0005 2.72559C24.0955 2.72559 27.9461 4.32184 30.8442 7.21996C33.5055 9.88121 35.063 13.35 35.2973 17.1168C33.978 17.2493 32.9411 18.3531 32.9411 19.7062V27.0987C32.9411 28.4643 33.9961 29.5756 35.3323 29.6912V31.5593C35.3312 32.5709 34.9288 33.5407 34.2135 34.2559C33.4981 34.9711 32.5283 35.3733 31.5167 35.3743H28.6911C28.5006 34.8189 28.1409 34.3371 27.6626 33.9966C27.1843 33.6561 26.6114 33.4739 26.0242 33.4756H23.1117C22.6936 33.4756 22.2923 33.5643 21.9248 33.7356C21.4328 33.9629 21.0159 34.3263 20.7236 34.7827C20.4312 35.2392 20.2755 35.7698 20.2748 36.3118C20.2748 37.0706 20.5705 37.7831 21.1061 38.3162C21.3686 38.5809 21.6811 38.7907 22.0254 38.9336C22.3697 39.0766 22.7389 39.1497 23.1117 39.1487H26.0242C27.2317 39.1487 28.2961 38.3681 28.693 37.2493H31.5167C34.6548 37.2493 37.2073 34.6968 37.2073 31.5593V29.3575C37.9187 29.0387 38.5228 28.5212 38.947 27.8673C39.3712 27.2133 39.5975 26.4507 39.5986 25.6712V21.1325C39.5986 19.4862 38.6073 18.0687 37.1917 17.4393ZM5.18484 19.7062V27.0987C5.18484 27.5068 4.85297 27.8393 4.44422 27.8393C3.86957 27.8387 3.31864 27.6101 2.9123 27.2038C2.50595 26.7974 2.27738 26.2465 2.27672 25.6718V21.1331C2.27738 20.5584 2.50595 20.0075 2.9123 19.6012C3.31864 19.1948 3.86957 18.9662 4.44422 18.9656C4.85297 18.9656 5.18484 19.2981 5.18484 19.7062ZM26.9648 36.5131C26.9183 36.7283 26.7996 36.9212 26.6284 37.0598C26.4572 37.1983 26.2438 37.2742 26.0236 37.275H23.1111C22.8548 37.275 22.6142 37.175 22.4305 36.9912C22.341 36.9024 22.2701 36.7968 22.2218 36.6804C22.1736 36.5639 22.1489 36.4391 22.1492 36.3131C22.1499 36.0582 22.2515 35.814 22.4317 35.6339C22.612 35.4537 22.8562 35.3523 23.1111 35.3518H26.0236C26.2798 35.3518 26.5205 35.4512 26.7036 35.635C26.8848 35.8156 26.9848 36.0568 26.9848 36.3131C26.9855 36.3818 26.978 36.4506 26.9648 36.5131ZM37.7236 25.6718C37.7229 26.2465 37.4944 26.7974 37.088 27.2038C36.6817 27.6101 36.1307 27.8387 35.5561 27.8393C35.3597 27.8392 35.1714 27.7611 35.0326 27.6222C34.8937 27.4834 34.8156 27.2951 34.8155 27.0987V19.7062C34.8155 19.2981 35.1473 18.9656 35.5561 18.9656C36.1307 18.9662 36.6817 19.1948 37.088 19.6012C37.4944 20.0075 37.7229 20.5584 37.7236 21.1331V25.6718Z" fill="white"/>
<path d="M26.0708 25.9949C27.124 25.9938 28.1337 25.5749 28.8785 24.8301C29.6232 24.0854 30.0421 23.0757 30.0433 22.0224V13.9281C30.0433 12.8693 29.6295 11.8718 28.8783 11.1206C28.127 10.3693 27.1302 9.95557 26.0708 9.95557H13.9295C12.8763 9.95672 11.8666 10.3756 11.1218 11.1204C10.3771 11.8651 9.95819 12.8748 9.95703 13.9281V22.0224C9.95819 23.0757 10.3771 24.0854 11.1218 24.8301C11.8666 25.5749 12.8763 25.9938 13.9295 25.9949H14.0039V28.0924C14.0027 28.3486 14.0521 28.6024 14.1493 28.8394C14.2465 29.0763 14.3896 29.2917 14.5704 29.4732C14.7511 29.6546 14.966 29.7986 15.2026 29.8967C15.4391 29.9948 15.6928 30.0452 15.9489 30.0449C16.2049 30.0455 16.4583 29.9944 16.6941 29.8949C16.9299 29.7953 17.1432 29.6493 17.3214 29.4656L20.8108 25.9949H26.0708ZM19.7639 24.3924L15.9877 28.1481C15.9708 28.1656 15.9583 28.1787 15.9227 28.1631C15.8795 28.1456 15.8795 28.1174 15.8795 28.0924V25.0574C15.8795 24.8088 15.7808 24.5703 15.6049 24.3945C15.4291 24.2187 15.1907 24.1199 14.942 24.1199H13.9302C13.3741 24.1193 12.8409 23.8981 12.4477 23.5049C12.0545 23.1117 11.8333 22.5785 11.8327 22.0224V13.9281C11.8333 13.372 12.0545 12.8389 12.4477 12.4456C12.8409 12.0524 13.3741 11.8312 13.9302 11.8306H26.0714C26.6302 11.8306 27.1558 12.0493 27.5533 12.4462C27.9508 12.8437 28.1689 13.3699 28.1689 13.9281V22.0224C28.1682 22.5785 27.947 23.1117 27.5538 23.5049C27.1606 23.8981 26.6275 24.1193 26.0714 24.1199H20.4252C20.177 24.1199 19.9395 24.2181 19.7639 24.3924Z" fill="white"/>
<path d="M15.4456 16.7417C14.6831 16.7417 14.0625 17.3629 14.0625 18.1248C14.0625 18.8867 14.6837 19.5079 15.4456 19.5079C16.2087 19.5079 16.83 18.8867 16.83 18.1248C16.83 17.3629 16.2094 16.7417 15.4456 16.7417ZM19.9994 16.7417C19.2369 16.7417 18.6162 17.3629 18.6162 18.1248C18.6162 18.8867 19.2375 19.5079 19.9994 19.5079C20.7631 19.5079 21.3838 18.8867 21.3838 18.1248C21.3838 17.3629 20.7631 16.7417 19.9994 16.7417ZM24.5531 16.7417C23.7906 16.7417 23.17 17.3629 23.17 18.1248C23.17 18.8867 23.7913 19.5079 24.5531 19.5079C25.3162 19.5079 25.9375 18.8867 25.9375 18.1248C25.9375 17.3629 25.3162 16.7417 24.5531 16.7417Z" fill="white"/>
</g>
<defs>
<clipPath id="clip0_22999_781">
<rect width="40" height="40" fill="white"/>
</clipPath>
</defs>
</svg>
