<svg width="40" height="40" viewBox="0 0 40 40" fill="none" xmlns="http://www.w3.org/2000/svg">
<g clip-path="url(#clip0_22999_769)">
<path d="M0.126179 3.66909L2.7939 8.33728C2.83845 8.41533 2.89834 8.48357 2.96994 8.53788C3.04155 8.5922 3.12341 8.63146 3.21058 8.65332L5.69943 9.27556L14.2355 17.8116L15.1787 16.8687L6.50898 8.19927C6.4237 8.11373 6.31672 8.05304 6.19954 8.0237L3.80818 7.42371L1.53691 3.44688L3.48413 1.49959L7.46258 3.7731L8.06284 6.16447C8.09201 6.28182 8.15261 6.38899 8.23814 6.47447L16.9079 15.1442L17.8507 14.201L9.31471 5.66492L8.69246 3.17747C8.67062 3.09018 8.63137 3.0082 8.57706 2.93645C8.52276 2.8647 8.45451 2.80467 8.37642 2.75995L3.70796 0.0925071C3.5812 0.0204441 3.43431 -0.00808715 3.28978 0.0112817C3.14526 0.0306505 3.01106 0.0968518 2.90775 0.19975L0.240374 2.86747C0.136028 2.97005 0.0683181 3.10411 0.0476817 3.24897C0.0270453 3.39383 0.0546282 3.54145 0.126179 3.66909ZM27.8524 13.1432L13.1809 27.8148L12.2377 26.8716L26.9095 12.2003L27.8524 13.1432ZM10.6131 28.3339C10.5539 28.2352 10.4701 28.1535 10.3699 28.0969C10.2697 28.0402 10.1565 28.0104 10.0414 28.0105H6.04012C5.92506 28.0104 5.81195 28.0402 5.71181 28.0969C5.61168 28.1536 5.52793 28.2352 5.46872 28.3339L3.46791 31.6682C3.40558 31.772 3.37265 31.8907 3.37265 32.0117C3.37265 32.1327 3.40558 32.2514 3.46791 32.3552L5.46872 35.6895C5.52797 35.7881 5.61173 35.8698 5.71186 35.9264C5.81198 35.9831 5.92507 36.0129 6.04012 36.0129H10.0414C10.1565 36.0129 10.2696 35.9831 10.3698 35.9264C10.47 35.8698 10.5538 35.7882 10.6131 35.6895L12.6136 32.3552C12.6759 32.2514 12.7089 32.1327 12.7089 32.0117C12.7089 31.8907 12.6759 31.772 12.6136 31.6682L10.6131 28.3339ZM9.66418 34.6791H6.41761L4.81712 32.0118L6.41768 29.3441H9.66418L11.2647 32.0118L9.66418 34.6791Z" fill="white"/>
<path d="M32.0487 16.0066C36.4531 16.0214 40.036 12.4627 40.0508 8.05814C40.053 7.38778 39.9707 6.71981 39.8059 6.07004C39.717 5.71256 39.3552 5.49499 38.9977 5.5839C38.8804 5.61324 38.7733 5.67382 38.6877 5.75919L34.5363 9.90774L31.2426 8.8101L30.1442 5.51725L34.2955 1.36512C34.3791 1.28149 34.4389 1.17714 34.4689 1.06276C34.4989 0.948385 34.4979 0.828092 34.4661 0.714213C34.4343 0.600335 34.3727 0.496966 34.2878 0.414702C34.2029 0.332437 34.0976 0.274235 33.9828 0.24606C29.7113 -0.835638 25.372 1.74999 24.2903 6.02116C24.126 6.66915 24.0439 7.33527 24.0461 8.00378C24.0478 8.52889 24.1018 9.05233 24.2083 9.56642L9.60327 24.1713C9.0892 24.0653 8.5658 24.0109 8.04091 24.0091C3.62099 24.0091 0.0380859 27.592 0.0380859 32.012C0.0380859 36.4316 3.62099 40.0144 8.04091 40.0144C12.4605 40.0144 16.0434 36.4315 16.0434 32.012C16.0417 31.487 15.9874 30.9635 15.8812 30.4493L19.3777 26.9528L20.9069 28.482C21.032 28.607 21.2016 28.6773 21.3785 28.6773C21.5553 28.6773 21.725 28.607 21.8501 28.482L22.1834 28.1484C22.4758 27.8579 22.9485 27.8579 23.2409 28.1484C23.5331 28.4397 23.5337 28.9127 23.2423 29.2049L23.2409 29.2063L22.9076 29.5396C22.6473 29.7999 22.6473 30.2222 22.9076 30.4825L30.863 38.4378C32.9554 40.5493 36.3632 40.5647 38.4747 38.4723C40.5861 36.3799 40.6015 32.9718 38.5091 30.8605C38.4978 30.8489 38.4863 30.8374 38.4747 30.8259L30.5195 22.8708C30.2592 22.6105 29.837 22.6105 29.5766 22.8708L29.2433 23.2042C28.9506 23.495 28.4782 23.495 28.1855 23.2042C27.8935 22.9128 27.8928 22.4399 28.1841 22.148C28.1846 22.1475 28.1852 22.1472 28.1855 22.1465L28.5191 21.8129C28.7794 21.5527 28.7794 21.1304 28.5191 20.8701L26.9899 19.341L30.4863 15.8444C31.0004 15.9506 31.5238 16.005 32.0487 16.0067L32.0487 16.0066ZM34.6689 38.6808C34.1844 38.68 33.704 38.5924 33.2505 38.4221L38.4589 33.2135C39.2448 35.3043 38.1873 37.6361 36.0965 38.4221C35.6401 38.5937 35.1564 38.6813 34.6689 38.6808ZM27.1138 21.3483C26.3753 22.2292 26.4911 23.5422 27.372 24.2804C28.1461 24.9292 29.2746 24.9287 30.0479 24.2785L37.5319 31.7691C37.6131 31.8506 37.6891 31.9364 37.7626 32.0237L32.0607 37.7255C31.9724 37.6524 31.8873 37.5755 31.8058 37.4948L24.3161 30.0046C25.0546 29.1236 24.9388 27.8106 24.0579 27.0724C23.2838 26.4233 22.1551 26.4242 21.3818 27.074L20.3148 26.0071L26.0467 20.2838L27.1138 21.3483ZM29.8068 14.641L14.6782 29.7664C14.5967 29.8479 14.5376 29.949 14.5068 30.0601C14.4759 30.1711 14.4743 30.2882 14.5021 30.4001C15.417 33.9931 13.2459 37.6477 9.65257 38.5623C6.05955 39.4772 2.40508 37.306 1.49011 33.7127C0.575494 30.1197 2.74654 26.4653 6.33991 25.5504C7.42682 25.2738 8.56567 25.2738 9.65257 25.5504C9.76442 25.5777 9.88142 25.5759 9.99237 25.5451C10.1033 25.5143 10.2045 25.4556 10.2863 25.3745L25.4112 10.2488C25.4927 10.1673 25.5517 10.0662 25.5824 9.95515C25.6131 9.84413 25.6145 9.72703 25.5865 9.6153C24.6779 6.06428 26.8199 2.449 30.371 1.54014C31.0421 1.36851 31.736 1.30297 32.4274 1.34588L28.9096 4.86515C28.822 4.95262 28.7605 5.06275 28.732 5.1832C28.7035 5.30365 28.7091 5.42966 28.7482 5.5471L30.0819 9.54865C30.1147 9.64681 30.17 9.73599 30.2432 9.80912C30.3165 9.88225 30.4058 9.93734 30.504 9.97003L34.5056 11.3039C34.623 11.343 34.7489 11.3486 34.8694 11.3202C34.9898 11.2919 35.0999 11.2305 35.1875 11.1431L38.7054 7.62523C38.7134 7.75126 38.7174 7.8775 38.7175 8.00378C38.7361 11.6682 35.781 14.6538 32.1166 14.6728C31.5501 14.6755 30.9856 14.6058 30.4368 14.4654C30.325 14.4374 30.2079 14.4389 30.0969 14.4696C29.9858 14.5003 29.8846 14.5592 29.8031 14.6407H29.8066L29.8068 14.641Z" fill="white"/>
<path d="M34.5219 33.5407L33.5787 34.4839L26.9102 27.8153L27.853 26.8721L34.5219 33.5407Z" fill="white"/>
</g>
<defs>
<clipPath id="clip0_22999_769">
<rect width="40" height="40" fill="white"/>
</clipPath>
</defs>
</svg>
