<svg width="40" height="40" viewBox="0 0 40 40" fill="none" xmlns="http://www.w3.org/2000/svg">
<g clip-path="url(#clip0_22999_755)">
<path d="M12.9672 6.20871C12.6219 6.20871 12.3384 5.92527 12.3384 5.57996C12.3384 5.23465 12.6219 4.95996 12.9672 4.95996H18.6006C18.9459 4.95996 19.2294 5.23465 19.2294 5.57996C19.2294 5.92527 18.9462 6.20871 18.6006 6.20871H12.9672ZM12.9672 15.0131C12.8006 15.0124 12.641 14.9459 12.5232 14.8281C12.4054 14.7103 12.339 14.5506 12.3384 14.384C12.3384 14.0387 12.6219 13.764 12.9672 13.764H24.0481C24.3934 13.764 24.6769 14.0387 24.6769 14.384C24.6769 14.7293 24.3938 15.0131 24.0481 15.0131H12.9672ZM12.9672 12.1965C12.6219 12.1965 12.3384 11.9221 12.3384 11.5765C12.3391 11.41 12.4056 11.2504 12.5233 11.1327C12.6411 11.0149 12.8006 10.9484 12.9672 10.9478H27.0331C27.3784 10.9478 27.6531 11.2309 27.6531 11.5765C27.6531 11.9221 27.3784 12.1965 27.0331 12.1965H12.9672ZM12.9672 9.38871C12.6219 9.38871 12.3384 9.10527 12.3384 8.75996C12.3384 8.41465 12.6219 8.13996 12.9672 8.13996H27.0331C27.3784 8.13996 27.6531 8.41465 27.6531 8.75996C27.6531 9.10527 27.3784 9.38871 27.0331 9.38871H12.9672ZM7.37813 33.6493C7.72344 33.6493 8.00688 33.924 8.00688 34.2693C8.00688 34.6146 7.72344 34.8984 7.37813 34.8984H2.6925C1.95719 34.8984 1.28438 34.5884 0.788125 34.1009C0.779375 34.0921 0.770312 34.0743 0.752813 34.0656C0.292187 33.5784 0 32.9231 0 32.1965V21.8421C0 20.5315 0.540313 19.3446 1.39969 18.4765C2.2675 17.6175 3.45438 17.0771 4.76562 17.0771H35.235C36.5459 17.0771 37.7328 17.6175 38.6009 18.4765C39.4603 19.3446 40.0006 20.5315 40.0006 21.8421V32.1968C40.0006 32.9409 39.6906 33.614 39.2034 34.1012C39.195 34.119 39.1766 34.1278 39.1681 34.1365C38.6809 34.6062 38.0256 34.8984 37.2997 34.8984H32.6406C32.2953 34.8984 32.0112 34.615 32.0112 34.2693C32.0112 33.9237 32.295 33.6493 32.6406 33.6493H37.2997C37.6888 33.6493 38.0344 33.4896 38.3003 33.2509C38.3003 33.2421 38.3088 33.2331 38.3266 33.2156C38.5974 32.9456 38.7503 32.5793 38.7519 32.1968V21.8421C38.7519 20.8768 38.3534 20 37.7156 19.3621C37.0781 18.7243 36.2009 18.3259 35.2353 18.3259H4.76531C3.79969 18.3259 2.92281 18.7243 2.285 19.3621C1.64719 20 1.24906 20.8768 1.24906 21.8421V32.1968C1.24707 32.5669 1.39009 32.9231 1.6475 33.189L1.67406 33.2156C1.94 33.4812 2.30312 33.6496 2.69281 33.6496L7.37813 33.6493Z" fill="white"/>
<path d="M33.6409 20.0088C34.2434 20.0088 34.7919 20.2566 35.1819 20.6554C35.1997 20.6641 35.2081 20.6819 35.2266 20.6907C35.5981 21.0891 35.8284 21.621 35.8284 22.196C35.828 22.4842 35.7707 22.7695 35.6598 23.0355C35.5489 23.3016 35.3866 23.5431 35.1822 23.7463C34.7837 24.1447 34.2437 24.3841 33.6412 24.3841C33.0387 24.3841 32.4894 24.1447 32.0909 23.7463C31.6838 23.3328 31.4548 22.7763 31.4531 22.196C31.4531 21.5941 31.7009 21.0447 32.0909 20.655C32.2941 20.4506 32.5356 20.2883 32.8015 20.1774C33.0675 20.0665 33.3528 20.0092 33.6409 20.0088ZM34.305 21.5322C34.1366 21.3641 33.8978 21.2579 33.6409 21.2579C33.3841 21.2579 33.1447 21.3641 32.9763 21.5322C32.8078 21.7091 32.7016 21.9397 32.7016 22.1963C32.7016 22.4532 32.8078 22.6925 32.9763 22.8607C33.0632 22.9483 33.1668 23.0178 33.2809 23.065C33.3951 23.1121 33.5174 23.1361 33.6409 23.1354C33.8899 23.1349 34.1285 23.0362 34.305 22.8607C34.3926 22.7737 34.4619 22.6702 34.509 22.5561C34.5561 22.442 34.5801 22.3197 34.5794 22.1963C34.5794 21.9485 34.4816 21.7269 34.3319 21.5588L34.305 21.5322Z" fill="white"/>
<path fill-rule="evenodd" clip-rule="evenodd" d="M5.74012 21.5767C6.08543 21.5767 6.36918 21.851 6.36918 22.1963C6.36918 22.5417 6.08574 22.8254 5.74012 22.8254C5.39449 22.8254 5.12012 22.542 5.12012 22.1963C5.12012 21.8507 5.39449 21.5767 5.74012 21.5767ZM11.2404 21.5767C11.5857 21.5767 11.8695 21.851 11.8695 22.1963C11.8695 22.5417 11.5861 22.8254 11.2404 22.8254C10.8951 22.8254 10.6204 22.542 10.6204 22.1963C10.6204 21.8507 10.8951 21.5767 11.2404 21.5767ZM8.49449 21.5767C8.84012 21.5767 9.11449 21.851 9.11449 22.1963C9.11449 22.5417 8.84012 22.8254 8.49449 22.8254C8.14918 22.8254 7.86574 22.542 7.86574 22.1963C7.86574 21.8507 8.14918 21.5767 8.49449 21.5767Z" fill="white"/>
<path d="M31.0101 27.4313C30.957 27.0948 31.196 26.7757 31.5413 26.7226C31.8776 26.6782 32.197 26.9176 32.2413 27.2541L33.8088 37.9716C33.8179 38.0513 33.8266 38.1313 33.8266 38.202C33.8266 38.671 33.632 39.0873 33.322 39.4063C33.0218 39.7122 32.6297 39.9113 32.2057 39.9732C32.1183 39.9909 32.0293 39.9998 31.9401 39.9998H8.06039C7.97195 39.9998 7.88352 39.991 7.79477 39.9732H7.7682C7.3552 39.9012 6.97458 39.7032 6.67852 39.4063C6.36883 39.0873 6.17383 38.671 6.17383 38.202C6.17383 38.131 6.18258 38.0513 6.19164 37.9716L7.75039 27.2541C7.77591 27.0907 7.86424 26.9437 7.99656 26.8444C8.12889 26.7451 8.29476 26.7014 8.45883 26.7226C8.62253 26.7477 8.76986 26.836 8.86922 26.9685C8.96859 27.101 9.01209 27.2671 8.99039 27.4313L7.42258 38.1491V38.2023C7.42258 38.326 7.48445 38.441 7.5732 38.5385C7.6707 38.6448 7.81227 38.7154 7.95414 38.742H7.97195C7.9982 38.742 8.02508 38.7507 8.06039 38.7507H31.9401C31.9754 38.7507 32.0023 38.742 32.0285 38.742C32.1789 38.7163 32.3179 38.6453 32.427 38.5385C32.5154 38.4407 32.5776 38.326 32.5776 38.2023C32.5776 38.1845 32.5776 38.1579 32.5691 38.1491L31.0101 27.4313Z" fill="white"/>
<path d="M5.89051 30.3278C6.23582 30.3278 6.5102 30.6112 6.5102 30.9569C6.5102 31.3025 6.23582 31.5769 5.89051 31.5769C5.37676 31.5769 4.90738 31.3641 4.56207 31.0275C4.22551 30.6822 4.0127 30.2128 4.0127 29.7075V28.5916C4.01369 28.0962 4.21129 27.6216 4.56207 27.2719H4.57082C4.74276 27.0966 4.94818 26.9576 5.17489 26.8632C5.40159 26.7688 5.64495 26.721 5.89051 26.7225H34.1368C34.6505 26.7225 35.1199 26.9262 35.4568 27.2719C35.6314 27.4443 35.7699 27.6498 35.8643 27.8764C35.9586 28.103 36.0068 28.3461 36.0061 28.5916V29.7075C36.0069 29.953 35.9587 30.1962 35.8644 30.4228C35.77 30.6495 35.6315 30.855 35.4568 31.0275C35.2842 31.2021 35.0787 31.3407 34.852 31.435C34.6254 31.5293 34.3822 31.5775 34.1368 31.5769C33.7914 31.5769 33.508 31.3022 33.508 30.9569C33.508 30.6116 33.7911 30.3278 34.1368 30.3278C34.3012 30.3258 34.4591 30.2626 34.5796 30.1506V30.1419C34.6858 30.0356 34.7564 29.8763 34.7564 29.7078V28.5919C34.7564 28.4234 34.6855 28.2644 34.5796 28.1578V28.1491C34.459 28.0372 34.3012 27.9741 34.1368 27.9722H5.89051C5.71332 27.9722 5.55395 28.0431 5.4477 28.1491V28.1578C5.33238 28.2644 5.26176 28.4234 5.26176 28.5919V29.7078C5.26176 29.8763 5.3327 30.0356 5.4477 30.1419V30.1506C5.55363 30.2569 5.71332 30.3278 5.89051 30.3278ZM8.99926 15.2791C8.99926 15.6244 8.71582 15.9078 8.3702 15.9078C8.02457 15.9078 7.7502 15.6244 7.7502 15.2791V1.67406C7.74972 1.45527 7.79252 1.23854 7.87613 1.03635C7.95974 0.834155 8.08252 0.650496 8.23738 0.495937L8.28176 0.451563C8.58301 0.176875 8.98145 0 9.42457 0H26.4396C26.6554 0.000163216 26.8691 0.0421894 27.0689 0.12375C27.2721 0.203437 27.4499 0.318438 27.6093 0.469063L31.7102 4.33094C31.8871 4.49906 32.0289 4.68531 32.1174 4.8975C32.2058 5.11031 32.2505 5.33187 32.2505 5.57063V15.2784C32.2505 15.6237 31.9758 15.9072 31.6305 15.9072C31.2852 15.9072 31.0021 15.6237 31.0021 15.2784V6.46563L28.0961 6.47438V6.48313H28.0877V6.47438C27.2464 6.47438 26.6086 6.18188 26.183 5.72156C25.7489 5.25187 25.5452 4.64094 25.5452 3.98562H25.5368V1.24875H9.42457C9.31832 1.24875 9.21207 1.29312 9.14113 1.35531L9.12332 1.37313C9.08375 1.41262 9.05242 1.4596 9.03118 1.51132C9.00993 1.56304 8.99919 1.61846 8.99957 1.67437L8.99926 15.2791ZM30.8414 5.22563L26.7849 1.40813V3.98594C26.7849 4.33125 26.8911 4.65 27.0949 4.87125C27.2986 5.09281 27.6264 5.23438 28.0871 5.23438H28.0955L30.8414 5.22563Z" fill="white"/>
</g>
<defs>
<clipPath id="clip0_22999_755">
<rect width="40" height="40" fill="white"/>
</clipPath>
</defs>
</svg>
