<svg width="40" height="40" viewBox="0 0 40 40" fill="none" xmlns="http://www.w3.org/2000/svg">
<g clip-path="url(#clip0_22999_791)">
<path d="M33.75 7.8125C33.3187 7.8125 32.9688 8.1625 32.9688 8.59375C32.9688 9.025 33.3187 9.375 33.75 9.375C34.1813 9.375 34.5312 9.025 34.5312 8.59375C34.5312 8.1625 34.1813 7.8125 33.75 7.8125ZM6.25 7.8125C5.81875 7.8125 5.46875 8.1625 5.46875 8.59375C5.46875 9.025 5.81875 9.375 6.25 9.375C6.68125 9.375 7.03125 9.025 7.03125 8.59375C7.03125 8.1625 6.68125 7.8125 6.25 7.8125ZM39.2188 17.1875H38.2844C37.9923 14.9372 37.2867 12.7927 36.1794 10.8043C35.9695 10.4274 35.4937 10.2919 35.1167 10.5018C34.7398 10.7117 34.6043 11.1875 34.8142 11.5645C35.7914 13.3194 36.4272 15.2073 36.7089 17.1875H36.0938C35.6623 17.1875 35.3125 17.5373 35.3125 17.9688V21.0938C35.3125 21.5252 35.6623 21.875 36.0938 21.875H39.2188C39.6502 21.875 40 21.5252 40 21.0938V17.9688C40 17.5373 39.6502 17.1875 39.2188 17.1875ZM38.4375 20.3125H36.875V18.75H38.4375V20.3125ZM28.5923 22.861C28.5918 22.8489 28.5915 22.8368 28.5905 22.8247C28.589 22.8082 28.5869 22.7919 28.5844 22.7755C28.5829 22.7655 28.5817 22.7555 28.5798 22.7455C28.576 22.7265 28.5716 22.7077 28.5666 22.689C28.5647 22.6819 28.5632 22.6748 28.5611 22.6677C28.5541 22.6445 28.5461 22.6216 28.537 22.5991C28.5359 22.5966 28.5352 22.5941 28.5342 22.5916C28.5235 22.5657 28.5114 22.5403 28.4979 22.5156L20.6855 8.21906C20.6183 8.096 20.5191 7.99332 20.3985 7.92179C20.2779 7.85026 20.1402 7.81251 20 7.81252C19.8597 7.81253 19.7221 7.85029 19.6015 7.92183C19.4808 7.99338 19.3817 8.09607 19.3145 8.21914L11.5021 22.5157C11.4886 22.5404 11.4765 22.5657 11.4658 22.5917C11.4648 22.5941 11.4641 22.5966 11.463 22.5991C11.4539 22.6216 11.4459 22.6446 11.4389 22.6678C11.4368 22.6748 11.4353 22.682 11.4334 22.6891C11.4283 22.7077 11.4239 22.7266 11.4202 22.7456C11.4184 22.7555 11.4172 22.7655 11.4156 22.7756C11.4131 22.7919 11.411 22.8083 11.4095 22.8248C11.4085 22.8369 11.4081 22.849 11.4077 22.8611C11.4073 22.8709 11.4062 22.8806 11.4062 22.8906C11.4062 22.8958 11.407 22.9007 11.407 22.9059C11.4073 22.9181 11.408 22.9303 11.4089 22.9426C11.4099 22.9581 11.4112 22.9736 11.4131 22.9889C11.4169 23.0166 11.4219 23.044 11.4281 23.0713C11.4346 23.0984 11.4426 23.1253 11.452 23.1516C11.4537 23.1566 11.4548 23.1616 11.4566 23.1665L14.2741 30.6328C14.0451 30.7463 13.8361 30.8965 13.6554 31.0773C13.2126 31.5201 12.9688 32.1086 12.9688 32.7344C12.9688 33.7528 13.622 34.6213 14.5312 34.9437V39.2188C14.5312 39.6502 14.881 40 15.3125 40H24.6875C25.119 40 25.4688 39.6502 25.4688 39.2188V34.9451C25.7985 34.8284 26.0978 34.6393 26.3447 34.3915C26.7874 33.9487 27.0312 33.3602 27.0312 32.7344C27.0312 31.8146 26.4985 31.0173 25.7255 30.6338L28.5434 23.1665C28.5453 23.1616 28.5464 23.1566 28.5481 23.1516C28.5575 23.1253 28.5654 23.0984 28.572 23.0713C28.5759 23.0548 28.5791 23.038 28.582 23.0212C28.5838 23.0104 28.5856 22.9997 28.587 22.9889C28.5889 22.9736 28.5902 22.9581 28.5912 22.9426C28.592 22.9303 28.5928 22.9181 28.593 22.9059C28.5931 22.9008 28.5938 22.8958 28.5938 22.8906C28.5938 22.8806 28.5927 22.8709 28.5923 22.861ZM20 22.1094C20.4308 22.1094 20.7812 22.4598 20.7812 22.8906C20.7812 23.3214 20.4308 23.6719 20 23.6719C19.5692 23.6719 19.2188 23.3214 19.2188 22.8906C19.2188 22.4598 19.5692 22.1094 20 22.1094ZM23.9062 38.4375H16.0938V35.0781H23.9062V38.4375ZM25.2398 33.2866C25.1674 33.3594 25.0814 33.4171 24.9866 33.4564C24.8918 33.4958 24.7901 33.5159 24.6875 33.5156H15.3125C14.8817 33.5156 14.5312 33.1652 14.5312 32.7344C14.531 32.6318 14.5511 32.5301 14.5904 32.4353C14.6297 32.3406 14.6874 32.2545 14.7602 32.1822C14.8326 32.1094 14.9186 32.0517 15.0134 32.0123C15.1082 31.973 15.2099 31.9529 15.3125 31.9531H24.6823L24.6874 31.9534L24.6901 31.9533C25.1197 31.9547 25.4688 32.3045 25.4688 32.7344C25.469 32.837 25.4489 32.9386 25.4096 33.0334C25.3703 33.1282 25.3126 33.2142 25.2398 33.2866ZM24.1473 30.3906H15.8527L13.3173 23.6719H15.3125C15.744 23.6719 16.0938 23.3221 16.0938 22.8906C16.0938 22.4591 15.744 22.1094 15.3125 22.1094H13.5047L19.2188 11.6527V20.6812C18.3095 21.0037 17.6562 21.8721 17.6562 22.8906C17.6562 24.183 18.7077 25.2344 20 25.2344C21.2923 25.2344 22.3438 24.183 22.3438 22.8906C22.3438 21.8722 21.6905 21.0037 20.7812 20.6812V11.6527L26.4953 22.1094H24.6875C24.256 22.1094 23.9062 22.4591 23.9062 22.8906C23.9062 23.3221 24.256 23.6719 24.6875 23.6719H26.6827L24.1473 30.3906ZM4.8832 10.5018C4.50617 10.2918 4.03039 10.4273 3.82055 10.8043C2.71328 12.7927 2.00758 14.9372 1.71562 17.1875H0.78125C0.349766 17.1875 0 17.5373 0 17.9688V21.0938C0 21.5252 0.349766 21.875 0.78125 21.875H3.90625C4.33773 21.875 4.6875 21.5252 4.6875 21.0938V17.9688C4.6875 17.5373 4.33773 17.1875 3.90625 17.1875H3.29102C3.57281 15.2073 4.20852 13.3194 5.1857 11.5645C5.39563 11.1875 5.26023 10.7117 4.8832 10.5018ZM3.125 20.3125H1.5625V18.75H3.125V20.3125ZM37.6562 0C36.6378 0 35.7694 0.653203 35.4469 1.5625H22.3438V0.78125C22.3438 0.349766 21.994 0 21.5625 0H18.4375C18.006 0 17.6562 0.349766 17.6562 0.78125V1.5625H4.55312C4.23063 0.653203 3.36219 0 2.34375 0C1.05141 0 0 1.05141 0 2.34375C0 3.63609 1.05141 4.6875 2.34375 4.6875C3.36219 4.6875 4.23063 4.0343 4.55312 3.125H12.4073C10.741 3.82227 9.21289 4.72742 7.95508 5.78781C7.62516 6.06594 7.5832 6.55883 7.86133 6.88867C7.93462 6.97581 8.0261 7.04583 8.12936 7.09381C8.23261 7.14179 8.34513 7.16657 8.45898 7.16641C8.64318 7.16661 8.82147 7.10144 8.96211 6.9825C11.2037 5.09281 14.4026 3.7432 17.6562 3.29055V3.90625C17.6562 4.33773 18.006 4.6875 18.4375 4.6875H21.5625C21.994 4.6875 22.3438 4.33773 22.3438 3.90625V3.29055C25.5974 3.7432 28.7963 5.09281 31.0379 6.98242C31.1785 7.1014 31.3568 7.16657 31.541 7.16633C31.6549 7.16652 31.7674 7.14175 31.8707 7.09376C31.9739 7.04578 32.0654 6.97575 32.1387 6.88859C32.4169 6.55883 32.3748 6.06594 32.0449 5.78781C30.7871 4.72742 29.259 3.82227 27.5927 3.125H35.4469C35.7694 4.0343 36.6377 4.6875 37.6562 4.6875C38.9486 4.6875 40 3.63609 40 2.34375C40 1.05141 38.9486 0 37.6562 0ZM2.34375 3.125C1.91297 3.125 1.5625 2.77453 1.5625 2.34375C1.5625 1.91297 1.91297 1.5625 2.34375 1.5625C2.77453 1.5625 3.125 1.91297 3.125 2.34375C3.125 2.77453 2.77453 3.125 2.34375 3.125ZM20.7812 2.34375V3.125H19.2188V1.5625H20.7812V2.34375ZM37.6562 3.125C37.2255 3.125 36.875 2.77453 36.875 2.34375C36.875 1.91297 37.2255 1.5625 37.6562 1.5625C38.087 1.5625 38.4375 1.91297 38.4375 2.34375C38.4375 2.77453 38.087 3.125 37.6562 3.125Z" fill="white"/>
</g>
<defs>
<clipPath id="clip0_22999_791">
<rect width="40" height="40" fill="white"/>
</clipPath>
</defs>
</svg>
