<svg width="72" height="72" viewBox="0 0 72 72" fill="none" xmlns="http://www.w3.org/2000/svg">
<g clip-path="url(#clip0_23002_1345)">
<path d="M0.228488 6.60544L5.03039 15.0082C5.11058 15.1487 5.21837 15.2715 5.34726 15.3693C5.47616 15.467 5.6235 15.5377 5.78042 15.577L10.2603 16.6971L25.6253 32.0619L27.3231 30.3647L11.7175 14.7598C11.564 14.6058 11.3715 14.4965 11.1605 14.4437L6.85609 13.3638L2.7678 6.20546L6.27281 2.70033L13.434 6.79266L14.5145 11.0971C14.567 11.3083 14.6761 11.5013 14.83 11.6551L30.4355 27.2606L32.1327 25.5629L16.7678 10.1979L15.6478 5.72053C15.6085 5.5634 15.5378 5.41583 15.4401 5.28669C15.3423 5.15754 15.2195 5.04948 15.0789 4.96898L6.67569 0.167587C6.44752 0.0378736 6.18312 -0.0134826 5.92297 0.0213812C5.66283 0.0562451 5.42128 0.175407 5.23531 0.360624L0.43404 5.16253C0.246218 5.34717 0.12434 5.58846 0.0871942 5.84921C0.0500487 6.10996 0.0996979 6.37569 0.228488 6.60544ZM50.1357 23.6588L23.727 50.0677L22.0293 48.3699L48.4384 21.9617L50.1357 23.6588ZM19.105 51.002C18.9983 50.8244 18.8475 50.6774 18.6671 50.5754C18.4868 50.4734 18.2831 50.4198 18.0759 50.4199H10.8736C10.6665 50.4198 10.4629 50.4734 10.2826 50.5755C10.1024 50.6775 9.95163 50.8244 9.84506 51.002L6.2436 57.0039C6.13141 57.1906 6.07214 57.4043 6.07214 57.6221C6.07214 57.8399 6.13141 58.0536 6.2436 58.2403L9.84506 64.2422C9.95172 64.4197 10.1025 64.5666 10.2827 64.6686C10.4629 64.7706 10.6665 64.8243 10.8736 64.8243H18.0759C18.283 64.8243 18.4867 64.7706 18.667 64.6686C18.8473 64.5666 18.9981 64.4197 19.1049 64.2422L22.7058 58.2403C22.818 58.0536 22.8773 57.8399 22.8773 57.6221C22.8773 57.4043 22.818 57.1906 22.7058 57.0039L19.105 51.002ZM17.3969 62.4234H11.5531L8.67218 57.6223L11.5532 52.8204H17.3969L20.2778 57.6223L17.3969 62.4234Z" fill="white"/>
<path d="M57.6884 28.8119C65.6164 28.8386 72.0657 22.4329 72.0922 14.5047C72.0962 13.298 71.9481 12.0957 71.6514 10.9261C71.4914 10.2826 70.8401 9.89098 70.1966 10.051C69.9855 10.1038 69.7927 10.2129 69.6386 10.3666L62.1662 17.8339L56.2375 15.8582L54.2604 9.93105L61.7327 2.45722C61.8832 2.30669 61.9909 2.11886 62.0449 1.91297C62.0988 1.70709 62.0971 1.49057 62.0398 1.28558C61.9825 1.0806 61.8717 0.89454 61.7189 0.746463C61.566 0.598387 61.3765 0.493622 61.1698 0.442908C53.4812 -1.50415 45.6704 3.14998 43.7234 10.8381C43.4276 12.0045 43.2799 13.2035 43.2838 14.4068C43.2869 15.352 43.3841 16.2942 43.5757 17.2196L17.2867 43.5084C16.3613 43.3175 15.4192 43.2197 14.4744 43.2165C6.51857 43.2165 0.0693359 49.6656 0.0693359 57.6216C0.0693359 65.5769 6.51857 72.026 14.4744 72.026C22.4298 72.026 28.8789 65.5768 28.8789 57.6216C28.8759 56.6766 28.7781 55.7343 28.587 54.8088L34.8807 48.5151L37.6332 51.2676C37.8583 51.4927 38.1637 51.6191 38.482 51.6191C38.8004 51.6191 39.1057 51.4927 39.3309 51.2676L39.9309 50.6672C40.4573 50.1442 41.3081 50.1442 41.8345 50.6672C42.3604 51.1915 42.3614 52.043 41.837 52.5688L41.8345 52.5714L41.2345 53.1712C40.7659 53.6398 40.7659 54.4 41.2345 54.8685L55.5541 69.188C59.3204 72.9888 65.4545 73.0165 69.2553 69.2502C73.0558 65.4839 73.0835 59.3493 69.3171 55.5488C69.2969 55.5281 69.2762 55.5074 69.2553 55.4866L54.936 41.1675C54.4673 40.6989 53.7073 40.6989 53.2387 41.1675L52.6387 41.7675C52.1118 42.291 51.2615 42.291 50.7346 41.7675C50.2091 41.2431 50.2077 40.3918 50.7321 39.8663C50.7331 39.8654 50.7341 39.8649 50.7346 39.8638L51.3351 39.2633C51.8037 38.7948 51.8037 38.0348 51.3351 37.5662L48.5825 34.8137L54.8762 28.52C55.8015 28.7112 56.7437 28.809 57.6885 28.812L57.6884 28.8119ZM62.4047 69.6255C61.5327 69.6241 60.6681 69.4664 59.8518 69.1598L69.2268 59.7843C70.6415 63.5477 68.7379 67.7451 64.9745 69.1598C64.153 69.4686 63.2824 69.6264 62.4047 69.6255ZM48.8057 38.427C47.4763 40.0126 47.6847 42.3759 49.2704 43.7048C50.6639 44.8726 52.695 44.8716 54.0869 43.7013L67.5582 57.1844C67.7043 57.3311 67.8411 57.4855 67.9735 57.6427L57.71 67.906C57.551 67.7744 57.398 67.6359 57.2513 67.4907L43.7698 54.0082C45.0992 52.4226 44.8907 50.0591 43.3051 48.7304C41.9116 47.5619 39.88 47.5635 38.488 48.7333L36.5675 46.8129L46.8848 36.5109L48.8057 38.427ZM53.653 26.3537L26.4216 53.5795C26.2748 53.7262 26.1685 53.9083 26.1129 54.1081C26.0574 54.308 26.0545 54.5189 26.1045 54.7202C27.7514 61.1876 23.8433 67.7658 17.3754 69.4122C10.908 71.0589 4.32993 67.1509 2.68298 60.683C1.03667 54.2155 4.94456 47.6375 11.4126 45.9907C13.3691 45.4929 15.419 45.4929 17.3754 45.9907C17.5767 46.0399 17.7873 46.0367 17.987 45.9813C18.1868 45.9258 18.3689 45.8201 18.5161 45.6741L45.741 18.4478C45.8876 18.3012 45.9938 18.1191 46.0491 17.9193C46.1044 17.7194 46.1069 17.5087 46.0565 17.3075C44.4209 10.9157 48.2766 4.40819 54.6686 2.77225C55.8766 2.46332 57.1256 2.34534 58.3702 2.42258L52.038 8.75728C51.8804 8.91472 51.7697 9.11296 51.7184 9.32977C51.6671 9.54658 51.6772 9.77339 51.7476 9.98478L54.1481 17.1876C54.2073 17.3643 54.3067 17.5248 54.4386 17.6564C54.5705 17.7881 54.7312 17.8872 54.908 17.9461L62.1108 20.347C62.3221 20.4173 62.5488 20.4276 62.7656 20.3765C62.9824 20.3254 63.1807 20.2149 63.3383 20.0576L69.6705 13.7254C69.6849 13.9523 69.6921 14.1795 69.6923 14.4068C69.7258 21.0028 64.4065 26.3769 57.8106 26.411C56.791 26.416 55.7749 26.2905 54.787 26.0377C54.5858 25.9874 54.375 25.99 54.1752 26.0453C53.9753 26.1006 53.7931 26.2067 53.6464 26.3532H53.6527L53.653 26.3537Z" fill="white"/>
<path d="M62.1397 60.3737L60.4419 62.0714L48.4385 50.0679L50.1356 48.3701L62.1397 60.3737Z" fill="white"/>
</g>
<defs>
<clipPath id="clip0_23002_1345">
<rect width="72" height="72" fill="white"/>
</clipPath>
</defs>
</svg>
