<svg width="80" height="80" viewBox="0 0 80 80" fill="none" xmlns="http://www.w3.org/2000/svg">
<path d="M77.5004 49.9469L70.8301 29.6188C70.291 27.9766 68.5176 27.0797 66.8754 27.6187L60.4832 29.7156C59.6894 29.9766 59.0441 30.5313 58.666 31.2797C58.3347 31.9359 58.2426 32.6688 58.4004 33.3734L57.3176 33.8594C55.5316 34.6594 53.8113 34.8328 51.9019 34.4031L51.7754 34.375C56.9676 27.8063 56.6191 20.7672 56.1051 10.4203L56.0972 10.2688C56.0868 10.0547 56.0032 9.85072 55.8604 9.69089C55.7177 9.53107 55.5244 9.42507 55.3129 9.39062C52.2441 8.8875 50.2144 7.1625 49.1066 4.11719C49.0408 3.93634 48.9209 3.78012 48.7633 3.66971C48.6056 3.5593 48.4178 3.50006 48.2254 3.5H31.7722C31.3785 3.5 31.0254 3.74688 30.891 4.11719C29.7832 7.1625 27.7535 8.8875 24.6847 9.39062C24.4733 9.42535 24.2802 9.53142 24.1375 9.69119C23.9948 9.85096 23.9111 10.0548 23.9004 10.2688L23.8926 10.4203C23.3269 21.8031 22.9722 29.0016 29.7113 36.0844L27.5472 36.05L24.5035 33.9641C24.6144 33.4469 24.5957 32.9062 24.4347 32.3844C24.1879 31.5828 23.6472 30.925 22.9097 30.5344L16.966 27.3828C15.4394 26.5734 13.5394 27.1578 12.7301 28.6844L2.70818 47.5859C1.89881 49.1125 2.48318 51.0125 4.00974 51.8219L9.95349 54.9734C10.4097 55.2156 10.9082 55.3375 11.4129 55.3375C11.7238 55.3375 12.0347 55.2906 12.341 55.1969C12.991 54.9969 13.5426 54.6016 13.9379 54.0672C14.7988 54.3984 15.4191 54.9312 15.8816 55.7406L17.2097 58.0656C16.9394 58.6203 16.8129 59.2375 16.8457 59.8719C16.8972 60.8578 17.3269 61.7641 18.0566 62.4219C18.732 63.0333 19.6112 63.3709 20.5222 63.3688C20.5769 63.3688 20.6316 63.3672 20.6863 63.3641C20.6004 64.4672 21.0051 65.5984 21.8879 66.3953C22.5926 67.0312 23.4769 67.3438 24.3582 67.3438C24.5191 67.3438 24.6816 67.3328 24.841 67.3109C24.8551 68.3016 25.2613 69.2844 26.0535 69.9984C26.7289 70.6099 27.6081 70.9475 28.5191 70.9453C28.718 70.9456 28.9165 70.9299 29.1129 70.8984C29.1535 71.8547 29.5597 72.7953 30.3254 73.4844C31.0301 74.1203 31.9144 74.4328 32.7957 74.4328C33.6426 74.4328 34.4863 74.1422 35.166 73.5734L37.5082 75.5578C38.2238 76.1664 39.1329 76.4999 40.0722 76.4984C40.1847 76.4984 40.2972 76.4938 40.4097 76.4844C41.4722 76.3969 42.4347 75.9031 43.1191 75.0938C43.6144 74.5094 43.9222 73.8109 44.0222 73.0672C44.6801 73.5172 45.4519 73.7563 46.2535 73.7563C46.366 73.7563 46.4785 73.7516 46.591 73.7422C47.6535 73.6547 48.616 73.1609 49.3004 72.3516C49.8566 71.6937 50.1613 70.9047 50.2254 70.1C50.7301 70.3063 51.2644 70.4109 51.7972 70.4109C52.9816 70.4109 54.1597 69.9094 54.9832 68.9375C55.5803 68.2347 55.9256 67.3526 55.9644 66.4313C56.4207 66.6 56.9066 66.6875 57.4051 66.6875C57.5222 66.6875 57.6394 66.6828 57.7582 66.6734C58.8707 66.5812 59.8801 66.0641 60.5988 65.2156C61.3176 64.3688 61.6613 63.2891 61.5691 62.175C61.4769 61.0688 60.966 60.0656 60.1269 59.3484C61.8566 58.3906 63.1894 57.1766 64.0238 55.7844C64.3676 55.2094 64.8254 54.8453 65.4535 54.6375C65.7535 55.1359 66.1863 55.5422 66.7207 55.8125C67.1676 56.0391 67.6504 56.1531 68.1363 56.1531C68.4629 56.1531 68.7926 56.1016 69.1113 55.9969L75.5035 53.9C77.1426 53.3625 78.0394 51.5891 77.5004 49.9469ZM25.7363 11.0938C28.8738 10.3703 31.1144 8.45156 32.4113 5.375H47.5894C48.8863 8.45 51.1269 10.3703 54.2644 11.0938C54.7738 21.4078 54.9863 27.8063 49.7254 33.9141L47.7957 33.4797C52.6769 28.2453 53.0301 22.7641 52.5957 13.0484C52.5879 12.8693 52.5289 12.6962 52.4256 12.5496C52.3223 12.4031 52.179 12.2893 52.0129 12.2219C49.7707 11.3094 47.9957 9.75312 46.7363 7.59687C46.6536 7.45567 46.5353 7.33856 46.3934 7.25716C46.2514 7.17575 46.0906 7.13289 45.9269 7.13281H34.0707C33.7379 7.13281 33.4285 7.30937 33.2613 7.59687C32.0019 9.75156 30.2269 11.3078 27.9847 12.2219C27.8186 12.2893 27.6754 12.4031 27.572 12.5496C27.4687 12.6962 27.4097 12.8693 27.4019 13.0484C27.1316 19.1125 27.1754 23.0547 28.1769 26.5234C29.1722 29.9672 31.1457 32.8219 34.5207 35.6688L33.9535 36.1516L32.4301 36.1266C24.9644 29.2766 25.1613 22.7172 25.7363 11.0938ZM35.9707 34.4375C29.3691 28.9969 28.8082 24.2375 29.2519 13.7172C31.4629 12.6953 33.2582 11.1156 34.5988 9.00938H45.4019C46.7426 11.1156 48.5363 12.6969 50.7488 13.7172C51.1488 23.2219 50.7082 28.0938 45.6441 32.9969L42.6957 32.3344C40.5222 31.8453 38.3926 32.3719 36.6988 33.8172L35.9707 34.4375ZM11.7894 53.4062C11.466 53.5047 11.1254 53.4734 10.8316 53.3172L4.88787 50.1656C4.27537 49.8406 4.04099 49.0766 4.36599 48.4641L14.3847 29.5625C14.6097 29.1359 15.0472 28.8938 15.4988 28.8938C15.6972 28.8938 15.8988 28.9406 16.0863 29.0406L22.0316 32.1906C22.3269 32.3469 22.5441 32.6109 22.6426 32.9344C22.741 33.2578 22.7097 33.5984 22.5535 33.8922L12.5332 52.7953C12.3769 53.0906 12.1129 53.3078 11.7894 53.4062ZM19.3097 61.0312C18.566 60.3609 18.5066 59.2109 19.1769 58.4672L20.5379 56.9578C21.2082 56.2141 22.3582 56.1547 23.1019 56.825C23.4597 57.1484 23.6707 57.5938 23.6957 58.0797C23.7207 58.5656 23.5566 59.0312 23.2347 59.3891L21.8738 60.8984C21.2035 61.6437 20.0535 61.7016 19.3097 61.0312ZM23.141 65.0063C22.3972 64.3359 22.3379 63.1859 23.0082 62.4422L23.266 62.1562L24.6269 60.6469L24.6285 60.6453L26.5644 58.4984C26.8863 58.1406 27.3332 57.9297 27.8191 57.9047C27.8519 57.9031 27.8847 57.9016 27.916 57.9016C28.3676 57.9016 28.7941 58.0641 29.1285 58.3656C29.4863 58.6891 29.6972 59.1344 29.7222 59.6203C29.7472 60.1063 29.5832 60.5719 29.2613 60.9297L25.7051 64.8734C25.0347 65.6172 23.8847 65.6766 23.141 65.0063ZM28.616 69.0688C28.1301 69.0953 27.6644 68.9297 27.3066 68.6078C26.5629 67.9375 26.5035 66.7875 27.1738 66.0438L29.9363 62.9797C30.2597 62.6219 30.7051 62.4109 31.191 62.3859C31.6754 62.3594 32.1426 62.525 32.5004 62.8469C32.8582 63.1703 33.0691 63.6156 33.0941 64.1016C33.1191 64.5875 32.9551 65.0531 32.6332 65.4109L30.6816 67.575L30.6801 67.5766L29.8707 68.4734C29.5472 68.8328 29.1019 69.0438 28.616 69.0688ZM31.5769 72.0938C31.2191 71.7703 31.0082 71.325 30.9832 70.8391C30.9582 70.3531 31.1222 69.8875 31.4441 69.5297L32.0738 68.8328C32.7441 68.0906 33.8941 68.0312 34.6363 68.7016C34.9941 69.025 35.2051 69.4703 35.2301 69.9563C35.2551 70.4422 35.091 70.9078 34.7691 71.2656L34.141 71.9609C33.4707 72.7047 32.3207 72.7641 31.5769 72.0938ZM59.1644 64.0063C58.7707 64.4719 58.2144 64.7563 57.6004 64.8063C56.9863 64.8578 56.3926 64.6672 55.9269 64.2734L54.4941 63.0594L48.0332 57.5844C47.8433 57.4237 47.5975 57.3449 47.3496 57.3655C47.1017 57.386 46.8722 57.504 46.7113 57.6937C46.5506 57.8836 46.4719 58.1295 46.4924 58.3773C46.5129 58.6252 46.631 58.8548 46.8207 59.0156L53.2816 64.4906L53.2832 64.4922C54.2472 65.3109 54.3676 66.7625 53.5488 67.7281C52.7301 68.6953 51.2769 68.8156 50.3113 67.9953L43.8504 62.5203C43.6605 62.3596 43.4147 62.2809 43.1668 62.3014C42.9189 62.3219 42.6893 62.44 42.5285 62.6297C42.3678 62.8195 42.2891 63.0654 42.3096 63.3133C42.3301 63.5611 42.4482 63.7907 42.6379 63.9516L47.6363 68.1875L47.6379 68.1891C48.5066 68.9406 48.6082 70.2656 47.866 71.1422C47.5051 71.5687 46.9957 71.8297 46.4316 71.8766C45.8691 71.9234 45.3238 71.75 44.8972 71.3875L39.9144 67.1656C39.7246 67.0049 39.4787 66.9262 39.2309 66.9467C38.983 66.9672 38.7534 67.0853 38.5926 67.275C38.4319 67.4648 38.3531 67.7107 38.3736 67.9586C38.3941 68.2065 38.5122 68.436 38.7019 68.5969L41.4379 70.9156C41.8644 71.2766 42.1238 71.7859 42.1707 72.3484C42.2176 72.9109 42.0441 73.4563 41.6816 73.8828C41.3207 74.3094 40.8113 74.5703 40.2472 74.6172C39.6847 74.6641 39.1394 74.4906 38.7129 74.1281L36.4254 72.1875C37.4972 70.6828 37.2957 68.575 35.891 67.3078C35.4147 66.8781 34.8338 66.5812 34.2066 66.4469C34.7426 65.7516 35.0113 64.8953 34.966 64.0063C34.9144 63.0203 34.4847 62.1141 33.7551 61.4563C33.1301 60.8922 32.3441 60.5656 31.5129 60.5172C31.5832 60.1953 31.6129 59.8625 31.5957 59.5234C31.5441 58.5375 31.1144 57.6313 30.3847 56.9734C29.6551 56.3156 28.7097 55.9797 27.7238 56.0312C26.841 56.0766 26.0254 56.4266 25.391 57.0219C25.1919 56.4117 24.8363 55.8643 24.3597 55.4344C22.8488 54.0719 20.5097 54.1922 19.1472 55.7031L18.4566 56.4703L17.5113 54.8125C16.8863 53.7172 15.9926 52.9172 14.8566 52.4219L23.7207 35.7L26.7191 37.7563C26.871 37.8606 27.0504 37.9177 27.2347 37.9203L31.7988 37.9938L29.9519 39.5672C28.9129 40.4531 28.3629 41.6422 28.3629 43.0078V52.2313C28.3629 52.4828 28.4644 52.725 28.6441 52.9016C29.9691 54.1984 31.5285 54.4813 33.0363 53.6984C35.6957 52.3172 37.6597 47.7 37.241 45.1297C37.1863 44.7969 37.6629 44.3953 38.1551 44.2C38.6769 43.9938 39.2004 44.0797 39.6285 44.4422L58.8972 60.7688C59.3629 61.1625 59.6472 61.7188 59.6972 62.3328C59.7472 62.9469 59.5582 63.5406 59.1644 64.0063ZM62.4129 54.8234C61.6644 56.0703 60.3129 57.2 58.5769 58.0406L40.841 43.0125C39.8879 42.2047 38.6254 41.9984 37.4644 42.4578C36.2691 42.9313 35.1644 44.0359 35.391 45.4313C35.691 47.2688 34.0472 51.0609 32.1722 52.0344C31.7347 52.2625 31.0754 52.4672 30.2379 51.8109V43.0094C30.2379 42.1984 30.5504 41.5219 31.1676 40.9953L37.9144 35.2453C39.1676 34.1766 40.6785 33.8031 42.2847 34.1641L51.4941 36.2344C53.7863 36.75 55.9441 36.5328 58.0879 35.5719L58.9769 35.1734L64.7894 52.8891C63.7722 53.2422 62.9722 53.8891 62.4129 54.8234ZM74.916 52.1203L68.5238 54.2172C68.2066 54.3219 67.866 54.2953 67.5644 54.1422C67.2629 53.9891 67.0394 53.7313 66.9347 53.4141L60.2644 33.0859C60.1597 32.7688 60.1863 32.4281 60.3394 32.1266C60.4926 31.825 60.7504 31.6016 61.0676 31.4969L67.4597 29.4C67.5894 29.3578 67.7222 29.3375 67.8519 29.3375C68.3816 29.3375 68.8754 29.675 69.0488 30.2047L75.7191 50.5328C75.9363 51.1906 75.5754 51.9031 74.916 52.1203ZM37.2113 25.9156L32.9566 21.6625C32.591 21.2969 32.591 20.7031 32.9566 20.3359C33.3222 19.9703 33.916 19.9703 34.2832 20.3359L37.8738 23.9266L45.7191 16.0812C46.0847 15.7156 46.6785 15.7156 47.0457 16.0812C47.4113 16.4469 47.4113 17.0406 47.0457 17.4078L38.5379 25.9156C38.3551 26.0984 38.1144 26.1906 37.8754 26.1906C37.6363 26.1906 37.3941 26.0984 37.2113 25.9156Z" fill="white"/>
</svg>
