<svg width="80" height="80" viewBox="0 0 80 80" fill="none" xmlns="http://www.w3.org/2000/svg">
<g clip-path="url(#clip0_23002_1328)">
<path d="M68.5 58H59.5C59.1022 58 58.7206 57.842 58.4393 57.5607C58.158 57.2794 58 56.8978 58 56.5C58 56.1022 58.158 55.7206 58.4393 55.4393C58.7206 55.158 59.1022 55 59.5 55H68.5C70.981 55 73 52.981 73 50.5V29.5C73 27.019 70.981 25 68.5 25H11.5C9.019 25 7 27.019 7 29.5V50.5C7 52.981 9.019 55 11.5 55H20.5C20.8978 55 21.2794 55.158 21.5607 55.4393C21.842 55.7206 22 56.1022 22 56.5C22 56.8978 21.842 57.2794 21.5607 57.5607C21.2794 57.842 20.8978 58 20.5 58H11.5C9.51161 57.9976 7.60534 57.2067 6.19933 55.8007C4.79332 54.3947 4.00238 52.4884 4 50.5V29.5C4 25.366 7.363 22 11.5 22H68.5C72.637 22 76 25.366 76 29.5V50.5C76 54.634 72.637 58 68.5 58ZM47.5 67H29.5C29.1022 67 28.7206 66.842 28.4393 66.5607C28.158 66.2794 28 65.8978 28 65.5C28 65.1022 28.158 64.7206 28.4393 64.4393C28.7206 64.158 29.1022 64 29.5 64H47.5C47.8978 64 48.2794 64.158 48.5607 64.4393C48.842 64.7206 49 65.1022 49 65.5C49 65.8978 48.842 66.2794 48.5607 66.5607C48.2794 66.842 47.8978 67 47.5 67ZM47.5 61H29.5C29.1022 61 28.7206 60.842 28.4393 60.5607C28.158 60.2794 28 59.8978 28 59.5C28 59.1022 28.158 58.7206 28.4393 58.4393C28.7206 58.158 29.1022 58 29.5 58H47.5C47.8978 58 48.2794 58.158 48.5607 58.4393C48.842 58.7206 49 59.1022 49 59.5C49 59.8978 48.842 60.2794 48.5607 60.5607C48.2794 60.842 47.8978 61 47.5 61Z" fill="white"/>
<path d="M35.5 55H29.5C29.1022 55 28.7206 54.842 28.4393 54.5607C28.158 54.2794 28 53.8978 28 53.5C28 53.1022 28.158 52.7206 28.4393 52.4393C28.7206 52.158 29.1022 52 29.5 52H35.5C35.8978 52 36.2794 52.158 36.5607 52.4393C36.842 52.7206 37 53.1022 37 53.5C37 53.8978 36.842 54.2794 36.5607 54.5607C36.2794 54.842 35.8978 55 35.5 55ZM59.5 25C59.1022 25 58.7206 24.842 58.4393 24.5607C58.158 24.2794 58 23.8978 58 23.5V11.5C58 9.019 55.981 7 53.5 7H26.5C24.019 7 22 9.019 22 11.5V23.5C22 23.8978 21.842 24.2794 21.5607 24.5607C21.2794 24.842 20.8978 25 20.5 25C20.1022 25 19.7206 24.842 19.4393 24.5607C19.158 24.2794 19 23.8978 19 23.5V11.5C19 7.366 22.363 4 26.5 4H53.5C57.637 4 61 7.366 61 11.5V23.5C61 23.8978 60.842 24.2794 60.5607 24.5607C60.2794 24.842 59.8978 25 59.5 25Z" fill="white"/>
<path d="M53.5 76H26.5C24.5116 75.9976 22.6053 75.2067 21.1993 73.8007C19.7933 72.3947 19.0024 70.4884 19 68.5V44.5C19 44.1022 19.158 43.7206 19.4393 43.4393C19.7206 43.158 20.1022 43 20.5 43H59.5C59.8978 43 60.2794 43.158 60.5607 43.4393C60.842 43.7206 61 44.1022 61 44.5V68.5C61 72.634 57.637 76 53.5 76ZM22 46V68.5C22 70.981 24.019 73 26.5 73H53.5C55.981 73 58 70.981 58 68.5V46H22Z" fill="white"/>
</g>
<defs>
<clipPath id="clip0_23002_1328">
<rect width="72" height="72" fill="white" transform="translate(4 4)"/>
</clipPath>
</defs>
</svg>
