<svg width="80" height="80" viewBox="0 0 80 80" fill="none" xmlns="http://www.w3.org/2000/svg">
<g clip-path="url(#clip0_23002_1340)">
<path d="M79.2947 38.5231L75.3781 26.7181C74.3614 23.6498 71.5447 21.6665 68.2047 21.6665H57.7181L58.1014 18.5415C58.1892 17.8873 58.1369 17.222 57.9481 16.5896C57.7594 15.9572 57.4384 15.3721 57.0064 14.8731C56.5681 14.3842 56.0309 13.994 55.4304 13.7285C54.8298 13.463 54.1797 13.3283 53.5231 13.3331H13.1281C10.4614 13.3331 8.0414 15.4881 7.73307 18.1215L7.51974 19.7881C7.49192 20.0053 7.50714 20.2257 7.56454 20.437C7.62194 20.6482 7.72039 20.8461 7.85427 21.0193C7.98814 21.1924 8.15482 21.3376 8.34478 21.4463C8.53475 21.5551 8.74428 21.6254 8.9614 21.6531C9.17889 21.6835 9.40025 21.6701 9.61248 21.6137C9.8247 21.5573 10.0235 21.459 10.1973 21.3247C10.371 21.1904 10.5161 21.0228 10.6242 20.8316C10.7322 20.6404 10.801 20.4296 10.8264 20.2115L11.0414 18.5265C11.1564 17.5348 12.1314 16.6665 13.1281 16.6665H53.5231C53.9231 16.6665 54.2714 16.8131 54.5064 17.0781C54.6274 17.2226 54.7158 17.3915 54.7656 17.5733C54.8153 17.7551 54.8253 17.9455 54.7947 18.1315L50.8914 50.0015H7.13807C7.1431 49.5982 6.99994 49.2071 6.73574 48.9023C6.47154 48.5975 6.10467 48.4004 5.70474 48.3481C5.48753 48.3206 5.26703 48.3363 5.0559 48.3943C4.84478 48.4523 4.64719 48.5514 4.47451 48.686C4.30182 48.8206 4.15743 48.988 4.04964 49.1786C3.94185 49.3691 3.87278 49.5791 3.84641 49.7965L3.22474 54.8081C3.14147 55.4645 3.19822 56.1311 3.39127 56.764C3.58432 57.3969 3.90928 57.9816 4.34474 58.4798C4.779 58.9662 5.31261 59.3538 5.90952 59.6163C6.50642 59.8788 7.15272 60.0102 7.80474 60.0015H11.0314C11.0564 61.6565 11.6031 63.1998 12.6797 64.4131C13.9647 65.8665 15.7947 66.6681 17.8281 66.6681C21.6414 66.6681 25.1081 63.7265 25.8881 60.0015H54.7664C54.7914 61.6565 55.3381 63.1981 56.4114 64.4115C57.6981 65.8665 59.5281 66.6681 61.5631 66.6681C65.3747 66.6681 68.8414 63.7265 69.6231 60.0015H73.2114C75.9081 60.0015 78.2781 57.8931 78.6064 55.2048L79.8864 44.7665C80.1575 42.6679 79.9559 40.5354 79.2964 38.5248L79.2947 38.5231ZM75.7197 38.3331H65.6764L66.4681 31.8698C66.4797 31.7848 66.6164 31.6665 66.6847 31.6665H73.5081L75.7197 38.3331ZM57.3114 24.9998H68.2064C70.1147 24.9998 71.6481 26.0598 72.2147 27.7681L72.4031 28.3331H66.6847C64.9231 28.3331 63.3764 29.7081 63.1614 31.4631L62.3447 38.1298C62.2873 38.5744 62.3249 39.0261 62.455 39.455C62.5852 39.884 62.8049 40.2804 63.0997 40.6181C63.6897 41.2831 64.5481 41.6648 65.4597 41.6648H76.5831C76.6889 42.5596 76.6872 43.4638 76.5781 44.3581L75.8864 49.9981H54.2481L57.3097 24.9981L57.3114 24.9998ZM55.4781 56.6665H53.4314L53.8397 53.3331H58.1964C57.0243 54.1979 56.0894 55.3444 55.4781 56.6665ZM50.0747 56.6665H25.8431C25.5884 55.6514 25.0966 54.7112 24.4081 53.9231C24.2114 53.7015 23.9814 53.5248 23.7614 53.3331H50.4847L50.0747 56.6665ZM11.7281 56.6665H7.80307C7.62186 56.6732 7.44134 56.6406 7.2739 56.571C7.10647 56.5014 6.95608 56.3964 6.83307 56.2631C6.71046 56.1183 6.62013 55.949 6.56811 55.7665C6.5161 55.584 6.50358 55.3925 6.5314 55.2048L6.76307 53.3331H14.4047C13.2404 54.1957 12.318 55.3437 11.7264 56.6665H11.7281ZM22.7214 58.9631C22.4314 61.3331 20.1897 63.3331 17.8264 63.3331C16.7597 63.3331 15.8197 62.9315 15.1731 62.2015C14.5164 61.4615 14.2297 60.4548 14.3614 59.3698C14.6531 56.9998 16.8947 54.9998 19.2581 54.9998C20.3247 54.9998 21.2664 55.4015 21.9114 56.1315C22.5681 56.8715 22.8547 57.8781 22.7214 58.9631ZM66.4564 58.9631C66.1647 61.3331 63.9231 63.3331 61.5614 63.3331C60.4947 63.3331 59.5531 62.9315 58.9064 62.2015C58.2497 61.4615 57.9631 60.4548 58.0964 59.3698C58.3881 56.9998 60.6297 54.9998 62.9914 54.9998C64.0581 54.9998 64.9997 55.4015 65.6464 56.1315C66.3031 56.8715 66.5897 57.8781 66.4564 58.9631ZM73.2114 56.6665H69.5781C69.3234 55.6514 68.8316 54.7112 68.1431 53.9231C67.9464 53.7015 67.7164 53.5248 67.4964 53.3331H75.4797L75.2997 54.7965C75.1781 55.7931 74.2014 56.6665 73.2114 56.6665Z" fill="white"/>
<path d="M15.05 43.3333C15.05 42.8913 14.8744 42.4674 14.5618 42.1548C14.2493 41.8423 13.8254 41.6667 13.3833 41.6667H1.66667C1.22464 41.6667 0.800716 41.8423 0.488155 42.1548C0.175595 42.4674 0 42.8913 0 43.3333C0 43.7754 0.175595 44.1993 0.488155 44.5118C0.800716 44.8244 1.22464 45 1.66667 45H13.3833C13.8254 45 14.2493 44.8244 14.5618 44.5118C14.8744 44.1993 15.05 43.7754 15.05 43.3333ZM6.81167 33.3333C6.36964 33.3333 5.94572 33.5089 5.63316 33.8215C5.3206 34.134 5.145 34.558 5.145 35C5.145 35.442 5.3206 35.866 5.63316 36.1785C5.94572 36.4911 6.36964 36.6667 6.81167 36.6667H14.4133C14.8554 36.6667 15.2793 36.4911 15.5918 36.1785C15.9044 35.866 16.08 35.442 16.08 35C16.08 34.558 15.9044 34.134 15.5918 33.8215C15.2793 33.5089 14.8554 33.3333 14.4133 33.3333H6.81167ZM3.625 28.3333H17.0917C17.5337 28.3333 17.9576 28.1577 18.2702 27.8452C18.5827 27.5326 18.7583 27.1087 18.7583 26.6667C18.7583 26.2246 18.5827 25.8007 18.2702 25.4882C17.9576 25.1756 17.5337 25 17.0917 25H3.625C3.18297 25 2.75905 25.1756 2.44649 25.4882C2.13393 25.8007 1.95833 26.2246 1.95833 26.6667C1.95833 27.1087 2.13393 27.5326 2.44649 27.8452C2.75905 28.1577 3.18297 28.3333 3.625 28.3333Z" fill="white"/>
</g>
<defs>
<clipPath id="clip0_23002_1340">
<rect width="80" height="80" fill="white"/>
</clipPath>
</defs>
</svg>
