<svg width="87" height="60" viewBox="0 0 87 60" fill="none" xmlns="http://www.w3.org/2000/svg">
<g clip-path="url(#clip0_23054_830)">
<g clip-path="url(#clip1_23054_830)">
<path fill-rule="evenodd" clip-rule="evenodd" d="M22.759 11.3555H62.5121L58.0955 42.0927H18.3379L22.759 11.3555Z" fill="#CD353E"/>
<path fill-rule="evenodd" clip-rule="evenodd" d="M22.7595 11.3555H62.5126L58.096 42.0927H56.0204L56.3129 40.0398L60.1443 13.4083H22.4668L22.7595 11.3555Z" fill="#B41C25"/>
<path fill-rule="evenodd" clip-rule="evenodd" d="M19.5084 33.9688H59.2615L58.0955 42.0931H18.3379L19.5084 33.9688Z" fill="#FFC06C"/>
<path fill-rule="evenodd" clip-rule="evenodd" d="M58.0952 42.0931H56.0195L56.312 40.0403L57.1853 33.9688H59.2611L58.0952 42.0931Z" fill="#EDA558"/>
<path fill-rule="evenodd" clip-rule="evenodd" d="M23.701 39.3496H79.5154C80.1921 39.3496 80.6629 39.9027 80.5669 40.5795L80.1325 43.606C80.0366 44.2827 79.4057 44.8359 78.7289 44.8359H22.91C22.238 44.8359 21.7625 44.2827 21.863 43.606L22.2974 40.5795C22.3935 39.9027 23.0244 39.3496 23.701 39.3496Z" fill="#CD353E"/>
<path fill-rule="evenodd" clip-rule="evenodd" d="M60.6289 44.8363H81.2941L84.0008 26.0045L78.4778 16.8148C77.9613 15.9598 77.1108 15.498 76.0409 15.498H67.1577C65.8867 15.498 64.698 16.5359 64.515 17.807L60.6289 44.8363Z" fill="#FF4C4C"/>
<path fill-rule="evenodd" clip-rule="evenodd" d="M67.9109 18.7754C67.5634 21.1848 67.2205 23.5943 66.873 26.0037H79.8985L75.6101 18.8668C75.5598 18.7891 75.5415 18.7754 75.4455 18.7754H67.9109Z" fill="#E1EFFF"/>
<path d="M18.3605 23.6585C18.3605 23.958 18.2415 24.2452 18.0297 24.457C17.818 24.6688 17.5307 24.7877 17.2312 24.7877H5.12922C4.82973 24.7877 4.54251 24.6688 4.33074 24.457C4.11897 24.2452 4 23.958 4 23.6585C4 23.359 4.11897 23.0718 4.33074 22.86C4.54251 22.6483 4.82973 22.5293 5.12922 22.5293H17.2312C17.3795 22.5293 17.5264 22.5585 17.6634 22.6153C17.8004 22.672 17.9249 22.7552 18.0297 22.86C18.1346 22.9649 18.2178 23.0894 18.2745 23.2264C18.3313 23.3634 18.3605 23.5102 18.3605 23.6585ZM16.2575 27.0784H8.66344C8.36395 27.0784 8.07673 27.1973 7.86496 27.4091C7.65319 27.6209 7.53422 27.9081 7.53422 28.2076C7.53422 28.5071 7.65319 28.7943 7.86496 29.0061C8.07673 29.2178 8.36395 29.3368 8.66344 29.3368H16.2575C16.557 29.3368 16.8442 29.2178 17.056 29.0061C17.2677 28.7943 17.3867 28.5071 17.3867 28.2076C17.3867 27.9081 17.2677 27.6209 17.056 27.4091C16.8442 27.1973 16.557 27.0784 16.2575 27.0784ZM15.2836 31.6274H11.4844C11.1849 31.6274 10.8977 31.7464 10.6859 31.9582C10.4741 32.1699 10.3552 32.4572 10.3552 32.7566C10.3552 33.0561 10.4741 33.3434 10.6859 33.5551C10.8977 33.7669 11.1849 33.8859 11.4844 33.8859H15.2836C15.5831 33.8859 15.8703 33.7669 16.0821 33.5551C16.2938 33.3434 16.4128 33.0561 16.4128 32.7566C16.4128 32.4572 16.2938 32.1699 16.0821 31.9582C15.8703 31.7464 15.5831 31.6274 15.2836 31.6274Z" fill="#363D52"/>
<path d="M28.8446 20.0107L28.6801 21.1171H30.4176C30.7171 21.1171 31.0043 21.2361 31.2161 21.4478C31.4278 21.6596 31.5468 21.9468 31.5468 22.2463C31.5468 22.5458 31.4278 22.833 31.2161 23.0448C31.0043 23.2566 30.7171 23.3755 30.4176 23.3755H28.3442L27.8632 26.6095C27.8427 26.7572 27.793 26.8995 27.7172 27.028C27.6413 27.1565 27.5408 27.2687 27.4213 27.3581C27.3019 27.4475 27.1659 27.5124 27.0212 27.5489C26.8765 27.5855 26.726 27.593 26.5784 27.571C26.4308 27.5491 26.2891 27.4981 26.1613 27.421C26.0335 27.3439 25.9223 27.2423 25.834 27.122C25.7457 27.0017 25.6822 26.8651 25.647 26.72C25.6119 26.575 25.6058 26.4245 25.6292 26.2771L26.7539 18.7151C26.7937 18.4473 26.9284 18.2028 27.1334 18.026C27.3385 17.8492 27.6002 17.752 27.8709 17.752H32.4154C32.7149 17.752 33.0021 17.8709 33.2139 18.0827C33.4257 18.2945 33.5446 18.5817 33.5446 18.8812C33.5446 19.1807 33.4257 19.4679 33.2139 19.6797C33.0021 19.8914 32.7149 20.0104 32.4154 20.0104H28.8446V20.0107ZM39.461 26.3441C39.4874 26.6425 39.3941 26.9391 39.2017 27.1686C39.0094 27.3982 38.7338 27.542 38.4354 27.5684C37.8142 27.6245 37.2662 27.164 37.2112 26.5427L37.1435 25.7759H35.2601L34.8449 26.8504C34.7369 27.1297 34.5224 27.3547 34.2486 27.4759C33.9748 27.5971 33.664 27.6046 33.3846 27.4968C33.2463 27.4434 33.1198 27.3632 33.0125 27.2609C32.9051 27.1585 32.8189 27.0361 32.7589 26.9005C32.6989 26.7648 32.6662 26.6187 32.6626 26.4705C32.6591 26.3222 32.6848 26.1747 32.7382 26.0363L35.6596 18.4743C35.7418 18.2617 35.8864 18.0789 36.0744 17.95C36.2625 17.8211 36.4851 17.7521 36.7131 17.7521H37.6685C37.9509 17.7521 38.2229 17.8579 38.4311 18.0485C38.6394 18.2392 38.7687 18.5009 38.7935 18.7821L39.461 26.3441ZM36.9442 23.5174L36.7932 21.8076L36.1326 23.5174H36.9442ZM46.2684 17.7521H45.1437C43.539 17.7521 42.0946 19.004 41.8548 20.6041C41.7224 21.4987 41.9017 22.2379 42.3878 22.8012C43.1451 23.679 44.3659 23.7915 45.3448 23.7915C45.5134 23.7915 45.6489 23.8452 45.7365 23.947C45.8281 24.0532 45.8639 24.2099 45.8367 24.3924C45.7665 24.8746 45.2642 25.3138 44.7826 25.3138H43.6579C43.6079 25.3138 43.5409 25.3049 43.5042 25.2626C43.4718 25.2251 43.4604 25.1602 43.4721 25.0799C43.4937 24.9332 43.4861 24.7837 43.4498 24.6399C43.4136 24.4961 43.3493 24.3608 43.2608 24.2419C43.1723 24.1229 43.0611 24.0226 42.9338 23.9465C42.8065 23.8705 42.6654 23.8203 42.5187 23.7988C42.372 23.7772 42.2224 23.7847 42.0786 23.8209C41.9347 23.8571 41.7994 23.9214 41.6805 24.0099C41.5615 24.0985 41.4611 24.2096 41.3851 24.337C41.3091 24.4644 41.259 24.6055 41.2376 24.7523C41.1307 25.4812 41.3339 26.2054 41.7951 26.7393C42.2526 27.2688 42.9317 27.5726 43.6579 27.5726H44.7826C46.3942 27.5726 47.839 26.3185 48.0712 24.7216C48.1945 23.8952 47.9671 23.0755 47.4474 22.4726C46.9328 21.8755 46.1665 21.533 45.3451 21.533C44.289 21.533 44.1054 21.3343 44.0981 21.3257C44.0887 21.3149 44.0496 21.2034 44.089 20.9368C44.1617 20.4521 44.6645 20.0105 45.1439 20.0105H46.2685C46.3185 20.0105 46.3857 20.0195 46.4223 20.0618C46.4546 20.0993 46.4659 20.1641 46.4542 20.2443C46.4107 20.5406 46.4867 20.8421 46.6654 21.0824C46.8442 21.3227 47.1111 21.4822 47.4074 21.5257C47.5542 21.5473 47.7037 21.5398 47.8476 21.5036C47.9914 21.4673 48.1267 21.4031 48.2457 21.3146C48.3647 21.2261 48.4651 21.1149 48.5411 20.9876C48.6172 20.8603 48.6674 20.7192 48.6889 20.5724C48.7959 19.8435 48.5928 19.1193 48.1314 18.5854C47.6739 18.0559 46.9948 17.7521 46.2684 17.7521ZM55.4534 17.7521H50.9089C50.6094 17.7521 50.3221 17.8711 50.1104 18.0828C49.8986 18.2946 49.7796 18.5818 49.7796 18.8813C49.7796 19.1808 49.8986 19.468 50.1104 19.6798C50.3221 19.8916 50.6094 20.0105 50.9089 20.0105H51.8715L50.9395 26.2771C50.8985 26.5719 50.9755 26.871 51.1539 27.1093C51.3323 27.3476 51.5975 27.5059 51.8919 27.5497C52.1863 27.5935 52.4862 27.5193 52.7262 27.3432C52.9662 27.1672 53.1269 26.9034 53.1735 26.6095L54.1549 20.0107H55.4534C55.7529 20.0107 56.0401 19.8917 56.2519 19.6799C56.4637 19.4682 56.5827 19.1809 56.5827 18.8814C56.5827 18.5819 56.4637 18.2947 56.2519 18.0829C56.0401 17.8711 55.7529 17.7521 55.4534 17.7521Z" fill="white"/>
<path fill-rule="evenodd" clip-rule="evenodd" d="M73.9922 18.7754L78.3355 26.0037H79.8991L75.6106 18.8668C75.5603 18.7891 75.542 18.7754 75.4461 18.7754H73.9922Z" fill="#D7D7E3"/>
<path fill-rule="evenodd" clip-rule="evenodd" d="M60.6276 44.8359L61.4185 39.3496H59.9966L59.2012 44.8359H60.6276Z" fill="#B41C25"/>
<path fill-rule="evenodd" clip-rule="evenodd" d="M77.3115 17.518L82.5829 26.2871L80.5666 40.2269L80.0271 43.9668L79.8991 44.8354H81.2935L84.0002 26.0035L78.4773 16.8138C77.9607 15.9588 77.1102 15.4971 76.0404 15.4971H67.1571C66.2245 15.4971 65.3329 16.0594 64.8574 16.8596H76.0404C76.5891 16.8596 77.0235 17.0425 77.3115 17.518Z" fill="#D11E1E"/>
<path fill-rule="evenodd" clip-rule="evenodd" d="M37.9605 35.5273C41.5769 35.5273 44.0869 38.458 43.5656 42.0789C43.0491 45.6953 39.6931 48.6259 36.0767 48.6259C32.4558 48.6259 29.9458 45.6953 30.4669 42.0789C30.9836 38.458 34.3396 35.5273 37.9605 35.5273Z" fill="#363D52"/>
<path fill-rule="evenodd" clip-rule="evenodd" d="M37.9606 35.5273C41.577 35.5273 44.087 38.458 43.5658 42.0789C43.0628 45.5994 39.8717 48.4705 36.365 48.6214C39.2773 47.8763 41.7097 45.325 42.1486 42.2892C42.6652 38.6683 40.1552 35.7377 36.5388 35.7377C36.4381 35.7377 36.3422 35.7422 36.2461 35.7422C36.8064 35.5994 37.3824 35.5272 37.9606 35.5273Z" fill="#2A3146"/>
<path fill-rule="evenodd" clip-rule="evenodd" d="M37.4385 39.1348C39.0614 39.1348 40.1908 40.4515 39.9577 42.0791C39.7245 43.7021 38.2158 45.019 36.5927 45.019C34.9697 45.019 33.8403 43.7023 34.0735 42.0791C34.3067 40.4515 35.8155 39.1348 37.4385 39.1348Z" fill="#E1EFFF"/>
<path fill-rule="evenodd" clip-rule="evenodd" d="M37.4385 39.1348C39.0615 39.1348 40.1909 40.4515 39.9577 42.0791C39.7382 43.6107 38.3849 44.868 36.8671 45.0052C38.0146 44.5709 38.9337 43.5102 39.112 42.2757C39.3451 40.648 38.2159 39.3313 36.5927 39.3313C36.5013 39.3313 36.4099 39.3359 36.3184 39.3451C36.6751 39.2126 37.0545 39.1348 37.4385 39.1348Z" fill="#D7D7E3"/>
<path fill-rule="evenodd" clip-rule="evenodd" d="M72.2962 35.541C75.9126 35.541 78.4271 38.4762 77.906 42.0926C77.3848 45.709 74.029 48.6441 70.4126 48.6441C66.7962 48.6441 64.2816 45.709 64.8027 42.0926C65.324 38.4762 68.6798 35.541 72.2962 35.541Z" fill="#363D52"/>
<path fill-rule="evenodd" clip-rule="evenodd" d="M72.2966 35.541C75.913 35.541 78.4275 38.4762 77.9064 42.0926C77.3989 45.6131 74.2123 48.4841 70.7056 48.6351C73.6134 47.8945 76.0503 45.3387 76.4845 42.3029C77.0058 38.6865 74.4958 35.7513 70.8747 35.7513C70.7788 35.7513 70.6827 35.7559 70.582 35.7605C71.1398 35.6187 71.7159 35.541 72.2966 35.541Z" fill="#2A3146"/>
<path fill-rule="evenodd" clip-rule="evenodd" d="M71.7784 39.1523C73.4014 39.1523 74.5262 40.4691 74.2929 42.092C74.0598 43.715 72.5556 45.0319 70.9326 45.0319C69.305 45.0319 68.1803 43.7152 68.4134 42.092C68.6465 40.4692 70.1507 39.1523 71.7784 39.1523Z" fill="#E1EFFF"/>
<path fill-rule="evenodd" clip-rule="evenodd" d="M71.7791 39.1523C73.4021 39.1523 74.527 40.4691 74.2937 42.092C74.0741 43.6236 72.7209 44.8809 71.2076 45.0181C72.3505 44.5884 73.2695 43.5277 73.4479 42.2886C73.681 40.6656 72.5563 39.3489 70.9287 39.3489C70.8373 39.3489 70.7459 39.3534 70.6543 39.3581C71.014 39.2231 71.3949 39.1535 71.7791 39.1523Z" fill="#D7D7E3"/>
</g>
</g>
<defs>
<clipPath id="clip0_23054_830">
<rect width="87" height="60" fill="white"/>
</clipPath>
<clipPath id="clip1_23054_830">
<rect width="80" height="80" fill="white" transform="translate(4 -10)"/>
</clipPath>
</defs>
</svg>
