<svg width="196" height="42" viewBox="0 0 196 42" fill="none" xmlns="http://www.w3.org/2000/svg">
<path d="M34.7884 6.70098L28.404 13.0384L27.1645 11.8894C25.3144 10.1717 22.3883 9.05769 19.7159 9.05769C12.8175 9.05769 9.73406 14.3224 9.73406 19.5343C9.73406 20.4078 9.84886 22.0728 10.5804 23.7612H0.429374C0.133111 22.3484 0 20.9179 0 19.5343C0 10.1248 6.17303 0 19.7159 0C24.9215 0 29.8368 1.96404 33.5611 5.52261L34.7884 6.70098Z" fill="#3A5BA0"/>
<path d="M34.9997 14.8447V30.4209C34.9997 30.826 34.8494 31.2173 34.5764 31.5238C32.8835 33.4027 31.0244 34.8666 28.9755 35.9264C26.9265 36.9861 24.6879 37.6413 22.2364 37.9023C21.4818 37.9889 20.796 37.994 19.9998 38C19.9998 36.3224 20.0062 34.533 19.9998 33C20.0057 31.8969 20.338 30.9627 21.1212 30.1328C21.954 29.2503 22.9541 28.5323 24.0654 28.0129C24.5801 27.7724 25.1081 27.4699 25.6586 27.0914V23.7615H16.958V14.8447H34.9997Z" fill="#FFC857"/>
<path d="M16.2744 32.1394C16.2803 33.5515 16.2865 35.1983 16.2865 36.8791V40.6641C16.2803 44.5061 12.9018 38.8394 8.7419 38.8394L5 39C5 38.5 5 39 5.20593 34.9866C5.20593 34.455 5.26636 33.9347 5.38758 33.4373C6.13827 30.327 9.15364 28 12.7504 28H18C16.892 29.1435 16.2803 30.6014 16.2744 32.1394Z" fill="#FF6B6B"/>
<path d="M48.92 32V9.6H56.92C58.136 9.6 59.2347 9.904 60.216 10.512C61.208 11.12 61.992 11.936 62.568 12.96C63.144 13.984 63.432 15.1093 63.432 16.336C63.432 17.5947 63.1333 18.736 62.536 19.76C61.9493 20.7733 61.16 21.584 60.168 22.192C59.176 22.7893 58.0933 23.088 56.92 23.088H52.824V32H48.92ZM52.824 19.184H56.504C57.0587 19.184 57.5653 19.0453 58.024 18.768C58.4827 18.4907 58.8453 18.1173 59.112 17.648C59.3893 17.1787 59.528 16.656 59.528 16.08C59.528 15.4933 59.3893 14.9653 59.112 14.496C58.8453 14.0267 58.4827 13.6533 58.024 13.376C57.5653 13.0987 57.0587 12.96 56.504 12.96H52.824V19.184ZM65.936 32L65.92 16H69.824L69.84 17.424C70.384 16.848 71.0347 16.3947 71.792 16.064C72.5493 15.7227 73.3653 15.552 74.24 15.552C74.8267 15.552 75.4133 15.6373 76 15.808L74.464 19.744C74.0587 19.584 73.6533 19.504 73.248 19.504C72.6187 19.504 72.0427 19.6587 71.52 19.968C71.008 20.2667 70.5973 20.6773 70.288 21.2C69.9893 21.712 69.84 22.2827 69.84 22.912V32H65.936ZM77.7325 16H81.6365V32H77.7325V16ZM79.7165 13.936C79.1405 13.936 78.6552 13.7493 78.2605 13.376C77.8658 12.992 77.6685 12.512 77.6685 11.936C77.6685 11.3707 77.8658 10.896 78.2605 10.512C78.6552 10.128 79.1352 9.936 79.7005 9.936C80.2658 9.936 80.7405 10.128 81.1245 10.512C81.5192 10.896 81.7165 11.3707 81.7165 11.936C81.7165 12.512 81.5245 12.992 81.1405 13.376C80.7565 13.7493 80.2818 13.936 79.7165 13.936ZM100.014 21.888V32H96.1095V22.912C96.1095 22.2827 95.9548 21.712 95.6455 21.2C95.3362 20.6773 94.9202 20.2667 94.3975 19.968C93.8855 19.6587 93.3148 19.504 92.6855 19.504C92.0562 19.504 91.4802 19.6587 90.9575 19.968C90.4455 20.2667 90.0348 20.6773 89.7255 21.2C89.4268 21.712 89.2775 22.2827 89.2775 22.912V32H85.3735L85.3575 16H89.2615L89.2775 17.424C89.8215 16.848 90.4722 16.3947 91.2295 16.064C91.9868 15.7227 92.8028 15.552 93.6775 15.552C94.8402 15.552 95.9015 15.84 96.8615 16.416C97.8215 16.9813 98.5842 17.744 99.1495 18.704C99.7255 19.6533 100.014 20.7147 100.014 21.888ZM111.777 19.904H108.673V32H104.769V19.904H102.401V16H104.769V10.976H108.673V16H111.777V19.904ZM114.67 32V9.6H118.894L128.35 24.944V9.6H132.254V32H128.046L118.574 16.656V32H114.67ZM142.898 32.416C141.426 32.416 140.082 32.0373 138.866 31.28C137.66 30.5227 136.695 29.504 135.97 28.224C135.255 26.944 134.898 25.5307 134.898 23.984C134.898 22.8213 135.106 21.7333 135.522 20.72C135.938 19.696 136.508 18.8 137.234 18.032C137.97 17.2533 138.823 16.6453 139.794 16.208C140.764 15.7707 141.799 15.552 142.898 15.552C144.146 15.552 145.287 15.8187 146.322 16.352C147.367 16.8747 148.252 17.5947 148.978 18.512C149.703 19.4293 150.231 20.4747 150.562 21.648C150.892 22.8213 150.967 24.048 150.786 25.328H139.09C139.239 25.9253 139.484 26.464 139.826 26.944C140.167 27.4133 140.599 27.792 141.122 28.08C141.644 28.3573 142.236 28.5013 142.898 28.512C143.58 28.5227 144.199 28.3627 144.754 28.032C145.319 27.6907 145.788 27.232 146.162 26.656L150.146 27.584C149.495 29.0027 148.524 30.1653 147.234 31.072C145.943 31.968 144.498 32.416 142.898 32.416ZM138.962 22.4H146.834C146.716 21.76 146.466 21.184 146.082 20.672C145.708 20.1493 145.244 19.7333 144.69 19.424C144.135 19.1147 143.538 18.96 142.898 18.96C142.258 18.96 141.666 19.1147 141.122 19.424C140.578 19.7227 140.114 20.1333 139.73 20.656C139.356 21.168 139.1 21.7493 138.962 22.4ZM158.234 32.288C157.402 32.2347 156.596 32.0693 155.818 31.792C155.05 31.504 154.367 31.1147 153.77 30.624C153.172 30.1333 152.714 29.5467 152.394 28.864L155.69 27.456C155.818 27.6693 156.026 27.8987 156.314 28.144C156.602 28.3787 156.943 28.576 157.338 28.736C157.743 28.896 158.186 28.976 158.666 28.976C159.071 28.976 159.455 28.9227 159.818 28.816C160.191 28.6987 160.49 28.5227 160.714 28.288C160.948 28.0533 161.066 27.7493 161.066 27.376C161.066 26.9813 160.927 26.6773 160.65 26.464C160.383 26.24 160.042 26.0747 159.626 25.968C159.22 25.8507 158.826 25.744 158.442 25.648C157.428 25.4453 156.484 25.1307 155.61 24.704C154.746 24.2773 154.047 23.728 153.514 23.056C152.991 22.3733 152.73 21.552 152.73 20.592C152.73 19.536 153.007 18.624 153.562 17.856C154.127 17.088 154.858 16.496 155.754 16.08C156.66 15.664 157.636 15.456 158.682 15.456C159.951 15.456 161.114 15.7227 162.17 16.256C163.236 16.7787 164.079 17.52 164.698 18.48L161.61 20.304C161.46 20.048 161.252 19.8133 160.986 19.6C160.719 19.376 160.415 19.1947 160.074 19.056C159.732 18.9067 159.375 18.8213 159.002 18.8C158.522 18.7787 158.084 18.8213 157.69 18.928C157.295 19.0347 156.975 19.216 156.73 19.472C156.495 19.728 156.378 20.0693 156.378 20.496C156.378 20.9013 156.538 21.2053 156.858 21.408C157.178 21.6 157.562 21.7493 158.01 21.856C158.468 21.9627 158.906 22.08 159.322 22.208C160.26 22.5173 161.14 22.896 161.962 23.344C162.794 23.792 163.46 24.3413 163.962 24.992C164.463 25.6427 164.703 26.4213 164.682 27.328C164.682 28.3627 164.372 29.2693 163.754 30.048C163.135 30.816 162.335 31.4027 161.354 31.808C160.383 32.2133 159.343 32.3733 158.234 32.288ZM175.996 19.904H172.892V32H168.988V19.904H166.62V16H168.988V10.976H172.892V16H175.996V19.904Z" fill="#121212"/>
</svg>
