<svg width="172" height="43" viewBox="0 0 172 43" fill="none" xmlns="http://www.w3.org/2000/svg">
<g clip-path="url(#clip0_22983_693)">
<path d="M55.2738 35.2085C52.0365 35.0236 47.97 32.8314 46.3379 31.1937L49.923 26.6772C50.8059 27.6544 55.033 30.0581 57.9224 29.5298C58.6982 29.3713 59.5811 28.7109 59.5811 27.6808C59.6346 26.9941 59.046 26.3602 58.5376 26.1225C58.056 25.7791 56.5311 25.7264 55.5413 25.6735C54.4176 25.6206 53.1335 25.4886 51.7689 24.9339C49.2541 23.7189 47.4884 21.2098 47.4081 18.542C47.4081 15.3989 48.6922 13.6557 50.0032 12.5728C52.6519 10.539 56.3438 10.3541 58.8854 11.0144C60.892 11.4898 63.1125 12.5728 64.4235 13.8141L61.1328 18.3571C60.6512 18.0138 58.3236 16.9572 57.4408 16.7196C56.0763 16.3234 54.3373 16.5347 53.5614 17.0101C53.3206 17.1421 52.9729 17.6968 53.08 18.3571C53.08 18.8325 53.5347 19.5192 53.8557 19.7041C54.5514 20.0475 55.1935 20.2324 56.103 20.2853C57.3873 20.2853 59.5276 20.2853 61.1595 21.0513C63.8617 22.5039 65.4401 24.9868 65.226 27.8393C65.0655 30.3221 63.3533 32.7257 61.106 33.8879C59.4473 34.9707 57.2 35.367 55.2738 35.2085Z" fill="#121212"/>
<path d="M79.1379 34.9701C75.9542 34.9701 72.9577 33.7551 70.6569 31.5893C68.3026 29.3707 66.965 26.3596 66.9382 23.1108C66.8847 19.8619 68.1153 16.8246 70.3626 14.4738C72.6099 12.2023 75.6599 10.8289 78.9506 10.8024C82.2413 10.7496 85.2912 11.9646 87.6456 14.1833L83.579 18.3565C82.4018 17.2472 80.8234 16.6132 79.1647 16.6132H79.0577C77.3453 16.6132 75.7669 17.2999 74.5898 18.5149C73.4126 19.7299 72.7704 21.3147 72.8239 23.0315C72.8239 24.7219 73.5196 26.2803 74.7502 27.4425C75.9809 28.6046 77.5861 29.2385 79.3252 29.1858C80.9036 29.1858 82.375 28.5518 83.5523 27.4952L87.5385 31.7478C85.318 33.7815 82.4286 34.9436 79.4321 34.9965H79.1379V34.9701Z" fill="#121212"/>
<path d="M112.18 10.882V35.0233H107.284V32.831C105.277 34.1781 102.869 35.0233 100.274 35.0233C93.5055 35.0233 87.9941 29.5558 87.9941 22.8999C87.9941 16.2173 93.4787 10.7764 100.274 10.7764C102.869 10.7764 105.277 11.5952 107.284 12.9686V10.882H112.18ZM106.615 22.8999C106.615 19.4134 103.779 16.6136 100.221 16.6136C96.7426 16.6136 93.8799 19.4134 93.8799 22.8999C93.8799 26.3335 96.7158 29.1597 100.221 29.1597C103.779 29.1597 106.615 26.3335 106.615 22.8999Z" fill="#121212"/>
<path d="M140.378 23.3758C140.378 30.0054 134.92 35.3936 128.258 35.3936C125.743 35.3936 123.443 34.6276 121.543 33.3599V43.0005H115.711V11.041H121.543V13.471C123.469 12.1504 125.77 11.4372 128.258 11.4372C134.947 11.4108 140.378 16.799 140.378 23.3758ZM134.546 23.3758C134.546 19.9421 131.736 17.1688 128.258 17.1688C124.78 17.1688 121.918 19.9421 121.918 23.3758C121.918 26.8094 124.754 29.6356 128.258 29.6356C131.736 29.6356 134.546 26.8358 134.546 23.3758Z" fill="#121212"/>
<path d="M145.675 8.16154C143.481 8.16154 141.715 6.41831 141.715 4.17321V3.9091C141.715 1.74324 143.481 0 145.675 0C147.922 0 149.768 1.74324 149.768 3.9091V4.17321C149.768 6.39189 147.922 8.16154 145.675 8.16154ZM148.724 34.8649H142.946V10.8028H148.724V34.8649Z" fill="#121212"/>
<path d="M163.493 34.9701C160.309 34.9701 157.312 33.7551 155.012 31.5893C152.657 29.3707 151.319 26.3596 151.293 23.1108C151.239 19.8619 152.47 16.8246 154.717 14.4738C156.965 12.2023 160.014 10.8289 163.305 10.8024C166.597 10.7496 169.646 11.9646 172 14.1833L167.934 18.3565C166.756 17.2472 165.178 16.6132 163.52 16.6132H163.413C161.699 16.6132 160.121 17.2999 158.944 18.5149C157.767 19.7299 157.125 21.3147 157.179 23.0315C157.179 24.7219 157.874 26.2803 159.105 27.4425C160.336 28.6046 161.941 29.2385 163.681 29.1858C165.259 29.1858 166.73 28.5518 167.907 27.4952L171.894 31.7478C169.672 33.7815 166.783 34.9436 163.787 34.9965H163.493V34.9701Z" fill="#121212"/>
<path d="M19.0762 31.9854C18.5946 32.0383 18.4608 31.378 18.9156 31.246C18.9424 31.246 18.9424 31.246 18.9692 31.2196C28.4667 28.5782 35.4227 23.7976 34.513 20.5487C33.5766 17.3 25.1225 16.7982 15.6249 19.4395C6.12729 22.0806 -0.828694 26.8614 0.0809336 30.1102C2.75631 39.4867 12.6284 44.9805 22.126 42.3394C29.8579 40.1999 34.9679 33.3326 35.1552 25.8049C28.2795 31.6421 19.0762 31.9854 19.0762 31.9854Z" fill="#F54547"/>
<path d="M28.4938 8.02923C26.835 2.19201 20.6817 -1.21524 14.7423 0.42235C10.2477 1.69016 7.14427 5.52002 6.68945 9.87812C7.49206 9.34987 11.0503 7.23685 16.4546 6.89348C16.5884 6.89348 16.6687 6.86707 16.6687 6.86707C16.9628 6.81424 17.0431 7.26326 16.7755 7.34251H16.7488C10.8095 8.98009 6.47542 11.9647 7.03724 13.9985C7.62583 16.0322 12.8696 16.3229 18.809 14.6853C24.7482 13.0212 29.0823 10.063 28.4938 8.02923Z" fill="#F54547"/>
</g>
<defs>
<clipPath id="clip0_22983_693">
<rect width="172" height="43" fill="white"/>
</clipPath>
</defs>
</svg>
