<svg width="179" height="38" viewBox="0 0 179 38" fill="none" xmlns="http://www.w3.org/2000/svg">
<path d="M71.2612 19.9037L68.1681 11.7075C68.1396 11.6336 68.0892 11.5701 68.0236 11.5254C67.9581 11.4806 67.8804 11.4566 67.8009 11.4566C67.7214 11.4566 67.6438 11.4806 67.5782 11.5254C67.5127 11.5701 67.4624 11.6336 67.4337 11.7075L64.3407 19.905C64.3192 19.9632 64.3124 20.0257 64.3207 20.087C64.3291 20.1485 64.3524 20.2069 64.3886 20.2572C64.4248 20.3077 64.4728 20.3484 64.5285 20.3762C64.5842 20.4038 64.6458 20.4175 64.7079 20.416H70.9203C71.0128 20.4171 71.1022 20.3831 71.1706 20.3212C71.2389 20.2592 71.2812 20.1736 71.2888 20.0819C71.2946 20.0216 71.2851 19.9608 71.2612 19.905V19.9037ZM72.7024 24.503H62.8995C62.8196 24.5035 62.7415 24.5283 62.676 24.5739C62.6105 24.6195 62.5603 24.684 62.5323 24.7585L60.5922 29.8715C60.5643 29.9459 60.5144 30.0101 60.4492 30.0557C60.3839 30.1014 60.3062 30.1262 60.2263 30.127H55.9764C55.9115 30.1279 55.8474 30.1127 55.7899 30.0828C55.7324 30.0528 55.6833 30.0092 55.647 29.9556C55.6106 29.902 55.5883 29.8403 55.5819 29.776C55.5756 29.7116 55.5854 29.6468 55.6105 29.5871L65.3871 5.69564C65.4163 5.62335 65.4676 5.56202 65.5337 5.52039C65.5999 5.47876 65.6775 5.45892 65.7556 5.46371H69.8173C69.8944 5.46418 69.9699 5.48617 70.035 5.52717C70.1002 5.56817 70.1524 5.62653 70.1858 5.69564L79.9611 29.5871C79.9862 29.6469 79.9961 29.712 79.9896 29.7765C79.9832 29.8409 79.9607 29.9028 79.9244 29.9565C79.8879 30.0101 79.8387 30.054 79.7809 30.084C79.7233 30.114 79.659 30.1292 79.5939 30.1283H75.3505C75.2704 30.1276 75.1923 30.1028 75.1268 30.0569C75.0612 30.011 75.0112 29.9464 74.9833 29.8715L73.0433 24.7585C73.0248 24.6832 72.9809 24.6165 72.9188 24.5697C72.8566 24.5229 72.7803 24.4989 72.7024 24.5017V24.503ZM81.9814 13.8394H85.6259C85.7288 13.8414 85.827 13.8826 85.9002 13.9546C85.9735 14.0264 86.0162 14.1236 86.0195 14.226V29.7444C86.0162 29.8466 85.9734 29.9434 85.9001 30.015C85.8268 30.0864 85.7286 30.127 85.6259 30.1283H81.9827C81.8799 30.1274 81.7815 30.0869 81.7079 30.0153C81.6343 29.9438 81.5913 29.8467 81.5879 29.7444V14.226C81.5874 14.1745 81.5972 14.1235 81.617 14.0759C81.6367 14.0284 81.6659 13.9852 81.7028 13.9491C81.7396 13.913 81.7835 13.8847 81.8315 13.8659C81.8797 13.847 81.9311 13.838 81.9827 13.8394H81.9814ZM99.2839 17.6158C99.2808 17.7184 99.2383 17.8159 99.165 17.8881C99.0918 17.9603 98.9935 18.0017 98.8903 18.0037H98.785C96.9766 18.0037 95.6657 18.4125 94.8273 19.2616C93.9889 20.1107 93.569 21.4971 93.569 23.4469V29.7169C93.5657 29.8191 93.5232 29.916 93.4503 29.988C93.3774 30.0598 93.2795 30.1012 93.1768 30.1034H89.5837C89.4811 30.1012 89.3832 30.0598 89.3103 29.988C89.2374 29.916 89.1949 29.8191 89.1914 29.7169V14.226C89.1949 14.1236 89.2375 14.0264 89.3108 13.9546C89.384 13.8826 89.4822 13.8414 89.585 13.8394H93.1492C93.2524 13.8411 93.3508 13.8821 93.4244 13.9541C93.4978 14.026 93.5407 14.1234 93.544 14.226V17.283H93.6217C93.9857 16.1218 94.6992 15.1 95.6657 14.3557C96.676 13.6463 97.8918 13.2854 99.1272 13.3284H99.3102V17.6171H99.2839V17.6158ZM109.218 17.4638C109.116 17.4655 109.019 17.506 108.946 17.5773C108.873 17.6484 108.83 17.7448 108.826 17.8464V24.296C108.777 24.8004 108.917 25.3036 109.218 25.7111C109.482 25.9915 109.926 26.12 110.582 26.12H110.949C111.052 26.1223 111.15 26.1636 111.223 26.2355C111.296 26.3075 111.338 26.4044 111.341 26.5065V29.7431C111.338 29.845 111.295 29.9417 111.222 30.0131C111.149 30.0847 111.052 30.1254 110.949 30.127H109.404C107.803 30.127 106.573 29.7155 105.708 28.9189C104.842 28.0986 104.424 26.9153 104.424 25.2984V17.8464C104.42 17.7444 104.377 17.6477 104.303 17.5764C104.23 17.5051 104.131 17.4647 104.029 17.4638H101.749C101.646 17.4616 101.548 17.4201 101.475 17.3479C101.402 17.2757 101.36 17.1783 101.357 17.076V14.226C101.36 14.1238 101.402 14.0265 101.475 13.9546C101.548 13.8826 101.646 13.8414 101.749 13.8394H104.03C104.133 13.8381 104.231 13.7975 104.304 13.7261C104.377 13.6545 104.42 13.5577 104.424 13.4555V7.69916C104.427 7.59705 104.47 7.50017 104.543 7.42866C104.616 7.35714 104.715 7.31652 104.817 7.31522H108.46C108.563 7.31652 108.661 7.35714 108.734 7.42866C108.808 7.50017 108.851 7.59705 108.854 7.69916V13.4555C108.857 13.5577 108.9 13.6545 108.973 13.7261C109.047 13.7975 109.145 13.8381 109.247 13.8394H111.868C111.971 13.8414 112.069 13.8826 112.142 13.9546C112.215 14.0264 112.258 14.1236 112.261 14.226V17.076C112.258 17.1786 112.216 17.276 112.143 17.3482C112.069 17.4204 111.971 17.4619 111.868 17.4638H109.218ZM125.864 25.2735C126.283 24.832 126.608 24.3109 126.82 23.7412C127.032 23.1714 127.126 22.565 127.096 21.9583C127.119 21.3523 127.023 20.7475 126.811 20.1787C126.6 19.6099 126.278 19.0881 125.864 18.6431C124.977 17.8343 123.817 17.3856 122.614 17.3856C121.411 17.3856 120.251 17.8343 119.363 18.6431C118.944 19.0846 118.619 19.6058 118.408 20.1754C118.196 20.7452 118.102 21.3516 118.132 21.9583C118.108 22.5643 118.205 23.1691 118.416 23.7379C118.628 24.3067 118.95 24.8285 119.363 25.2735C119.789 25.6951 120.297 26.0246 120.857 26.241C121.416 26.4575 122.015 26.5564 122.614 26.5314C123.215 26.5647 123.816 26.4697 124.377 26.2528C124.937 26.0358 125.445 25.702 125.865 25.2735H125.864ZM117.475 29.616C116.244 28.9212 115.242 27.885 114.592 26.6336C113.902 25.1707 113.544 23.5741 113.544 21.9576C113.544 20.3412 113.902 18.7447 114.592 17.2817C115.25 16.0363 116.25 15.0026 117.475 14.3006C118.706 13.611 120.098 13.2567 121.51 13.2733C122.665 13.2452 123.809 13.5017 124.84 14.0202C125.752 14.5007 126.513 15.2209 127.042 16.1024H127.121V14.1971C127.125 14.0953 127.167 13.9989 127.24 13.9275C127.313 13.856 127.411 13.8152 127.513 13.8132H131.105C131.208 13.8149 131.306 13.8555 131.379 13.9271C131.452 13.9985 131.495 14.0952 131.499 14.1971V29.7142C131.496 29.8171 131.453 29.9147 131.379 29.987C131.306 30.0592 131.207 30.1005 131.104 30.1021H127.516C127.413 30.1001 127.314 30.0587 127.241 29.9865C127.168 29.9143 127.125 29.8168 127.122 29.7142V27.8142H127.043C126.515 28.6966 125.752 29.4173 124.84 29.8977C123.808 30.4142 122.665 30.6703 121.51 30.6433C120.098 30.66 118.706 30.3057 117.475 29.616ZM146.468 25.2735C146.886 24.832 147.211 24.3108 147.423 23.741C147.635 23.1714 147.729 22.565 147.7 21.9583C147.723 21.3523 147.626 20.7475 147.415 20.1787C147.203 19.6099 146.881 19.0881 146.468 18.6431C145.581 17.8339 144.42 17.3849 143.217 17.3849C142.014 17.3849 140.853 17.8339 139.966 18.6431C139.547 19.0848 139.222 19.6061 139.01 20.1757C138.8 20.7454 138.705 21.3517 138.735 21.9583C138.711 22.5643 138.809 23.1691 139.019 23.7379C139.231 24.3067 139.552 24.8285 139.967 25.2735C140.392 25.6951 140.9 26.0246 141.461 26.241C142.02 26.4575 142.618 26.5564 143.218 26.5314C143.818 26.5646 144.42 26.4694 144.98 26.2526C145.541 26.0356 146.048 25.7018 146.469 25.2735H146.468ZM141.016 29.8964C140.104 29.4157 139.342 28.695 138.813 27.8129H138.734V29.7155C138.73 29.8178 138.688 29.9147 138.615 29.9867C138.542 30.0585 138.444 30.0999 138.342 30.1021H134.697C134.594 30.0999 134.497 30.0585 134.423 29.9867C134.351 29.9147 134.307 29.8178 134.305 29.7155V5.82274C134.307 5.72073 134.351 5.6239 134.423 5.55221C134.497 5.48052 134.594 5.43947 134.697 5.4375H138.342C138.444 5.43911 138.542 5.47985 138.615 5.55129C138.689 5.62273 138.731 5.71943 138.735 5.82143V16.126H138.814C139.343 15.2449 140.105 14.5245 141.016 14.0425C142.048 13.5262 143.19 13.2702 144.345 13.2969C145.757 13.28 147.149 13.6358 148.38 14.3282C149.611 15.0216 150.612 16.0565 151.262 17.3066C152 18.7531 152.36 20.3606 152.313 21.9819C152.346 23.6021 151.986 25.2063 151.264 26.6585C150.606 27.9046 149.605 28.9385 148.381 29.6395C147.149 30.3293 145.757 30.6838 144.345 30.6669C143.189 30.6763 142.047 30.4113 141.015 29.8937L141.016 29.8964ZM158.447 30.1047H154.806C154.703 30.1031 154.604 30.0619 154.531 29.9895C154.457 29.9172 154.415 29.8196 154.412 29.7169V5.82405C154.416 5.7216 154.458 5.62438 154.532 5.55263C154.606 5.48087 154.704 5.44011 154.807 5.43881H158.449C158.551 5.44108 158.649 5.48205 158.721 5.55339C158.794 5.62474 158.837 5.72107 158.841 5.82274V29.7155C158.842 29.7909 158.821 29.8648 158.78 29.9281C158.74 29.9914 158.68 30.041 158.611 30.0706C158.559 30.0928 158.504 30.1035 158.449 30.1021V30.1047H158.447ZM167.02 17.5922C166.385 18.0963 165.95 18.8059 165.788 19.5971C165.776 19.6542 165.779 19.7132 165.793 19.7695C165.808 19.8258 165.835 19.8783 165.873 19.9227C165.91 19.9671 165.958 20.0025 166.012 20.0262C166.064 20.0499 166.123 20.0613 166.181 20.0596H173.102C173.157 20.0599 173.212 20.0482 173.264 20.0257C173.315 20.0031 173.36 19.9701 173.397 19.9287C173.435 19.8874 173.462 19.8387 173.479 19.7859C173.497 19.7329 173.502 19.6771 173.495 19.622C173.39 18.854 173.007 18.1504 172.419 17.6433C171.661 17.0432 170.713 16.7326 169.745 16.768C168.772 16.7418 167.815 17.0301 167.02 17.5909L167.018 17.5922H167.02ZM175.88 15.5887C177.295 17.1022 178.003 19.242 178.002 22.0094V22.4746C177.998 22.5767 177.956 22.6734 177.882 22.7448C177.808 22.8162 177.711 22.8569 177.608 22.8585H166.051C165.993 22.8597 165.936 22.8729 165.885 22.8974C165.833 22.9219 165.786 22.9572 165.75 23.0007C165.711 23.0443 165.684 23.0953 165.668 23.1503C165.652 23.2054 165.648 23.263 165.656 23.3198C165.806 24.2821 166.3 25.1582 167.047 25.7871C167.965 26.5017 169.108 26.8657 170.272 26.8131C172.009 26.789 173.672 26.0991 174.911 24.8869C174.952 24.8497 175.001 24.8219 175.054 24.8056C175.108 24.7892 175.163 24.7846 175.218 24.7921C175.273 24.7995 175.326 24.8189 175.372 24.8489C175.42 24.8789 175.459 24.9188 175.488 24.9655L177.244 27.4565C177.294 27.536 177.316 27.6297 177.306 27.723C177.296 27.8162 177.256 27.9037 177.191 27.9715C176.32 28.711 175.36 29.3412 174.335 29.8479C173.057 30.4151 171.67 30.6957 170.271 30.6695C168.632 30.7066 167.009 30.3349 165.552 29.5884C164.239 28.9014 163.154 27.8483 162.433 26.5576C161.669 25.1736 161.281 23.6156 161.306 22.0369C161.277 20.4556 161.647 18.8924 162.382 17.49C163.07 16.2037 164.116 15.1424 165.396 14.4343C166.785 13.6797 168.348 13.2985 169.931 13.3284C172.499 13.2982 174.465 14.07 175.88 15.5874V15.5887ZM86.4906 8.08833C86.4981 8.61481 86.3488 9.13169 86.0612 9.57362C85.7736 10.0155 85.361 10.3627 84.8753 10.5711C84.3896 10.7796 83.8528 10.84 83.3326 10.7447C82.8125 10.6495 82.3323 10.4028 81.953 10.0359C81.5737 9.66905 81.312 9.19843 81.2013 8.68357C81.0905 8.1687 81.1356 7.63271 81.3308 7.14335C81.526 6.65397 81.8626 6.23322 82.298 5.93425C82.7333 5.63528 83.248 5.47154 83.7767 5.46371H83.7898C84.4954 5.46046 85.1739 5.73339 85.6792 6.22363C86.1844 6.71388 86.4759 7.38217 86.4906 8.0844V8.08702V8.08833Z" fill="#121212"/>
<path d="M20.8337 0.466121L4.29739 7.27821C3.37806 7.65734 3.38733 8.95771 4.31293 9.32287L20.9182 15.8786C22.3771 16.4547 24.002 16.4547 25.4609 15.8786L42.0663 9.32287C42.9915 8.95771 43.0012 7.65734 42.0815 7.27845L25.5456 0.466121C24.037 -0.155374 22.3423 -0.155374 20.8337 0.466121Z" fill="#FCB400"/>
<path d="M24.6631 19.4582V35.8357C24.6631 36.6143 25.452 37.148 26.1793 36.8609L44.6827 29.7106C44.889 29.6292 45.0661 29.488 45.1907 29.305C45.3155 29.1222 45.3821 28.9063 45.3821 28.6854V12.3081C45.3821 11.5292 44.5932 10.9958 43.8658 11.2828L25.3625 18.4331C25.1561 18.5146 24.9792 18.6559 24.8545 18.8388C24.7298 19.0216 24.6631 19.2374 24.6631 19.4584" fill="#18BFFF"/>
<path d="M20.3419 20.3033L14.8506 22.943L14.293 23.2114L2.701 28.741C1.96645 29.0939 1.02832 28.5609 1.02832 27.7482V12.3768C1.02832 12.0828 1.17975 11.829 1.38281 11.638C1.46611 11.5554 1.56063 11.4849 1.66359 11.4284C1.94037 11.2629 2.33548 11.2187 2.67142 11.351L20.2496 18.2851C21.1432 18.638 21.2133 19.8845 20.3419 20.3036" fill="#F82B60"/>
<path d="M20.3418 20.3033L14.8505 22.943L1.38281 11.6378C1.46614 11.5553 1.56065 11.4848 1.66361 11.4284C1.94037 11.2629 2.33549 11.2187 2.67143 11.351L20.2497 18.2851C21.1431 18.638 21.2133 19.8845 20.3418 20.3036" fill="black" fill-opacity="0.25"/>
</svg>
