<svg width="172" height="40" viewBox="0 0 172 40" fill="none" xmlns="http://www.w3.org/2000/svg">
<path d="M73.6088 14.2539C73.0249 13.4494 72.2171 12.8358 71.287 12.4905C70.332 12.1057 69.3983 11.9134 68.4859 11.9134C67.3202 11.9134 66.2587 12.1271 65.3049 12.5546C64.3678 12.9694 63.5234 13.5691 62.8222 14.3181C62.1315 15.086 61.5919 15.9781 61.2317 16.9472C60.8634 17.9975 60.6805 19.1043 60.6909 20.2176C60.6909 21.4573 60.8708 22.5902 61.2317 23.6162C61.5645 24.5936 62.0829 25.497 62.7583 26.2762C63.4388 27.0047 64.2624 27.5838 65.1771 27.9767C66.1108 28.3828 67.1605 28.5859 68.3273 28.5859C69.5367 28.5859 70.6077 28.3508 71.5414 27.8805C72.4739 27.3889 73.2277 26.7477 73.8005 25.9568L77.0146 28.2332C76.0328 29.482 74.7813 30.4907 73.3544 31.183C71.9118 31.867 70.2255 32.209 68.2954 32.209C66.5345 32.209 64.912 31.9204 63.4269 31.3421C62.0147 30.7782 60.7278 29.9395 59.64 28.8745C58.5706 27.7915 57.7274 26.5053 57.1596 25.0911C56.5656 23.6162 56.2686 21.9917 56.2686 20.2176C56.2686 18.4007 56.5762 16.7655 57.1916 15.312C57.8283 13.8371 58.6874 12.5867 59.769 11.5595C60.8945 10.5202 62.2137 9.71422 63.6505 9.18804C65.1357 8.63233 66.7487 8.35446 68.4871 8.35446C69.2089 8.35446 69.9616 8.42927 70.7473 8.57889C71.5319 8.70714 72.2858 8.92089 73.0064 9.2201C73.7283 9.49797 74.4064 9.84948 75.0419 10.277C75.6785 10.7045 76.2193 11.2187 76.6655 11.8172L73.6088 14.2539ZM79.3778 7.39258H83.1966V31.6319H79.3778V7.39258ZM98.5831 22.3978C98.5831 21.9062 98.5097 21.4359 98.3606 20.9871C98.2392 20.5486 98.0217 20.1429 97.7239 19.7996C97.41 19.4463 97.0176 19.1721 96.5784 18.9992C96.1335 18.7854 95.6033 18.6786 94.9879 18.6786C93.8424 18.6786 92.8661 19.0313 92.0602 19.7354C91.2756 20.4206 90.8413 21.3077 90.7561 22.3978H98.5831ZM102.402 24.1292V24.6422C102.402 24.8132 102.391 24.9842 102.37 25.1552H90.7561C90.7987 25.711 90.936 26.224 91.1703 26.6942C91.4236 27.1431 91.7525 27.5373 92.1561 27.8805C92.5584 28.2012 93.0152 28.4577 93.5241 28.65C94.0329 28.8424 94.5631 28.9386 95.1157 28.9386C96.0695 28.9386 96.8754 28.7676 97.5334 28.4256C98.1827 28.0696 98.7388 27.5642 99.1558 26.9507L101.701 29.0027C100.196 31.0547 98.0103 32.0807 95.1465 32.0807C93.9596 32.0807 92.8661 31.899 91.8685 31.5345C90.9058 31.1705 90.0208 30.6265 89.2603 29.9314C88.5233 29.2248 87.9385 28.3741 87.542 27.4317C87.1397 26.427 86.9385 25.2941 86.9385 24.033C86.9385 22.7933 87.1397 21.6699 87.542 20.6664C87.9669 19.6404 88.5396 18.7748 89.2603 18.0694C89.9835 17.3414 90.8505 16.7735 91.8058 16.4021C92.8274 15.9912 93.9192 15.7844 95.0199 15.7929C96.0802 15.7929 97.0553 15.9746 97.9476 16.338C98.8442 16.6695 99.6508 17.2077 100.303 17.9091C100.959 18.5931 101.468 19.4588 101.829 20.5061C102.211 21.5321 102.402 22.7386 102.402 24.128V24.1292ZM115.396 29.6748H115.301C114.919 30.36 114.303 30.9265 113.455 31.3754C112.606 31.8029 111.641 32.0166 110.559 32.0166C109.944 32.0166 109.297 31.9311 108.618 31.7601C107.963 31.6118 107.339 31.3515 106.772 30.9906C106.213 30.5972 105.737 30.0958 105.372 29.5157C105.011 28.8958 104.831 28.137 104.831 27.2393C104.831 26.085 105.15 25.1659 105.786 24.4819C106.444 23.7979 107.282 23.2742 108.3 22.9108C109.318 22.5475 110.442 22.3123 111.673 22.2055C112.888 22.0791 114.109 22.0149 115.332 22.0131V21.6283C115.332 20.6664 114.983 19.9611 114.282 19.5122C113.603 19.0419 112.786 18.8068 111.832 18.8068C111.03 18.8059 110.237 18.9809 109.509 19.3198C108.766 19.6618 108.151 20.0786 107.663 20.5703L105.691 18.2297C106.553 17.4216 107.571 16.7992 108.682 16.4009C109.795 16.0011 110.967 15.7954 112.149 15.7929C113.508 15.7929 114.622 15.9853 115.491 16.3701C116.382 16.7548 117.082 17.2571 117.591 17.877C118.1 18.4969 118.45 19.1916 118.642 19.9611C118.853 20.7306 118.96 21.5001 118.96 22.2696V31.6319H115.394V29.6748H115.396ZM115.332 24.6101H114.472C113.857 24.6101 113.211 24.6422 112.532 24.7051C111.893 24.7407 111.262 24.8596 110.655 25.059C110.082 25.23 109.604 25.4865 109.223 25.8285C108.841 26.1492 108.65 26.598 108.65 27.1752C108.65 27.5385 108.725 27.8485 108.873 28.105C109.042 28.3401 109.255 28.5325 109.509 28.6821C109.764 28.8317 110.05 28.9386 110.368 29.0027C110.687 29.0668 111.005 29.0977 111.322 29.0977C112.638 29.0977 113.635 28.7462 114.314 28.0408C114.993 27.3355 115.332 26.3736 115.332 25.1552V24.609V24.6101ZM123.408 16.2418H127.067V18.8068H127.131C127.53 17.9396 128.144 17.1892 128.913 16.6266C129.677 16.0708 130.568 15.7929 131.585 15.7929C131.735 15.7929 131.893 15.8036 132.062 15.825C132.233 15.825 132.382 15.8464 132.509 15.8891V19.416C132.288 19.3585 132.065 19.3157 131.84 19.2878C131.671 19.2665 131.501 19.2558 131.331 19.2557C130.461 19.2557 129.761 19.416 129.231 19.7366C128.736 20.0237 128.312 20.418 127.99 20.8909C127.706 21.3091 127.502 21.776 127.386 22.2684C127.279 22.7398 127.226 23.1139 127.226 23.3918V31.6319H123.408V16.2418ZM138.88 7.39258V18.1976H138.976C139.167 17.9411 139.411 17.6739 139.708 17.3961C140.004 17.1182 140.354 16.8617 140.758 16.6266C141.221 16.3758 141.713 16.182 142.222 16.0494C142.831 15.8704 143.463 15.7839 144.099 15.7929C145.18 15.7929 146.178 16.0067 147.09 16.4342C148.001 16.8403 148.787 17.4067 149.445 18.1323C150.115 18.88 150.633 19.7511 150.972 20.6973C151.339 21.7152 151.522 22.7904 151.513 23.8727C151.52 24.965 151.336 26.05 150.972 27.079C150.648 28.0349 150.14 28.9175 149.476 29.676C148.819 30.4185 148.017 31.0185 147.121 31.4395C146.21 31.867 145.17 32.0807 144.003 32.0807C142.945 32.0858 141.899 31.8444 140.95 31.3754C140.034 30.9215 139.269 30.208 138.753 29.3233H138.689V31.6319H135.062V7.39258H138.881H138.88ZM147.631 23.8727C147.631 23.2742 147.536 22.6852 147.345 22.1093C147.184 21.5289 146.914 20.9847 146.549 20.5061C146.184 20.0322 145.716 19.6484 145.18 19.3839C144.629 19.0847 143.983 18.9351 143.24 18.9351C142.54 18.9351 141.914 19.0847 141.363 19.3839C140.811 19.6832 140.333 20.0679 139.931 20.5382C139.544 21.0172 139.242 21.5596 139.04 22.1413C138.852 22.7213 138.756 23.327 138.753 23.9368C138.753 24.5353 138.848 25.1338 139.04 25.7323C139.253 26.3095 139.549 26.8332 139.931 27.3034C140.333 27.7737 140.811 28.1584 141.363 28.4577C141.914 28.7355 142.54 28.8733 143.24 28.8733C143.983 28.8733 144.629 28.7248 145.18 28.4256C145.713 28.1426 146.18 27.7492 146.549 27.2713C146.909 26.8011 147.174 26.2667 147.345 25.6682C147.533 25.0884 147.629 24.4826 147.631 23.8727ZM155.26 16.2418H159.078V31.6319H155.26V16.2418ZM154.718 11.0156C154.718 10.3957 154.941 9.86135 155.386 9.41247C155.853 8.94227 156.437 8.70714 157.137 8.70714C157.835 8.70714 158.42 8.93158 158.886 9.38041C159.374 9.80791 159.618 10.353 159.618 11.0156C159.618 11.6782 159.374 12.234 158.886 12.6829C158.42 13.1104 157.837 13.3241 157.136 13.3241C156.437 13.3241 155.853 13.0985 155.386 12.6508C155.173 12.4359 155.004 12.1807 154.89 11.9001C154.775 11.6194 154.717 11.3189 154.718 11.0156ZM161.515 19.3198V16.2418H164.189V11.7851H167.943V16.2418H171.759V19.3198H167.942V26.4686C167.942 27.1538 168.059 27.7202 168.292 28.1691C168.546 28.618 169.097 28.8424 169.946 28.8424C170.201 28.8424 170.476 28.821 170.773 28.7783C171.069 28.7142 171.336 28.6287 171.569 28.5218L171.697 31.5357C171.305 31.6765 170.9 31.7733 170.487 31.8242C170.021 31.9097 169.576 31.9525 169.15 31.9525C168.132 31.9525 167.305 31.8135 166.668 31.5357C166.033 31.2364 165.523 30.841 165.142 30.3482C164.777 29.8268 164.517 29.2392 164.377 28.618C164.247 27.9203 164.184 27.2117 164.188 26.5018V19.3198H161.513H161.515Z" fill="#121212"/>
<g filter="url(#filter0_f_22983_589)">
<path d="M28.3993 38.7588H10.8306L10.1135 38.7531C7.14697 38.7046 5.96701 38.342 4.77811 37.7013C3.49776 37.0114 2.49293 35.9989 1.80818 34.7088L1.66637 34.4316C1.09602 33.2707 0.783392 31.9895 0.760185 28.9797L0.758789 10.9076C0.758789 7.37856 1.12344 6.09889 1.80818 4.80877C2.49293 3.51865 3.49776 2.50615 4.77811 1.81619L5.05313 1.6733C6.20519 1.09859 7.4767 0.783572 10.4639 0.76019L28.3993 0.758789C31.9014 0.758789 33.1714 1.12623 34.4517 1.81619C35.7321 2.50615 36.737 3.51865 37.4217 4.80877L37.5634 5.08589C38.1338 6.24674 38.4465 7.52794 38.4697 10.5379L38.4711 28.61L38.4655 29.3326C38.4174 32.3218 38.0575 33.5109 37.4217 34.7088C36.737 35.9989 35.7321 37.0114 34.4517 37.7013L34.1767 37.8443C32.9786 38.442 31.6512 38.7588 28.3993 38.7588Z" fill="#C4D3E0" fill-opacity="0.2"/>
</g>
<path d="M38.4704 19.7588V28.6101C38.4704 32.139 38.1057 33.4186 37.421 34.7087C36.7363 35.999 35.7315 37.0114 34.451 37.7014C33.1707 38.3913 31.9007 38.7587 28.3986 38.7587H19.6143V19.7588H38.4704Z" fill="url(#paint0_linear_22983_589)"/>
<path d="M19.6143 0.758789H28.3986C31.9007 0.758789 33.1707 1.12623 34.451 1.81619C35.7315 2.50615 36.7363 3.51864 37.421 4.80877C38.1057 6.09889 38.4704 7.37856 38.4704 10.9074V19.7587H19.6143V0.758789Z" fill="url(#paint1_linear_22983_589)"/>
<path d="M10.8306 0.758789H19.6149V38.7588H10.8306C7.32846 38.7588 6.05846 38.3913 4.77811 37.7013C3.49776 37.0114 2.49293 35.9989 1.80818 34.7088C1.12344 33.4186 0.758789 32.1389 0.758789 28.61V10.9076C0.758789 7.37856 1.12344 6.09889 1.80818 4.80877C2.49293 3.51865 3.49776 2.50615 4.77811 1.81619C6.05846 1.12623 7.32846 0.758789 10.8306 0.758789Z" fill="url(#paint2_linear_22983_589)"/>
<defs>
<filter id="filter0_f_22983_589" x="-9.71556e-05" y="-9.71556e-05" width="39.2297" height="39.5178" filterUnits="userSpaceOnUse" color-interpolation-filters="sRGB">
<feFlood flood-opacity="0" result="BackgroundImageFix"/>
<feBlend mode="normal" in="SourceGraphic" in2="BackgroundImageFix" result="shape"/>
<feGaussianBlur stdDeviation="0.379443" result="effect1_foregroundBlur_22983_589"/>
</filter>
<linearGradient id="paint0_linear_22983_589" x1="29.0423" y1="19.7588" x2="38.5855" y2="38.7007" gradientUnits="userSpaceOnUse">
<stop stop-color="#DEF2FE"/>
<stop offset="1" stop-color="#DBF1FE"/>
</linearGradient>
<linearGradient id="paint1_linear_22983_589" x1="19.6143" y1="0.758789" x2="29.1575" y2="19.7007" gradientUnits="userSpaceOnUse">
<stop stop-color="#57BCFD"/>
<stop offset="1" stop-color="#51B5FD"/>
</linearGradient>
<linearGradient id="paint2_linear_22983_589" x1="7.82985" y1="0.758789" x2="24.0533" y2="32.9601" gradientUnits="userSpaceOnUse">
<stop stop-color="#1CA7FD"/>
<stop offset="1" stop-color="#148CFC"/>
</linearGradient>
</defs>
</svg>
