<svg width="169" height="32" viewBox="0 0 169 32" fill="none" xmlns="http://www.w3.org/2000/svg">
<g clip-path="url(#clip0_22983_643)">
<path fill-rule="evenodd" clip-rule="evenodd" d="M150.942 24.5703L157.176 16.2496L151.426 8.3877H156.35L159.68 13.2929L163.039 8.3877H167.935L162.1 16.2215L168.247 24.5703H163.41L159.623 19.2906L155.952 24.5703H150.942Z" fill="#121212"/>
<path fill-rule="evenodd" clip-rule="evenodd" d="M135.27 16.8024C135.27 22.1433 138.21 24.9826 143.418 24.9826C148.292 24.9826 151.595 22.1433 151.595 16.8024V16.3526C151.595 10.9553 148.235 7.97559 143.418 7.97559C138.714 7.97559 135.27 10.8991 135.27 16.3526V16.8024ZM147.351 16.8035C147.351 19.7665 145.862 21.3751 143.418 21.3751C141.003 21.3751 139.514 19.7383 139.514 16.8035V16.4085C139.514 13.2481 141.086 11.5831 143.446 11.5831C145.834 11.5831 147.351 13.361 147.351 16.4085V16.8035Z" fill="#121212"/>
<path fill-rule="evenodd" clip-rule="evenodd" d="M121.029 21.6106C121.913 23.6899 123.679 24.9825 126.386 24.9825C130.574 24.9825 133.31 21.9477 133.31 16.5528V16.0751C133.31 10.6801 130.404 8.01069 126.5 7.9826C123.907 7.9826 122.084 9.13465 121.172 11.2421V2.9248H116.983V24.561H120.687L121.029 21.6106ZM129.065 16.5914C129.065 19.7991 127.571 21.3749 125.118 21.3749C122.779 21.3749 121.228 19.6303 121.228 16.5914V16.2538C121.228 13.4682 122.835 11.5829 125.175 11.5829C127.43 11.5829 129.065 13.2149 129.065 16.1976V16.5914Z" fill="#121212"/>
<path fill-rule="evenodd" clip-rule="evenodd" d="M98.3711 8.40693V30.1363H102.552V21.9987C103.434 23.8892 105.169 25.046 107.786 25.046C111.654 25.046 114.698 22.2526 114.698 16.8917V16.4403C114.698 10.9664 111.967 7.97559 107.786 7.97559C105.084 7.97559 103.263 9.35815 102.382 11.4461L101.955 8.40693H98.3711ZM110.453 16.7886C110.453 19.7712 108.902 21.3751 106.478 21.3751C104.138 21.3751 102.616 19.5742 102.616 16.7042V16.3946C102.616 13.3839 104.195 11.5831 106.563 11.5831C108.789 11.5831 110.453 13.187 110.453 16.4227V16.7886Z" fill="#121212"/>
<path fill-rule="evenodd" clip-rule="evenodd" d="M79.7588 16.8024C79.7588 22.1433 82.7273 24.9826 87.9361 24.9826C92.8088 24.9826 96.0852 22.1433 96.0852 16.8024V16.3526C96.0852 10.9553 92.7527 7.97559 87.9361 7.97559C83.2313 7.97559 79.7588 10.8991 79.7588 16.3526V16.8024ZM91.8403 16.8035C91.8403 19.7665 90.3236 21.3751 87.9079 21.3751C85.4924 21.3751 84.0037 19.7383 84.0037 16.8035V16.4085C84.0037 13.2481 85.5766 11.5831 87.9361 11.5831C90.3236 11.5831 91.8403 13.361 91.8403 16.4085V16.8035Z" fill="#121212"/>
<path fill-rule="evenodd" clip-rule="evenodd" d="M68.3301 24.5703H72.6125V17.1361C72.6125 13.7008 73.469 12.49 77.0091 12.49H78.779V8.18164H77.7227C74.6681 8.18164 72.9836 9.50511 72.327 12.0958L71.7845 8.38684H68.3301V24.5703Z" fill="#121212"/>
<path fill-rule="evenodd" clip-rule="evenodd" d="M49.3916 4.57422V24.5704H57.167C62.2319 24.5704 66.0448 21.6514 66.0448 15.1961V13.8207C66.0448 7.39339 62.0043 4.57422 57.0532 4.57422H49.3916ZM53.6366 8.18177H56.8757C59.8012 8.18177 61.7998 10.0157 61.7998 14.0503V15.0943C61.7998 19.1289 59.8592 20.9628 57.0206 20.9628H53.6366V8.18177Z" fill="#121212"/>
<path d="M9.93443 0.410156L0.617188 6.28921L9.93443 12.1683L19.2532 6.28921L28.5705 12.1683L37.8877 6.28921L28.5705 0.410156L19.2532 6.28921L9.93443 0.410156Z" fill="#0056FE"/>
<path d="M9.93443 23.9262L0.617188 18.0471L9.93443 12.168L19.2532 18.0471L9.93443 23.9262Z" fill="#0056FE"/>
<path d="M19.2539 18.0471L28.5712 12.168L37.8884 18.0471L28.5712 23.9262L19.2539 18.0471Z" fill="#0056FE"/>
<path d="M19.2533 31.7649L9.93457 25.8859L19.2533 20.0068L28.5707 25.8859L19.2533 31.7649Z" fill="#0056FE"/>
</g>
<defs>
<clipPath id="clip0_22983_643">
<rect width="169" height="32" fill="white"/>
</clipPath>
</defs>
</svg>
