<svg width="175" height="32" viewBox="0 0 175 32" fill="none" xmlns="http://www.w3.org/2000/svg">
<path fill-rule="evenodd" clip-rule="evenodd" d="M13.5177 22.8488L5.76155 15.1675C4.4436 13.8621 2.30681 13.8621 0.988452 15.1675C-0.329484 16.4726 -0.329484 18.5888 0.988452 19.8944L11.1312 29.9395C12.4491 31.2447 14.5864 31.2447 15.9043 29.9395L25.4509 20.4845L20.6782 15.7574L13.5177 22.8488Z" fill="#16B8A2"/>
<path fill-rule="evenodd" clip-rule="evenodd" d="M42.7524 8.07759L27.8379 22.8483L12.9217 8.07592C11.6033 6.77027 9.46654 6.77027 8.14861 8.07592C6.83067 9.38116 6.83067 11.4974 8.14861 12.803L25.4513 29.939C26.7693 31.2443 28.9061 31.2443 30.2244 29.939L47.5256 12.8047C48.8434 11.499 48.8434 9.38283 47.5256 8.07759C46.2071 6.77235 44.0703 6.77235 42.7524 8.07759Z" fill="#FFB41F"/>
<path fill-rule="evenodd" clip-rule="evenodd" d="M54.6858 19.8959L44.5447 29.9392C43.2268 31.2445 41.09 31.2445 39.772 29.9392L15.3088 5.71178C13.9908 4.40655 13.9908 2.29034 15.3088 0.9851C16.6271 -0.320554 18.7639 -0.320554 20.0818 0.9851L42.1582 22.8486L49.9127 15.1688C51.231 13.8637 53.3678 13.8637 54.6858 15.1688C56.0037 16.4746 56.0037 18.5908 54.6858 19.8959Z" fill="#F56358"/>
<path fill-rule="evenodd" clip-rule="evenodd" d="M40.3662 0.98674C39.0482 -0.318497 36.9115 -0.318497 35.5931 0.98674L20.6787 15.7574L25.4514 20.4845L40.3662 5.71383C41.6842 4.40817 41.6842 2.29197 40.3662 0.98674Z" fill="#16B8A2"/>
<path fill-rule="evenodd" clip-rule="evenodd" d="M73.1464 3.29449H68.9961V27.4394H84.203V23.7931H73.1464V3.29449ZM93.1855 10.5544C95.709 10.5544 97.4023 11.5727 98.332 12.8211L98.5312 10.8829H102.117V27.4394H98.5312L98.332 25.5013C97.4023 26.7496 95.709 27.7679 93.1855 27.7679C88.6366 27.7679 85.5488 24.1216 85.5488 19.1612C85.5488 14.1679 88.6366 10.5544 93.1855 10.5544ZM94.0488 14.0366C91.4589 14.0366 89.5995 16.0405 89.5995 19.1612C89.5995 22.282 91.4589 24.2859 94.0488 24.2859C96.0409 24.2859 97.2363 23.2346 98.1328 21.822V16.5003C97.2363 15.0878 96.0409 14.0366 94.0488 14.0366ZM112.162 5.3312H108.178V10.8829H105.023V14.2337H108.178V21.5922C108.178 25.5998 110.601 27.7679 114.42 27.7679C116.08 27.7679 117.309 27.3081 118.139 26.7825L117.076 23.6946C116.578 23.9902 115.848 24.2201 114.785 24.2201C113.225 24.2201 112.162 23.2346 112.162 21.5592V14.2337H117.209V10.8829H112.162V5.3312ZM125.893 5.3312H121.908V10.8829H118.754V14.2337H121.908V21.5922C121.908 25.5998 124.332 27.7679 128.15 27.7679C129.81 27.7679 131.039 27.3081 131.869 26.7825L130.807 23.6946C130.308 23.9902 129.578 24.2201 128.516 24.2201C126.955 24.2201 125.893 23.2346 125.893 21.5592V14.2337H130.939V10.8829H125.893V5.3312ZM138.527 10.8829H134.543V27.4394H138.527V10.8829ZM136.535 3.16309C135.141 3.16309 134.078 4.18144 134.078 5.594C134.078 7.00656 135.141 8.02492 136.535 8.02492C137.963 8.02492 139.025 7.00656 139.025 5.594C139.025 4.18144 137.963 3.16309 136.535 3.16309ZM150.565 10.5544C145.418 10.5544 141.998 14.1679 141.998 19.1612C141.998 24.1216 145.452 27.7679 150.597 27.7679C153.619 27.7679 155.909 26.4211 157.404 24.1216L154.549 21.9207C153.752 23.2346 152.457 24.3187 150.631 24.3187C147.676 24.3187 146.049 22.052 146.049 19.1612C146.049 16.2375 147.61 14.0037 150.597 14.0037C152.457 14.0037 153.685 15.0549 154.449 16.369L157.338 14.2009C155.843 11.9013 153.619 10.5544 150.565 10.5544ZM167.15 10.5544C172.297 10.5544 174.821 14.3651 174.821 18.997V20.3766H163C163.1 23.0046 164.693 24.4501 167.482 24.4501C169.441 24.4501 170.869 23.5959 171.633 22.5448L174.389 24.7786C172.728 26.7496 170.537 27.7679 167.45 27.7679C162.27 27.7679 158.949 24.1544 158.949 19.194C158.949 14.2009 162.336 10.5544 167.15 10.5544ZM167.084 13.708C164.727 13.708 163.132 15.252 163 17.5516H170.903C170.803 15.2849 169.475 13.708 167.084 13.708Z" fill="#121212"/>
</svg>
