<svg width="175" height="38" viewBox="0 0 175 38" fill="none" xmlns="http://www.w3.org/2000/svg">
<g clip-path="url(#clip0_22983_636)">
<path d="M4.30851 30.0352C3.54286 30.0369 2.7905 29.8343 2.12827 29.4483C1.46604 29.0622 0.917695 28.5065 0.53924 27.8378C0.166579 27.1739 -0.019277 26.4206 0.00158104 25.6586C0.0224391 24.8967 0.249225 24.1548 0.657647 23.5124L8.41985 11.2665C8.81713 10.6083 9.38116 10.0679 10.0543 9.70044C10.7276 9.33296 11.4858 9.15159 12.2516 9.17484C13.0168 9.19325 13.7634 9.41562 14.415 9.81914C15.0666 10.2227 15.5998 10.7928 15.96 11.4714C16.6836 12.846 16.5932 14.4998 15.7265 15.7901L7.96925 28.0361C7.57583 28.6519 7.0341 29.158 6.39416 29.5075C5.75422 29.8569 5.03685 30.0384 4.30851 30.0352Z" fill="#F62B54"/>
<path d="M17.6229 30.0346C16.0573 30.0346 14.6167 29.1937 13.8602 27.8422C13.4884 27.1801 13.303 26.4288 13.3239 25.6688C13.3447 24.9088 13.571 24.169 13.9787 23.5284L21.726 11.3106C22.1174 10.6432 22.6795 10.0931 23.3538 9.71752C24.0282 9.34186 24.7903 9.15431 25.5611 9.1743C27.1398 9.20899 28.5706 10.0962 29.2942 11.4841C30.0128 12.8719 29.9075 14.5356 29.0146 15.8226L21.2688 28.0405C20.8767 28.6537 20.3371 29.1578 19.6999 29.5064C19.0627 29.8549 18.3484 30.0366 17.6229 30.0346Z" fill="#FFCC00"/>
<path d="M30.6388 30.1374C32.8458 30.1374 34.635 28.3776 34.635 26.2069C34.635 24.0361 32.8458 22.2764 30.6388 22.2764C28.4318 22.2764 26.6426 24.0361 26.6426 26.2069C26.6426 28.3776 28.4318 30.1374 30.6388 30.1374Z" fill="#00CA72"/>
<path fill-rule="evenodd" clip-rule="evenodd" d="M174.923 10.1708H169.084L164.99 20.7728L160.919 10.1708H155.079L162.178 26.9238L157.763 38H163.56L174.923 10.1708ZM139.408 19.489C139.408 22.1656 141.737 23.9268 144.024 23.9268C146.272 23.9268 148.481 22.2878 148.481 19.4874C148.481 16.687 146.272 15.0463 144.024 15.0463C141.737 15.0463 139.408 16.8092 139.408 19.4874V19.489ZM148.481 28.8437V26.7239C147.297 28.5248 144.534 29.2055 143.116 29.2055C138.423 29.2055 133.728 25.4881 133.728 19.4874C133.728 13.4883 138.421 9.77096 143.116 9.77096C144.299 9.77096 147.062 10.1675 148.481 12.2492V10.1774H153.924V28.847L148.481 28.8453V28.8437ZM132.179 28.8437H126.735V26.524C125.826 28.2423 123.62 29.2435 121.331 29.2435C116.597 29.2435 112.415 25.4451 112.415 19.5634C112.415 13.571 116.597 9.76765 121.331 9.76765C123.617 9.76765 125.829 10.7259 126.735 12.4458V0H132.179V28.8437ZM126.617 19.4461C126.617 16.6473 124.606 15.0067 122.358 15.0067C120.029 15.0067 118.095 16.7663 118.095 19.4461C118.095 22.2118 120.029 23.9631 122.356 23.9631C124.647 23.9664 126.617 22.1259 126.617 19.4461ZM98.9559 18.9637C98.9559 16.1252 100.416 15.1653 102.349 15.1653C104.202 15.1653 105.544 16.4044 105.544 18.8827V28.8403H111.027V17.6849C111.027 12.3682 108.422 9.76765 104.279 9.76765C102.11 9.76765 99.9411 11.0068 98.9541 12.887V10.1708H93.4745V28.8403H98.9559V18.9637ZM82.3413 29.1609C77.1345 29.1609 72.7914 25.3229 72.7914 19.4444C72.7914 13.5627 77.1296 9.76269 82.3413 9.76269C87.5526 9.76269 91.9291 13.5627 91.9291 19.4444C91.9291 25.3262 87.5477 29.1625 82.3413 29.1625V29.1609ZM82.3413 23.7252C84.6272 23.7252 86.5233 22.0433 86.5233 19.4461C86.5233 16.9265 84.629 15.2066 82.3413 15.2066C81.7904 15.1979 81.2435 15.302 80.734 15.5125C80.2245 15.723 79.763 16.0355 79.3777 16.4309C78.9901 16.8284 78.6862 17.3002 78.4832 17.8182C78.2808 18.3362 78.1842 18.8898 78.1989 19.4461C78.2002 22.0466 80.0932 23.7252 82.3413 23.7252ZM62.962 15.167C64.5786 15.167 65.9995 16.4474 65.9995 18.8843V28.8437H71.443V18.24C71.443 12.6028 68.7148 9.76435 64.3419 9.76435C63.0425 9.76435 60.5955 10.1609 58.8195 13.0819C57.7934 10.9225 55.8216 9.80235 52.9074 9.80235C51.8955 9.79716 50.904 10.0848 50.0506 10.631C49.1971 11.1771 48.5185 11.9586 48.0957 12.882V10.1724H42.6094V28.842H48.0908V18.9637C48.0908 16.1252 49.63 15.1653 51.2858 15.1653C52.8647 15.1653 54.2824 16.4044 54.3234 18.7637V28.842H59.8061V18.9637C59.8061 16.2491 61.2269 15.1686 62.962 15.1686V15.167Z" fill="#121212"/>
</g>
<defs>
<clipPath id="clip0_22983_636">
<rect width="175" height="38" fill="white"/>
</clipPath>
</defs>
</svg>
